<?xml version="1.0" standalone="no"?>
<!DOCTYPE svg PUBLIC "-//W3C//DTD SVG 20010904//EN"
 "http://www.w3.org/TR/2001/REC-SVG-20010904/DTD/svg10.dtd">
<svg version="1.0" xmlns="http://www.w3.org/2000/svg"
 width="132.000000pt" height="150.000000pt" viewBox="0 0 132.000000 150.000000"
 preserveAspectRatio="xMidYMid meet">

<g transform="translate(0.000000,150.000000) scale(0.100000,-0.100000)"
fill="#000000" stroke="none">
<path d="M495 1484 c-73 -27 -182 -85 -206 -110 -12 -13 -27 -24 -34 -24 -6 0
-28 -21 -50 -47 -22 -27 -43 -49 -47 -51 -4 -2 -8 -7 -8 -12 0 -4 -18 -35 -40
-68 -22 -33 -40 -63 -40 -67 0 -5 -12 -38 -26 -74 -15 -36 -28 -78 -29 -92 -1
-14 -4 -30 -7 -35 -3 -5 -6 -73 -6 -152 -1 -154 10 -216 54 -312 14 -30 27
-63 29 -72 2 -10 15 -33 29 -51 14 -19 26 -37 26 -41 0 -10 17 -29 75 -85 87
-84 118 -110 127 -105 4 3 8 0 8 -5 0 -6 3 -10 8 -9 4 1 30 -10 59 -25 29 -15
60 -28 70 -30 10 -1 23 -6 29 -10 6 -3 78 -5 160 -3 l149 3 89 43 c49 23 102
54 119 69 37 32 137 133 137 138 0 2 18 31 40 63 22 32 40 62 40 66 0 4 12 36
26 72 14 35 27 74 28 86 1 12 5 26 8 32 4 5 7 82 7 170 0 170 -8 216 -55 320
-15 32 -28 64 -30 71 -1 6 -14 27 -28 46 -14 19 -26 39 -26 45 0 7 -4 12 -10
12 -5 0 -10 5 -10 10 0 6 -23 32 -51 58 -29 26 -65 59 -82 75 -16 15 -36 27
-43 27 -8 0 -14 5 -14 10 0 6 -3 9 -7 8 -5 0 -39 14 -78 32 -68 32 -74 34
-210 36 -102 2 -151 -2 -180 -12z m225 -127 c76 -4 154 -32 208 -74 32 -25
122 -111 122 -117 0 -3 10 -16 23 -29 30 -34 99 -194 102 -237 1 -19 3 -35 5
-35 1 0 3 -53 4 -117 2 -68 -2 -118 -7 -118 -5 0 -7 -9 -4 -21 10 -38 -74
-228 -119 -270 -13 -12 -24 -27 -24 -32 0 -34 -186 -152 -257 -163 -63 -10
-197 -11 -209 -2 -7 5 -16 7 -20 6 -13 -4 -104 32 -104 42 0 4 -8 11 -17 14
-35 12 -63 33 -107 80 -25 26 -46 50 -46 52 0 3 -11 16 -24 30 -31 34 -97 197
-101 249 -1 22 -3 41 -4 43 -6 7 -3 181 4 191 4 7 4 18 2 26 -11 28 65 215
105 259 10 11 18 23 18 28 0 9 71 82 106 109 41 32 168 89 185 84 9 -3 20 -1
24 4 3 6 18 8 33 6 15 -3 61 -6 102 -8z"/>
<path d="M584 1271 c-2 -2 -16 -6 -31 -7 -14 -2 -48 -17 -75 -33 -27 -17 -54
-31 -59 -31 -5 0 -9 -4 -9 -10 0 -5 -5 -10 -11 -10 -20 0 -97 -95 -132 -165
-43 -85 -52 -127 -51 -260 0 -161 11 -209 65 -286 10 -14 16 -29 13 -31 -4 -5
103 -118 113 -118 2 0 24 -14 49 -30 47 -33 121 -63 134 -55 5 3 11 1 15 -5 8
-13 122 -13 130 1 4 6 14 8 23 4 22 -8 157 60 202 102 19 18 38 33 43 33 4 0
7 4 7 9 0 5 18 36 40 68 83 120 110 314 65 459 -9 27 -18 60 -21 74 -3 14 -18
44 -34 67 -17 23 -30 43 -30 46 0 2 -22 27 -50 54 -27 28 -50 48 -50 46 0 -2
-13 5 -30 17 -42 30 -118 62 -130 55 -6 -3 -10 -2 -10 2 0 9 -168 12 -176 4z
m166 -143 c0 -4 9 -8 20 -8 47 0 175 -119 187 -174 1 -6 11 -38 23 -70 27 -80
26 -166 -4 -260 -25 -79 -84 -171 -120 -187 -12 -5 -33 -18 -48 -30 -14 -12
-38 -22 -52 -22 -14 1 -26 -2 -26 -6 0 -3 -27 -6 -60 -6 -33 0 -60 4 -60 8 0
5 -6 7 -12 4 -30 -10 -148 77 -185 138 -29 47 -45 78 -49 98 -16 84 -21 149
-15 192 5 27 6 55 4 62 -3 7 0 13 7 13 6 0 10 6 7 13 -9 25 70 148 111 174 15
9 37 25 48 35 12 11 31 20 43 21 11 1 21 4 21 7 0 4 36 6 80 6 44 0 80 -3 80
-8z"/>
<path d="M570 1037 c-14 -6 -41 -26 -60 -44 -19 -18 -38 -33 -43 -33 -10 0
-51 -95 -66 -154 -13 -54 -2 -136 27 -191 9 -16 16 -34 17 -38 0 -17 67 -75
113 -99 39 -21 60 -25 122 -24 67 1 80 5 123 34 57 40 122 125 135 178 16 62
8 164 -15 209 -48 93 -55 105 -64 105 -6 0 -28 14 -50 32 -37 30 -45 32 -127
34 -49 1 -98 -3 -112 -9z m201 -175 c33 -38 35 -43 33 -109 -1 -37 -2 -71 -3
-75 -3 -18 -65 -78 -80 -78 -10 0 -21 -3 -25 -7 -10 -10 -38 -13 -50 -5 -6 3
-17 7 -25 9 -18 2 -58 49 -77 90 -20 45 -18 89 8 142 28 58 42 72 81 81 53 11
99 -5 138 -48z"/>
</g>
</svg>
