<?xml version="1.0" standalone="no"?>
<!DOCTYPE svg PUBLIC "-//W3C//DTD SVG 20010904//EN"
 "http://www.w3.org/TR/2001/REC-SVG-20010904/DTD/svg10.dtd">
<svg version="1.0" xmlns="http://www.w3.org/2000/svg"
 width="150.000000pt" height="106.000000pt" viewBox="0 0 150.000000 106.000000"
 preserveAspectRatio="xMidYMid meet">

<g transform="translate(0.000000,106.000000) scale(0.100000,-0.100000)"
fill="#000000" stroke="none">
<path d="M354 1046 c-150 -37 -288 -197 -338 -391 -9 -32 -16 -72 -16 -87 0
-26 5 -23 78 50 180 179 364 245 511 181 74 -31 78 -40 44 -90 -27 -38 -32
-41 -80 -43 -117 -3 -177 -116 -112 -208 20 -27 20 -28 1 -64 -14 -28 -26 -38
-47 -40 -100 -11 -144 -91 -94 -173 18 -30 19 -39 10 -78 -13 -49 -6 -89 15
-97 22 -8 62 36 69 78 5 26 12 36 26 36 97 0 148 107 89 183 -18 23 -18 24 0
54 16 27 25 31 72 35 109 9 159 82 124 180 l-18 50 28 29 28 29 37 -36 36 -35
-18 -37 c-23 -45 -24 -71 -2 -117 21 -44 87 -79 139 -73 33 4 37 1 54 -33 17
-32 18 -39 5 -49 -27 -22 -39 -84 -24 -116 17 -34 73 -74 104 -74 18 0 24 -7
30 -37 8 -46 31 -73 61 -73 30 0 39 41 21 101 -13 44 -13 47 11 74 20 24 23
36 19 74 -6 54 -40 86 -102 99 -29 5 -44 16 -57 38 -17 29 -17 31 8 79 26 52
26 95 1 135 -19 31 -82 60 -129 60 -43 0 -46 2 -76 50 l-31 50 37 24 c58 37
107 49 187 44 123 -8 250 -80 382 -217 60 -64 63 -65 63 -37 0 48 -30 147 -68
224 -80 161 -216 262 -353 262 -105 0 -166 -27 -257 -116 l-75 -74 -68 65
c-106 102 -213 139 -325 111z m800 -82 c19 -19 20 -26 4 -42 -34 -34 -92 5
-61 40 20 22 37 23 57 2z m-750 -10 c23 -23 3 -56 -31 -52 -34 4 -51 31 -34
52 17 20 45 20 65 0z m617 0 c17 -21 0 -49 -31 -49 -31 0 -48 28 -31 49 8 9
21 16 31 16 10 0 23 -7 31 -16z m-480 -10 c17 -21 0 -49 -31 -49 -31 0 -48 28
-31 49 8 9 21 16 31 16 10 0 23 -7 31 -16z m723 -66 c16 -27 -14 -54 -43 -39
-24 13 -27 31 -9 49 16 16 38 12 52 -10z m-969 -9 c4 -12 3 -25 -3 -31 -16
-16 -56 -5 -60 16 -7 36 52 51 63 15z m159 -601 c33 -47 14 -88 -41 -88 -36 0
-73 29 -73 57 0 50 85 73 114 31z m680 1 c32 -25 33 -51 4 -79 -26 -24 -65
-26 -90 -3 -33 29 -17 78 32 96 24 9 26 8 54 -14z"/>
</g>
</svg>
