<?xml version="1.0" standalone="no"?>
<!DOCTYPE svg PUBLIC "-//W3C//DTD SVG 20010904//EN"
 "http://www.w3.org/TR/2001/REC-SVG-20010904/DTD/svg10.dtd">
<svg version="1.0" xmlns="http://www.w3.org/2000/svg"
 width="150.000000pt" height="188.000000pt" viewBox="0 0 150.000000 188.000000"
 preserveAspectRatio="xMidYMid meet">

<g transform="translate(0.000000,188.000000) scale(0.100000,-0.100000)"
fill="#000000" stroke="none">
<path d="M860 1878 c0 -2 34 -39 76 -83 177 -185 260 -358 233 -484 -22 -103
-89 -173 -227 -238 -99 -46 -156 -52 -217 -23 -136 66 -111 268 47 374 l50 34
-28 18 c-44 30 -150 31 -235 4 -119 -39 -200 -129 -254 -282 l-28 -78 -57 0
c-31 0 -84 -3 -118 -6 -59 -7 -60 -7 -77 -48 -22 -56 -31 -173 -15 -220 6 -20
23 -50 37 -66 23 -28 29 -30 101 -31 123 -2 120 0 148 -108 43 -172 111 -279
201 -316 91 -38 263 -25 307 23 16 19 15 21 -31 50 -44 28 -89 71 -122 114
-21 29 -31 90 -20 130 38 142 281 156 427 24 56 -51 76 -108 69 -194 -9 -112
-74 -244 -190 -390 l-69 -85 54 6 c150 18 332 89 417 163 60 52 115 140 136
218 36 133 9 335 -69 510 -14 32 -26 63 -26 68 0 5 11 24 25 42 13 18 39 64
57 102 27 59 32 84 36 165 7 165 -45 289 -177 419 -127 124 -263 190 -391 190
-39 0 -70 -1 -70 -2z"/>
</g>
</svg>
