<?xml version="1.0" standalone="no"?>
<!DOCTYPE svg PUBLIC "-//W3C//DTD SVG 20010904//EN"
 "http://www.w3.org/TR/2001/REC-SVG-20010904/DTD/svg10.dtd">
<svg version="1.0" xmlns="http://www.w3.org/2000/svg"
 width="150.000000pt" height="150.000000pt" viewBox="0 0 150.000000 150.000000"
 preserveAspectRatio="xMidYMid meet">

<g transform="translate(0.000000,150.000000) scale(0.100000,-0.100000)"
fill="#000000" stroke="none">
<path d="M974 1470 c-34 -17 -83 -52 -109 -79 -45 -46 -85 -99 -85 -112 0 -4
34 -28 75 -54 41 -25 77 -50 80 -55 3 -5 -19 -49 -50 -96 l-55 -88 -69 -1
c-54 -1 -78 -7 -112 -27 l-44 -26 -98 61 c-94 58 -97 61 -82 81 8 12 18 28 22
36 3 8 20 34 36 58 16 24 27 45 25 46 -15 13 -102 55 -138 66 -68 22 -196 18
-245 -7 -153 -80 -168 -262 -33 -409 42 -47 114 -104 129 -104 4 0 24 28 45
63 70 117 56 113 163 47 l94 -57 1 -69 c1 -54 7 -79 28 -116 l26 -48 -22 -32
c-12 -18 -37 -58 -55 -88 -18 -30 -35 -56 -36 -58 -2 -2 -42 20 -89 48 -47 28
-89 49 -94 46 -9 -5 -42 -72 -63 -126 -8 -20 -14 -73 -14 -125 0 -81 3 -95 28
-138 18 -30 47 -60 75 -78 63 -40 157 -41 237 -4 56 27 148 111 178 164 l18
31 -75 48 c-42 26 -76 50 -76 54 0 4 26 48 58 98 56 88 58 90 89 84 41 -8 126
12 157 37 l25 20 91 -56 c49 -31 90 -59 90 -62 0 -3 -10 -20 -23 -37 -40 -54
-78 -126 -72 -136 19 -31 170 -80 246 -80 71 0 156 30 191 68 43 46 58 86 58
157 0 105 -46 185 -161 278 -25 20 -50 37 -55 37 -5 -1 -30 -36 -57 -80 l-47
-79 -87 55 -87 54 -1 63 c0 48 -6 73 -28 111 l-27 49 57 91 c31 50 58 93 60
95 1 2 20 -7 40 -21 83 -54 125 -79 128 -76 13 12 56 113 70 162 69 238 -120
418 -331 316z"/>
</g>
</svg>
