<?xml version="1.0" standalone="no"?>
<!DOCTYPE svg PUBLIC "-//W3C//DTD SVG 20010904//EN"
 "http://www.w3.org/TR/2001/REC-SVG-20010904/DTD/svg10.dtd">
<svg version="1.0" xmlns="http://www.w3.org/2000/svg"
 width="250.000000pt" height="233.000000pt" viewBox="0 0 250.000000 233.000000"
 preserveAspectRatio="xMidYMid meet">

<g transform="translate(0.000000,233.000000) scale(0.100000,-0.100000)"
fill="#000000" stroke="none">
<path d="M1095 2321 c-91 -25 -105 -42 -105 -123 0 -72 27 -194 99 -446 34
-118 61 -228 61 -246 0 -58 -48 -102 -100 -91 -24 5 -57 46 -186 227 -241 339
-373 498 -412 498 -32 0 -115 -60 -192 -139 -88 -90 -137 -173 -126 -214 11
-47 170 -148 558 -354 110 -59 204 -115 209 -125 16 -30 7 -61 -23 -77 -25
-14 -50 -13 -290 18 -325 42 -506 51 -542 27 -33 -21 -46 -72 -46 -184 0 -109
23 -231 53 -287 18 -32 29 -41 55 -43 52 -5 171 33 448 144 170 68 274 104
298 104 53 0 105 -27 113 -59 17 -62 3 -81 -191 -255 -204 -183 -325 -307
-349 -358 -16 -34 -16 -40 -3 -66 8 -16 44 -56 80 -90 111 -103 272 -186 317
-162 26 15 69 109 153 344 120 331 163 409 249 450 46 21 69 20 99 -4 42 -33
55 -77 83 -275 45 -330 80 -468 130 -515 22 -20 31 -22 89 -18 50 4 87 16 159
51 99 48 197 127 197 157 0 25 -65 120 -189 275 -118 147 -208 281 -228 336
-14 43 -5 82 22 93 50 19 83 5 291 -119 222 -134 390 -222 439 -231 44 -8 78
24 120 109 57 121 85 298 53 339 -29 37 -160 54 -468 64 -344 10 -410 23 -410
79 0 43 50 82 235 181 360 192 518 296 531 348 12 50 -80 219 -163 298 -51 49
-86 62 -121 44 -29 -15 -227 -215 -402 -405 -128 -138 -181 -181 -226 -181
-39 0 -60 19 -73 66 -8 29 0 95 40 337 27 167 49 334 49 375 l0 73 -37 16
c-43 19 -295 28 -348 14z m243 -1020 c69 -36 102 -88 102 -162 0 -157 -202
-236 -325 -127 -129 112 -44 308 133 308 32 0 67 -7 90 -19z"/>
</g>
</svg>
