<?xml version="1.0" standalone="no"?>
<!DOCTYPE svg PUBLIC "-//W3C//DTD SVG 20010904//EN"
 "http://www.w3.org/TR/2001/REC-SVG-20010904/DTD/svg10.dtd">
<svg version="1.0" xmlns="http://www.w3.org/2000/svg"
 width="150.000000pt" height="231.000000pt" viewBox="0 0 150.000000 231.000000"
 preserveAspectRatio="xMidYMid meet">

<g transform="translate(0.000000,231.000000) scale(0.100000,-0.100000)"
fill="#000000" stroke="none">
<path d="M648 2255 c-40 -31 -124 -101 -186 -156 -295 -264 -462 -514 -462
-694 0 -86 26 -142 96 -211 l62 -62 -42 -35 c-91 -75 -135 -216 -106 -338 44
-186 261 -435 585 -670 160 -117 159 -117 295 -9 275 220 477 446 568 637 30
63 36 90 40 158 3 48 0 97 -7 118 -17 49 -64 112 -110 145 l-40 29 50 49 c28
27 63 72 77 99 24 45 27 61 27 150 0 84 -4 109 -24 155 -86 195 -343 455 -656
664 -58 38 -83 34 -167 -29z m177 -170 c278 -209 475 -428 514 -570 14 -51 14
-126 0 -162 -16 -42 -68 -93 -124 -119 -125 -59 -291 -3 -349 119 -30 64 -17
91 57 122 78 32 121 14 143 -63 19 -67 106 -67 140 1 35 66 -36 183 -126 207
-78 22 -192 -12 -295 -87 l-40 -29 -46 46 c-83 83 -174 108 -269 74 -96 -35
-190 -136 -190 -206 0 -32 4 -40 26 -48 49 -19 88 4 122 71 10 19 32 42 50 52
32 19 34 19 73 2 22 -10 53 -34 69 -52 55 -63 52 -118 -9 -159 -148 -98 -354
-57 -407 81 -48 128 39 303 267 535 86 87 277 259 289 260 3 0 50 -34 105 -75z
m-8 -1002 l-40 -42 -28 39 c-22 30 -58 63 -108 97 -2 1 16 20 39 41 l44 39 67
-66 67 -66 -41 -42z m-328 -2 c62 -23 98 -51 134 -103 39 -58 37 -102 -5 -128
-92 -56 -147 -46 -177 34 -18 49 -20 51 -60 54 -113 9 -122 -143 -14 -225 33
-25 44 -28 113 -28 69 0 84 4 153 38 41 22 85 50 98 63 l22 24 48 -51 c89 -92
191 -113 299 -63 144 66 225 244 112 244 -45 0 -74 -22 -97 -73 -17 -37 -58
-67 -91 -67 -47 0 -144 98 -144 146 0 66 104 123 233 127 82 2 85 1 140 -35
172 -114 119 -316 -156 -604 -86 -90 -269 -257 -304 -278 -35 -20 -379 268
-499 418 -115 144 -165 278 -135 368 14 41 68 100 114 125 65 34 149 40 216
14z"/>
</g>
</svg>
