<?xml version="1.0" standalone="no"?>
<!DOCTYPE svg PUBLIC "-//W3C//DTD SVG 20010904//EN"
 "http://www.w3.org/TR/2001/REC-SVG-20010904/DTD/svg10.dtd">
<svg version="1.0" xmlns="http://www.w3.org/2000/svg"
 width="113.000000pt" height="149.000000pt" viewBox="0 0 113.000000 149.000000"
 preserveAspectRatio="xMidYMid meet">

<g transform="translate(0.000000,149.000000) scale(0.100000,-0.100000)"
fill="#000000" stroke="none">
<path d="M368 1474 c-43 -23 -53 -50 -26 -68 22 -16 22 -16 2 -16 -25 0 -74
-43 -74 -63 0 -27 43 -28 80 -2 31 21 41 23 69 15 64 -18 131 -75 131 -112 0
-20 -1 -20 -27 -2 -101 66 -200 70 -270 10 -24 -20 -25 -26 -14 -40 19 -23 47
-20 85 9 51 39 111 29 194 -33 26 -20 32 -31 32 -63 l0 -39 -46 35 c-52 40
-142 70 -188 62 -18 -3 -53 -15 -78 -27 -36 -17 -47 -27 -50 -50 -7 -50 42
-55 93 -10 24 21 44 30 69 30 43 0 130 -40 171 -78 25 -23 30 -35 27 -65 l-3
-37 -29 25 c-76 66 -198 92 -280 61 -85 -33 -115 -98 -47 -104 25 -3 40 3 60
22 43 40 73 47 133 30 29 -8 77 -31 106 -51 51 -35 52 -36 52 -85 l0 -49 -27
26 c-40 37 -140 84 -194 91 -59 8 -143 -16 -187 -53 -29 -26 -31 -30 -20 -52
18 -34 63 -34 97 -1 43 42 76 50 141 37 31 -6 133 -60 161 -84 20 -19 29 -36
29 -58 0 -17 -3 -34 -6 -38 -8 -7 -84 42 -84 55 0 5 -5 6 -10 3 -6 -3 -10 -3
-10 2 0 11 -43 29 -103 44 -65 16 -135 7 -199 -24 -92 -45 -102 -107 -17 -107
29 0 46 8 76 36 36 35 40 36 98 32 77 -5 155 -43 227 -110 13 -13 18 -32 18
-69 l0 -50 -47 40 c-57 47 -138 86 -211 102 -65 13 -137 -1 -207 -40 -82 -47
-88 -113 -12 -119 31 -3 43 3 83 40 44 40 50 43 103 41 31 0 76 -8 100 -17 44
-16 145 -78 156 -96 3 -5 -16 -11 -42 -15 -152 -19 -215 -41 -272 -97 -82 -80
-104 -150 -71 -221 29 -61 78 -82 182 -75 134 9 240 80 275 183 l11 30 11 -25
c32 -73 101 -135 174 -155 4 -2 8 -3 10 -5 22 -17 146 -18 192 -1 34 13 83 54
86 71 0 3 2 16 5 29 9 50 -23 127 -74 175 -64 62 -132 87 -255 94 l-98 5 48
35 c60 43 115 68 181 83 64 13 106 1 147 -41 28 -30 70 -39 109 -24 24 9 20
57 -6 80 -115 98 -288 86 -442 -32 l-46 -35 0 48 c0 51 5 58 65 98 62 41 130
67 185 72 56 5 59 4 94 -30 42 -42 65 -51 100 -38 29 11 35 44 13 72 -39 51
-167 81 -247 58 -25 -7 -47 -13 -50 -14 -17 -4 -100 -52 -124 -72 -34 -28 -46
-19 -46 34 0 28 7 37 43 60 23 15 45 32 48 36 3 5 9 9 12 8 4 0 24 7 44 17 21
9 64 16 96 17 50 0 60 -3 80 -26 28 -34 51 -41 82 -27 18 8 25 19 25 39 0 24
-8 33 -52 56 -101 52 -222 31 -334 -58 l-39 -31 -3 35 c-3 31 3 41 35 72 49
46 114 77 175 83 44 4 53 1 81 -25 19 -17 45 -30 64 -32 27 -2 33 2 39 23 8
33 1 42 -56 71 -91 46 -184 30 -292 -52 l-58 -43 0 49 c0 43 4 51 33 73 99 76
192 94 239 46 29 -30 48 -34 78 -18 19 10 20 44 2 62 -21 21 -125 48 -160 42
-37 -7 -126 -49 -169 -80 -23 -16 -23 -16 -23 19 0 27 7 40 33 59 85 65 160
80 198 40 25 -27 82 -28 87 0 5 25 -59 68 -108 72 -55 5 -94 -7 -153 -44 -57
-36 -57 -36 -57 -8 0 29 71 95 120 109 37 11 43 10 70 -9 51 -38 114 -18 74
23 -62 62 -167 51 -243 -26 l-31 -31 0 39 c0 28 6 45 23 59 63 56 117 69 139
34 17 -27 68 -28 68 -1 0 32 -47 61 -97 61 -52 0 -79 -12 -112 -51 -29 -35
-30 -35 -61 -6 -58 53 -131 69 -182 41z m120 -43 c54 -28 71 -50 65 -89 -5
-33 -6 -33 -27 -14 -31 28 -89 59 -124 67 l-31 6 21 25 c26 29 47 30 96 5z
m42 -1103 c0 -12 -7 -48 -16 -80 -28 -98 -104 -158 -199 -158 -38 0 -52 5 -76
29 -43 43 -36 95 18 145 37 35 81 55 156 71 95 21 117 19 117 -7z m281 -3 c63
-23 107 -60 118 -102 19 -69 -23 -113 -110 -113 -91 0 -171 80 -198 201 l-9
42 78 -7 c43 -3 98 -13 121 -21z"/>
</g>
</svg>
