<?xml version="1.0" standalone="no"?>
<!DOCTYPE svg PUBLIC "-//W3C//DTD SVG 20010904//EN"
 "http://www.w3.org/TR/2001/REC-SVG-20010904/DTD/svg10.dtd">
<svg version="1.0" xmlns="http://www.w3.org/2000/svg"
 width="144.000000pt" height="140.000000pt" viewBox="0 0 144.000000 140.000000"
 preserveAspectRatio="xMidYMid meet">

<g transform="translate(0.000000,140.000000) scale(0.100000,-0.100000)"
fill="#000000" stroke="none">
<path d="M155 1377 c-65 -31 -102 -69 -133 -135 -22 -48 -24 -64 -20 -145 3
-77 9 -103 34 -157 41 -86 102 -161 174 -214 l59 -43 -49 -32 c-68 -44 -145
-133 -182 -211 -25 -52 -33 -82 -36 -146 -4 -72 -1 -89 20 -135 32 -68 69
-105 136 -137 48 -22 64 -24 147 -20 83 3 101 8 169 42 84 41 190 133 221 190
11 20 22 36 25 36 3 0 14 -16 25 -36 31 -57 137 -149 221 -190 68 -34 86 -39
169 -42 83 -4 99 -2 147 20 67 32 104 69 136 137 21 46 24 63 20 135 -3 64
-11 94 -36 146 -37 78 -114 167 -182 211 l-49 32 59 43 c72 53 133 128 174
214 25 54 31 80 34 157 4 81 2 97 -20 145 -32 67 -69 104 -137 136 -46 21 -63
24 -136 20 -69 -4 -95 -10 -152 -38 -90 -44 -199 -152 -239 -237 -16 -34 -31
-62 -34 -62 -3 0 -18 28 -34 62 -41 86 -149 193 -240 237 -58 29 -81 34 -155
37 -75 4 -93 1 -136 -20z m211 -140 c123 -62 212 -184 222 -303 3 -36 1 -64
-4 -64 -12 0 -104 95 -132 137 -12 17 -22 45 -22 62 0 67 -81 94 -139 45 -59
-50 -29 -144 47 -144 46 0 205 -142 188 -168 -11 -19 -72 -22 -122 -7 -74 22
-138 69 -194 143 -103 137 -117 259 -38 317 33 24 129 15 194 -18z m902 17
c80 -55 65 -179 -38 -316 -56 -74 -120 -121 -194 -143 -50 -15 -116 -11 -116
7 0 16 91 107 139 138 26 16 60 30 74 30 67 0 91 88 38 141 -52 52 -124 31
-137 -39 -3 -20 -18 -54 -32 -76 -33 -49 -132 -137 -145 -129 -5 3 -7 33 -5
68 11 137 136 282 278 326 44 13 114 10 138 -7z m-496 -446 c89 -27 117 -121
55 -183 -45 -45 -107 -55 -170 -27 -100 44 -102 158 -4 203 49 22 66 23 119 7z
m-239 -227 c17 -6 15 -12 -20 -57 -48 -60 -146 -130 -177 -126 -12 2 -34 -7
-49 -18 -58 -46 -15 -160 60 -160 35 0 71 31 78 68 11 52 39 94 109 159 66 63
70 65 79 45 27 -60 -42 -199 -136 -273 -215 -172 -409 -104 -327 113 52 139
203 257 330 257 19 0 43 -4 53 -8z m556 -27 c113 -56 210 -187 219 -299 5 -61
-7 -89 -51 -115 -64 -39 -168 -14 -277 65 -104 77 -171 198 -155 281 6 34 6
34 34 20 67 -35 171 -165 171 -215 0 -69 98 -93 148 -36 44 51 14 135 -49 135
-16 0 -49 16 -80 40 -60 44 -141 139 -132 153 10 17 114 -1 172 -29z"/>
</g>
</svg>
