<?xml version="1.0" standalone="no"?>
<!DOCTYPE svg PUBLIC "-//W3C//DTD SVG 20010904//EN"
 "http://www.w3.org/TR/2001/REC-SVG-20010904/DTD/svg10.dtd">
<svg version="1.0" xmlns="http://www.w3.org/2000/svg"
 width="150.000000pt" height="114.000000pt" viewBox="0 0 150.000000 114.000000"
 preserveAspectRatio="xMidYMid meet">

<g transform="translate(0.000000,114.000000) scale(0.100000,-0.100000)"
fill="#000000" stroke="none">
<path d="M860 1122 c-15 -12 -24 -33 -27 -65 -5 -41 -1 -57 31 -117 35 -68 44
-100 28 -100 -16 0 -40 35 -87 130 -56 113 -70 130 -105 130 -67 0 -80 -75
-24 -141 47 -56 68 -109 44 -109 -6 0 -36 24 -69 54 -86 79 -163 97 -177 40
-9 -34 1 -52 37 -72 56 -31 79 -53 79 -77 l0 -23 -157 2 c-122 1 -172 -3 -221
-16 -75 -21 -165 -64 -188 -89 -25 -28 -31 -111 -9 -132 23 -23 41 -21 112 12
38 18 65 26 69 20 3 -5 -18 -31 -46 -57 -62 -56 -80 -88 -80 -139 0 -48 23
-83 56 -83 39 0 109 73 151 156 37 75 60 97 50 47 -6 -32 -42 -95 -92 -167
-42 -59 -46 -110 -13 -176 18 -35 29 -46 51 -48 58 -7 101 66 115 195 11 95
25 125 55 121 20 -3 23 -11 29 -88 10 -112 35 -215 63 -260 37 -59 116 -87
149 -54 26 25 19 69 -24 156 -37 75 -41 98 -20 98 4 0 33 -44 63 -98 59 -103
77 -125 115 -137 31 -9 72 18 72 49 0 53 -40 114 -92 140 -30 16 -45 43 -31
57 20 20 52 -1 109 -73 53 -66 104 -108 131 -108 25 0 53 40 53 73 0 35 -17
56 -73 91 -23 14 -28 23 -25 49 4 45 38 55 126 38 245 -47 287 -48 348 -10 51
31 79 117 58 173 -8 21 -59 20 -109 -3 -104 -47 -129 -28 -45 34 73 54 100 90
100 134 0 47 -32 91 -65 91 -33 0 -116 -84 -150 -150 -17 -34 -30 -49 -36 -43
-15 15 10 68 61 132 49 61 61 101 50 161 -11 60 -40 94 -82 98 -57 5 -90 -55
-108 -199 -5 -46 -16 -90 -24 -97 -38 -38 -62 26 -51 132 8 72 -8 204 -31 252
-38 79 -95 106 -144 66z m-136 -418 c23 -9 20 -27 -9 -54 -53 -50 -16 -77 131
-96 127 -17 158 -29 162 -65 4 -32 -36 -64 -105 -85 -50 -15 -133 -19 -133 -6
0 5 20 22 45 40 50 35 58 64 23 84 -14 7 -84 14 -174 17 -160 6 -184 14 -184
55 0 29 25 63 61 82 50 25 150 41 183 28z"/>
</g>
</svg>
