<?xml version="1.0" standalone="no"?>
<!DOCTYPE svg PUBLIC "-//W3C//DTD SVG 20010904//EN"
 "http://www.w3.org/TR/2001/REC-SVG-20010904/DTD/svg10.dtd">
<svg version="1.0" xmlns="http://www.w3.org/2000/svg"
 width="150.000000pt" height="238.000000pt" viewBox="0 0 150.000000 238.000000"
 preserveAspectRatio="xMidYMid meet">

<g transform="translate(0.000000,238.000000) scale(0.100000,-0.100000)"
fill="#000000" stroke="none">
<path d="M651 2359 c-106 -54 -151 -199 -91 -297 l20 -32 -230 0 c-127 0 -230
-3 -230 -7 0 -3 32 -48 71 -100 l70 -94 -50 -55 c-197 -215 -265 -563 -169
-864 31 -98 93 -211 158 -288 l58 -69 -74 -96 c-41 -52 -74 -98 -74 -101 0 -3
101 -6 225 -6 l225 0 0 -175 0 -175 205 0 205 0 0 175 0 175 205 0 c113 0 205
4 205 8 0 5 -31 50 -69 101 l-70 93 59 69 c93 111 163 264 189 413 16 87 13
256 -5 344 -29 143 -98 287 -184 385 -26 29 -39 51 -34 59 4 7 39 52 76 100
37 47 68 91 68 97 0 8 -74 11 -245 11 l-244 0 22 38 c51 86 15 220 -75 279
-57 38 -154 44 -217 12z m249 -649 l0 -150 -150 0 -150 0 0 150 0 150 150 0
150 0 0 -150z m-322 -298 c89 -119 162 -221 162 -227 -1 -14 -320 -425 -330
-425 -16 0 -70 78 -105 152 -88 186 -82 420 17 598 31 55 79 120 88 119 3 0
78 -98 168 -217z m597 103 c104 -187 110 -418 16 -610 -44 -91 -94 -155 -109
-140 -5 6 -78 101 -161 213 -94 126 -149 207 -144 215 8 13 233 304 291 375
33 42 35 43 54 25 11 -9 35 -45 53 -78z m-316 -713 c100 -73 95 -209 -8 -279
-68 -46 -181 -23 -226 46 -48 74 -40 155 20 215 56 56 152 64 214 18z"/>
</g>
</svg>
