<?xml version="1.0" standalone="no"?>
<!DOCTYPE svg PUBLIC "-//W3C//DTD SVG 20010904//EN"
 "http://www.w3.org/TR/2001/REC-SVG-20010904/DTD/svg10.dtd">
<svg version="1.0" xmlns="http://www.w3.org/2000/svg"
 width="147.000000pt" height="183.000000pt" viewBox="0 0 147.000000 183.000000"
 preserveAspectRatio="xMidYMid meet">

<g transform="translate(0.000000,183.000000) scale(0.100000,-0.100000)"
fill="#000000" stroke="none">
<path d="M610 1823 c-202 -34 -394 -191 -499 -409 -77 -159 -105 -291 -105
-494 0 -156 7 -212 46 -344 75 -259 258 -467 483 -547 76 -27 231 -36 317 -19
270 53 484 274 585 605 26 86 27 100 27 300 0 201 -1 214 -27 299 -33 106 -83
217 -127 281 -114 166 -297 292 -471 325 -51 10 -179 11 -229 3z m70 -327 c0
-54 0 -55 -32 -58 l-33 -3 -3 -132 -3 -132 -52 -3 -52 -3 -3 -62 -3 -63 -94 0
-95 0 0 -35 0 -35 -55 0 -56 0 7 53 c29 227 195 444 385 502 30 9 59 18 64 20
23 7 25 3 25 -49z m175 40 c77 -20 153 -63 213 -120 111 -104 181 -240 201
-393 l8 -53 -54 0 -53 0 0 35 0 34 -87 3 -88 3 -3 63 -3 62 -54 0 -54 0 -3
133 -3 132 -42 3 -43 3 0 55 c0 30 3 54 8 54 4 0 30 -6 57 -14z m-75 -291 l0
-65 -40 0 -40 0 0 65 0 65 40 0 40 0 0 -65z m-280 -330 l0 -55 -35 0 -35 0 0
55 0 55 35 0 35 0 0 -55z m570 -5 l0 -50 -35 0 -35 0 0 50 0 50 35 0 35 0 0
-50z m-758 -87 l3 -38 93 0 92 0 0 -87 0 -88 55 0 54 0 3 -117 3 -118 33 -3
c31 -3 32 -5 32 -48 0 -24 -3 -44 -7 -44 -26 0 -137 42 -179 66 -142 83 -265
280 -288 462 l-7 52 55 0 55 0 3 -37z m957 -23 c-33 -238 -197 -442 -408 -506
-68 -21 -71 -19 -71 30 l0 45 43 3 42 3 3 118 3 117 54 0 55 0 0 85 0 84 88 3
87 3 3 38 3 37 53 0 53 0 -8 -60z m-479 -260 l0 -60 -45 0 -45 0 0 60 0 60 45
0 45 0 0 -60z"/>
</g>
</svg>
