<?xml version="1.0" standalone="no"?>
<!DOCTYPE svg PUBLIC "-//W3C//DTD SVG 20010904//EN"
 "http://www.w3.org/TR/2001/REC-SVG-20010904/DTD/svg10.dtd">
<svg version="1.0" xmlns="http://www.w3.org/2000/svg"
 width="150.000000pt" height="158.000000pt" viewBox="0 0 150.000000 158.000000"
 preserveAspectRatio="xMidYMid meet">

<g transform="translate(0.000000,158.000000) scale(0.100000,-0.100000)"
fill="#000000" stroke="none">
<path d="M673 1560 c-37 -22 -69 -80 -79 -137 -9 -60 34 -177 77 -207 l21 -14
-27 -18 c-32 -21 -119 -29 -209 -19 -53 5 -71 12 -105 41 l-40 35 19 32 c20
32 26 81 14 111 -5 12 -21 16 -70 16 l-64 0 0 41 c0 41 0 41 -23 25 -55 -40
-68 -42 -91 -15 -31 36 -61 23 -77 -33 -14 -54 1 -183 29 -249 25 -58 55 -81
148 -116 61 -23 75 -32 85 -58 7 -16 15 -109 19 -205 5 -96 13 -191 19 -211 6
-19 27 -54 47 -77 25 -29 31 -43 22 -46 -7 -3 -65 -6 -129 -8 -138 -4 -159
-14 -159 -82 0 -68 -28 -176 -65 -254 -19 -41 -35 -76 -35 -78 0 -10 42 -3 74
13 34 16 35 15 66 -10 38 -32 36 -32 79 -6 l33 20 23 -21 c48 -45 61 6 19 72
-63 100 -63 137 -2 157 65 20 245 42 323 39 l80 -3 3 -50 c2 -42 -4 -64 -43
-143 -25 -51 -45 -95 -45 -98 0 -12 25 2 106 60 117 84 141 109 175 183 37 82
49 88 163 74 51 -7 110 -9 132 -5 37 5 42 3 66 -28 14 -18 32 -47 41 -64 15
-30 15 -32 -5 -50 -30 -27 -78 -104 -78 -126 0 -24 21 -23 53 2 34 27 37 26
37 -15 0 -43 15 -45 75 -9 l44 26 36 -28 c20 -15 37 -25 39 -23 3 2 1 91 -4
197 -9 225 -12 232 -94 256 -30 9 -63 16 -74 16 -47 0 -51 8 -31 61 46 121 44
273 -7 393 -42 98 -41 100 45 108 40 4 79 12 86 18 7 6 14 57 19 136 7 129 20
248 32 278 10 27 -14 18 -59 -23 -48 -44 -83 -64 -96 -56 -5 3 -15 21 -21 41
-13 40 -33 41 -38 1 -5 -39 -22 -48 -66 -36 -21 6 -40 8 -44 5 -3 -3 6 -30 21
-58 37 -74 41 -101 23 -136 -29 -55 -159 -83 -249 -53 -54 18 -62 39 -47 126
27 158 1 247 -84 286 -53 24 -93 24 -133 -1z m262 -533 c29 -44 48 -447 24
-515 -9 -27 -35 -49 -46 -39 -6 7 -26 546 -20 561 9 22 24 20 42 -7z m-215
-21 c22 -67 43 -516 25 -516 -4 0 -19 7 -34 15 -25 12 -30 24 -40 77 -6 35
-14 141 -17 236 -7 171 -7 173 16 197 31 33 36 32 50 -9z m435 -143 c42 -84
47 -174 11 -246 -14 -29 -38 -65 -53 -79 l-28 -27 -1 197 c0 113 -6 214 -12
236 l-11 39 32 -31 c18 -18 46 -58 62 -89z m-661 8 c-8 -85 10 -214 42 -298
l23 -64 -28 20 c-72 52 -106 130 -99 231 5 60 46 180 63 180 3 0 2 -31 -1 -69z"/>
</g>
</svg>
