<?xml version="1.0" standalone="no"?>
<!DOCTYPE svg PUBLIC "-//W3C//DTD SVG 20010904//EN"
 "http://www.w3.org/TR/2001/REC-SVG-20010904/DTD/svg10.dtd">
<svg version="1.0" xmlns="http://www.w3.org/2000/svg"
 width="144.000000pt" height="159.000000pt" viewBox="0 0 144.000000 159.000000"
 preserveAspectRatio="xMidYMid meet">

<g transform="translate(0.000000,159.000000) scale(0.100000,-0.100000)"
fill="#000000" stroke="none">
<path d="M552 1575 c-122 -27 -234 -91 -283 -162 -80 -116 -23 -257 133 -331
57 -27 57 -27 57 -73 l1 -46 -189 -9 c-182 -9 -190 -10 -216 -34 -62 -57 -63
-67 -39 -540 16 -299 19 -327 37 -347 20 -23 61 -30 83 -15 34 22 38 56 44
373 5 332 8 349 51 349 38 0 41 -30 38 -361 -4 -310 -3 -318 17 -346 24 -32
51 -40 77 -21 28 21 37 117 37 424 0 259 1 282 18 297 25 22 48 21 72 -3 19
-19 20 -33 20 -350 l0 -331 25 -24 c29 -30 58 -32 85 -5 19 19 20 33 20 345 0
226 4 332 12 350 16 36 56 44 80 15 15 -18 18 -40 18 -119 0 -53 5 -197 10
-321 9 -192 13 -229 29 -250 22 -31 66 -38 92 -14 18 16 19 35 19 354 0 314 1
338 18 353 26 24 68 21 86 -5 14 -19 16 -68 16 -334 0 -321 5 -365 40 -384 29
-16 49 -12 75 15 23 22 25 31 25 122 0 104 -16 449 -25 521 -6 53 18 82 68 82
61 0 63 -8 77 -300 16 -345 21 -388 56 -418 36 -31 65 -25 86 18 16 32 18 74
18 427 l0 391 -25 31 c-46 54 -120 73 -280 75 l-140 1 -3 37 c-3 36 -1 38 50
64 120 60 178 135 178 230 0 119 -125 224 -318 268 -86 20 -262 20 -350 1z
m-10 -164 c-26 -46 -9 -80 57 -113 125 -64 321 -14 321 80 0 16 -7 35 -15 42
-26 22 -9 22 32 2 61 -32 95 -74 95 -117 0 -50 -27 -84 -93 -118 -133 -68
-337 -59 -450 19 -88 61 -75 159 30 214 20 10 37 19 38 20 1 0 -5 -13 -15 -29z"/>
</g>
</svg>
