<?xml version="1.0" standalone="no"?>
<!DOCTYPE svg PUBLIC "-//W3C//DTD SVG 20010904//EN"
 "http://www.w3.org/TR/2001/REC-SVG-20010904/DTD/svg10.dtd">
<svg version="1.0" xmlns="http://www.w3.org/2000/svg"
 width="149.000000pt" height="162.000000pt" viewBox="0 0 149.000000 162.000000"
 preserveAspectRatio="xMidYMid meet">

<g transform="translate(0.000000,162.000000) scale(0.100000,-0.100000)"
fill="#000000" stroke="none">
<path d="M967 1600 c-83 -26 -137 -70 -200 -163 -12 -17 -15 -15 -45 26 -68
96 -181 143 -321 134 -241 -14 -388 -168 -368 -383 8 -85 41 -165 87 -213 63
-64 92 -76 195 -76 76 0 99 4 145 26 117 55 182 144 181 249 0 167 -148 291
-294 246 -99 -30 -156 -103 -157 -199 0 -86 42 -145 121 -169 52 -15 112 3
156 47 27 27 33 41 33 75 0 34 -6 48 -34 76 -66 66 -156 29 -116 -47 12 -21
40 -25 57 -8 18 18 38 -27 22 -47 -24 -29 -48 -36 -84 -24 -63 21 -81 77 -49
146 42 88 181 84 242 -6 20 -29 23 -45 20 -96 -7 -113 -73 -166 -213 -172 -71
-3 -84 -1 -115 20 -98 67 -130 233 -63 336 70 108 268 156 389 94 48 -24 100
-80 122 -131 24 -55 21 -182 -7 -253 -27 -70 -93 -145 -158 -180 -79 -43 -138
-45 -411 -12 l-53 7 3 -88 3 -87 167 1 c185 2 221 -4 291 -49 93 -59 149 -169
151 -295 1 -128 -48 -213 -149 -261 -136 -65 -351 11 -401 141 -35 94 1 237
74 293 32 24 44 27 116 27 59 0 91 -5 116 -19 77 -41 112 -93 112 -167 0 -83
-52 -146 -129 -156 -90 -12 -153 39 -153 124 0 34 5 46 31 67 37 32 81 34 110
5 30 -30 21 -55 -20 -51 -42 3 -61 -12 -61 -49 0 -81 131 -51 160 36 35 105
-131 200 -231 132 -56 -37 -79 -81 -79 -149 0 -125 87 -208 217 -208 113 0
208 84 233 206 33 160 -114 318 -309 332 -54 3 -77 0 -119 -18 -102 -44 -172
-157 -180 -291 -6 -107 15 -173 77 -241 88 -96 208 -143 345 -136 137 7 242
74 299 188 l25 49 12 -30 c63 -150 259 -232 443 -184 125 32 211 98 256 194
21 46 25 71 26 141 0 148 -55 254 -160 305 -50 25 -63 27 -138 23 -105 -6
-178 -39 -241 -109 -55 -62 -69 -102 -64 -189 4 -81 40 -146 106 -194 37 -26
54 -31 115 -34 67 -3 76 -1 126 30 67 41 101 98 101 171 0 158 -171 235 -277
124 -49 -51 -48 -105 3 -153 39 -38 82 -45 108 -18 19 18 20 38 5 66 -9 16
-17 19 -44 14 -46 -9 -57 20 -20 51 32 28 51 29 92 3 87 -52 36 -188 -74 -197
-96 -8 -163 56 -163 157 0 98 62 162 174 180 82 13 144 -3 188 -49 92 -98 88
-265 -9 -350 -51 -46 -147 -81 -217 -81 -108 0 -203 57 -248 148 -31 64 -31
183 1 264 46 119 159 206 277 216 54 4 183 -7 297 -25 l37 -6 0 108 0 108 -37
-6 c-115 -19 -243 -29 -298 -25 -117 10 -230 98 -276 216 -28 71 -31 198 -7
253 58 132 199 188 355 141 97 -30 157 -83 179 -159 34 -118 -16 -259 -106
-295 -14 -5 -55 -10 -92 -10 -133 1 -209 63 -216 176 -3 51 0 67 20 96 61 91
200 93 243 4 29 -61 16 -113 -35 -139 -39 -20 -54 -19 -85 8 -37 31 -26 60 20
51 27 -5 35 -2 44 14 15 28 14 48 -5 66 -26 27 -69 20 -108 -18 -51 -48 -52
-102 -3 -153 106 -111 277 -34 277 124 0 73 -34 130 -101 171 -50 31 -59 33
-126 30 -61 -3 -78 -8 -115 -34 -66 -48 -102 -113 -106 -194 -5 -87 9 -127 63
-188 61 -68 145 -105 248 -110 68 -4 84 -1 132 23 181 88 220 389 71 538 -100
100 -287 143 -429 97z m-127 -700 c67 -34 90 -112 49 -164 -62 -78 -193 -84
-266 -11 -58 58 -39 139 42 180 43 21 128 19 175 -5z"/>
</g>
</svg>
