<?xml version="1.0" standalone="no"?>
<!DOCTYPE svg PUBLIC "-//W3C//DTD SVG 20010904//EN"
 "http://www.w3.org/TR/2001/REC-SVG-20010904/DTD/svg10.dtd">
<svg version="1.0" xmlns="http://www.w3.org/2000/svg"
 width="60.000000pt" height="60.000000pt" viewBox="0 0 60.000000 60.000000"
 preserveAspectRatio="xMidYMid meet">

<g transform="translate(0.000000,60.000000) scale(0.100000,-0.100000)"
fill="#000000" stroke="none">
<path d="M263 577 c-17 -13 -74 -68 -126 -122 -53 -55 -104 -109 -115 -120
-20 -19 -20 -19 6 -52 48 -60 219 -233 230 -233 6 0 20 -12 31 -26 l20 -26 38
28 c53 39 213 197 213 210 0 6 9 19 20 29 11 10 20 24 20 31 0 17 -288 306
-303 304 -1 -1 -16 -11 -34 -23z m70 -86 c10 -17 27 -33 38 -36 20 -7 20 -8
-8 -34 -16 -15 -34 -35 -40 -45 -9 -17 -14 -14 -54 25 l-44 44 40 37 c22 21
42 38 45 38 3 0 14 -13 23 -29z m-138 -121 c8 -16 29 -37 46 -46 l31 -16 -29
-18 c-16 -10 -39 -30 -50 -46 -20 -27 -21 -27 -27 -6 -4 12 -23 33 -43 46
l-35 24 29 16 c17 8 36 29 43 46 7 16 14 30 16 30 2 0 10 -13 19 -30z m308
-49 c34 -18 34 -22 -3 -43 -17 -9 -35 -28 -41 -42 l-11 -24 -44 46 c-24 25
-43 46 -41 47 1 1 12 8 24 14 13 6 30 26 39 42 l16 31 17 -28 c10 -16 30 -35
44 -43z m-165 -90 c7 -17 26 -36 43 -43 16 -7 29 -15 29 -18 0 -3 -14 -13 -30
-22 -16 -9 -38 -31 -49 -49 l-19 -31 -16 31 c-9 17 -20 31 -24 31 -4 0 -18 9
-31 19 l-24 19 31 16 c17 9 39 29 49 46 9 16 20 30 23 30 3 0 11 -13 18 -29z"/>
</g>
</svg>
