<?xml version="1.0" standalone="no"?>
<!DOCTYPE svg PUBLIC "-//W3C//DTD SVG 20010904//EN"
 "http://www.w3.org/TR/2001/REC-SVG-20010904/DTD/svg10.dtd">
<svg version="1.0" xmlns="http://www.w3.org/2000/svg"
 width="150.000000pt" height="77.000000pt" viewBox="0 0 150.000000 77.000000"
 preserveAspectRatio="xMidYMid meet">

<g transform="translate(0.000000,77.000000) scale(0.100000,-0.100000)"
fill="#000000" stroke="none">
<path d="M445 705 c-50 -36 -170 -122 -268 -192 -97 -70 -177 -130 -176 -133
0 -6 515 -373 530 -379 6 -2 55 27 110 63 l99 66 90 -65 c49 -36 94 -65 99
-65 4 0 64 37 132 82 68 44 195 128 282 185 87 57 155 108 152 113 -5 8 -468
329 -538 373 l-29 18 -83 -61 c-46 -33 -90 -63 -98 -66 -9 -3 -54 22 -110 60
-52 36 -96 66 -98 66 -2 0 -45 -29 -94 -65z m126 -142 c16 -10 29 -20 29 -24
0 -3 -47 -40 -105 -82 l-106 -76 101 -71 c55 -40 102 -76 105 -80 3 -4 -9 -17
-26 -28 l-31 -19 -132 94 c-72 52 -132 98 -134 103 -2 7 254 199 266 200 2 0
17 -8 33 -17z m520 -89 l139 -95 -148 -98 c-129 -87 -149 -97 -166 -87 -11 7
-21 17 -23 23 -2 5 46 43 107 83 89 59 108 76 98 85 -7 7 -58 43 -113 80 -55
37 -102 69 -104 71 -8 7 45 43 57 39 8 -3 76 -48 153 -101z m-302 -61 c22 -16
40 -31 41 -34 0 -8 -81 -60 -89 -57 -20 9 -81 54 -81 59 0 7 71 57 82 58 4 1
26 -11 47 -26z"/>
</g>
</svg>
