<?xml version="1.0" standalone="no"?>
<!DOCTYPE svg PUBLIC "-//W3C//DTD SVG 20010904//EN"
 "http://www.w3.org/TR/2001/REC-SVG-20010904/DTD/svg10.dtd">
<svg version="1.0" xmlns="http://www.w3.org/2000/svg"
 width="150.000000pt" height="196.000000pt" viewBox="0 0 150.000000 196.000000"
 preserveAspectRatio="xMidYMid meet">

<g transform="translate(0.000000,196.000000) scale(0.100000,-0.100000)"
fill="#000000" stroke="none">
<path d="M409 1950 c-144 -25 -296 -239 -359 -507 -50 -212 -68 -627 -35 -817
43 -247 121 -425 235 -536 73 -71 119 -90 219 -90 45 0 92 5 104 11 12 6 49
39 82 74 33 35 70 66 82 70 17 5 37 -8 95 -61 101 -92 122 -101 200 -86 257
48 419 279 458 653 15 152 13 486 -5 604 -30 195 -91 362 -188 507 -93 140
-155 187 -248 188 -76 0 -132 -26 -208 -97 l-71 -65 -82 55 c-46 30 -97 62
-113 70 -42 21 -123 34 -166 27z m155 -228 c65 -59 102 -268 57 -323 l-18 -23
-28 20 c-15 10 -34 23 -41 29 -8 6 -23 6 -41 -1 -35 -12 -57 -71 -49 -131 7
-52 22 -78 54 -93 33 -15 62 -4 96 37 34 41 73 42 93 3 29 -58 6 -229 -33
-244 -17 -6 -59 8 -69 24 -14 23 -89 70 -110 70 -54 0 -84 -93 -61 -191 16
-72 38 -99 80 -99 41 0 72 22 96 71 44 86 103 11 85 -108 -8 -54 -30 -103 -46
-103 -6 0 -29 16 -52 35 -24 21 -51 35 -67 35 -64 0 -116 -87 -90 -150 14 -33
73 -90 93 -90 7 0 28 11 47 25 69 51 96 23 87 -91 -4 -48 -15 -93 -33 -134
-44 -99 -87 -114 -154 -54 -113 102 -170 321 -170 650 0 366 82 774 171 848
25 21 34 24 57 15 15 -6 35 -18 46 -27z m503 -20 c146 -192 189 -1023 71
-1361 -13 -36 -38 -80 -55 -99 -30 -32 -37 -34 -75 -29 -56 8 -118 53 -145
107 -37 72 -27 165 19 194 13 8 25 6 47 -7 36 -21 70 -15 101 18 49 52 46 174
-5 197 -29 13 -80 -5 -96 -33 -6 -13 -21 -19 -43 -19 -61 0 -107 82 -92 164 7
38 27 59 71 76 47 18 74 5 95 -45 21 -48 34 -54 79 -31 55 29 69 129 28 207
-31 58 -52 60 -107 9 -109 -98 -190 -60 -190 90 0 92 32 140 94 140 17 0 30
-9 43 -30 37 -63 142 -75 170 -19 28 54 -1 149 -56 182 -39 23 -57 21 -83 -8
-27 -31 -52 -32 -72 -3 -41 58 7 252 80 325 38 37 80 29 121 -25z"/>
</g>
</svg>
