<?xml version="1.0" standalone="no"?>
<!DOCTYPE svg PUBLIC "-//W3C//DTD SVG 20010904//EN"
 "http://www.w3.org/TR/2001/REC-SVG-20010904/DTD/svg10.dtd">
<svg version="1.0" xmlns="http://www.w3.org/2000/svg"
 width="250.000000pt" height="230.000000pt" viewBox="0 0 250.000000 230.000000"
 preserveAspectRatio="xMidYMid meet">

<g transform="translate(0.000000,230.000000) scale(0.100000,-0.100000)"
fill="#000000" stroke="none">
<path d="M22 2277 c-28 -29 -28 -70 -2 -213 68 -373 208 -683 387 -855 37 -36
77 -71 88 -77 19 -12 19 -13 -10 -34 -58 -42 -164 -156 -208 -224 -124 -192
-210 -454 -224 -680 -7 -113 -2 -145 27 -174 19 -19 35 -20 392 -20 l371 0
199 160 c109 88 204 163 211 166 8 3 87 -61 191 -156 l178 -160 414 0 415 0
26 26 c24 25 25 30 20 100 -21 240 -137 587 -254 760 -58 85 -124 156 -187
199 l-55 37 47 38 c208 164 395 570 418 907 8 104 -10 173 -49 195 -15 8 -116
13 -328 16 l-306 4 -39 -33 c-37 -33 -401 -357 -455 -406 l-26 -24 -233 236
-234 235 -376 0 -377 0 -21 -23z m955 -387 c275 -280 271 -278 340 -217 21 18
144 128 275 245 l236 212 80 0 c43 0 154 -3 246 -7 l168 -6 -7 -56 c-25 -207
-103 -429 -210 -596 -72 -114 -197 -223 -296 -261 -55 -21 -89 -57 -89 -93 0
-46 28 -70 99 -87 93 -21 154 -59 231 -141 112 -120 207 -330 264 -585 14 -64
26 -118 26 -122 0 -3 -147 -6 -328 -6 l-327 0 -195 175 c-151 136 -200 175
-221 175 -21 0 -83 -45 -250 -180 l-222 -180 -299 0 c-277 0 -298 1 -298 18 0
88 60 329 111 444 91 207 237 363 390 413 56 19 79 45 79 90 0 44 -17 62 -78
84 -155 57 -266 170 -369 376 -63 124 -123 307 -153 460 -6 33 -14 68 -16 78
-5 16 13 17 281 17 l286 0 246 -250z"/>
<path d="M328 2051 c-62 -50 -46 -127 84 -391 75 -155 85 -170 162 -246 44
-44 122 -108 172 -141 153 -101 260 -126 544 -127 l195 -1 103 36 c256 91 446
267 549 512 39 93 68 230 59 279 -12 66 -30 73 -198 76 -83 2 -161 1 -173 -2
-12 -3 -82 -65 -156 -139 -105 -104 -285 -259 -405 -348 -15 -12 -285 222
-430 374 l-121 126 -179 7 c-174 6 -180 6 -206 -15z m447 -289 c163 -161 356
-330 421 -368 35 -20 46 -23 69 -14 55 21 408 311 526 432 l75 78 87 0 87 0
-6 -27 c-49 -204 -172 -372 -346 -471 -145 -82 -166 -87 -398 -87 -272 1 -344
20 -501 136 -131 96 -178 162 -285 397 l-33 72 77 0 77 0 150 -148z"/>
<path d="M1113 1100 c-234 -33 -437 -140 -571 -300 -95 -115 -232 -427 -232
-530 0 -38 5 -54 23 -71 22 -21 26 -21 227 -14 112 3 210 10 217 14 7 4 35 33
61 64 75 88 395 367 421 367 12 0 150 -97 241 -170 47 -37 118 -102 159 -144
41 -42 82 -81 92 -87 10 -5 108 -10 217 -12 225 -2 232 0 252 72 59 220 -341
706 -652 791 -67 19 -113 24 -238 26 -85 1 -183 -1 -217 -6z m422 -174 c181
-65 465 -357 520 -535 l7 -24 -115 5 -116 5 -77 77 c-114 114 -442 356 -482
356 -11 0 -43 -16 -72 -35 -89 -60 -311 -246 -408 -342 l-93 -93 -110 0 c-129
0 -123 -17 -53 150 55 131 110 217 177 273 180 152 299 188 597 183 138 -2
186 -6 225 -20z"/>
</g>
</svg>
