<?xml version="1.0" standalone="no"?>
<!DOCTYPE svg PUBLIC "-//W3C//DTD SVG 20010904//EN"
 "http://www.w3.org/TR/2001/REC-SVG-20010904/DTD/svg10.dtd">
<svg version="1.0" xmlns="http://www.w3.org/2000/svg"
 width="150.000000pt" height="147.000000pt" viewBox="0 0 150.000000 147.000000"
 preserveAspectRatio="xMidYMid meet">

<g transform="translate(0.000000,147.000000) scale(0.100000,-0.100000)"
fill="#000000" stroke="none">
<path d="M190 1450 c-23 -23 -24 -35 -10 -77 8 -21 32 -44 85 -77 74 -47 91
-70 83 -113 -7 -38 -53 -27 -146 36 -141 96 -202 115 -202 63 0 -29 15 -55 63
-111 78 -91 110 -233 111 -487 l1 -181 -72 -144 c-78 -155 -94 -211 -69 -244
14 -20 15 -20 51 -1 20 11 59 46 87 78 75 87 141 114 154 64 9 -37 -1 -57 -66
-137 -71 -86 -78 -119 -26 -119 18 0 67 16 108 35 130 60 239 86 373 92 146 6
243 -13 417 -81 154 -60 238 -62 238 -5 0 9 -31 39 -69 67 -78 57 -99 84 -108
136 -5 34 -4 36 22 36 19 0 50 -18 94 -53 36 -30 77 -61 91 -70 31 -21 74 -22
91 -1 14 17 15 15 -45 105 -49 73 -84 152 -107 240 -19 72 -21 101 -16 214 7
169 39 279 132 466 57 112 58 152 7 157 -30 3 -41 -4 -119 -87 -83 -89 -107
-103 -131 -79 -25 25 -12 60 49 128 46 52 61 76 61 100 2 63 -36 65 -156 5
-116 -57 -224 -85 -356 -92 -166 -9 -351 36 -504 122 -73 40 -88 43 -116 15z
m585 -385 c72 0 153 4 182 8 l52 8 -34 -52 c-51 -75 -44 -109 23 -109 25 0 42
8 65 33 29 31 30 31 24 7 -31 -130 -32 -349 -2 -444 8 -27 13 -51 10 -54 -2
-3 -18 1 -34 7 -42 18 -74 10 -89 -21 -10 -22 -10 -33 4 -68 9 -22 15 -43 12
-45 -2 -2 -28 2 -58 11 -93 25 -247 21 -413 -12 l-28 -6 30 54 c36 64 37 72
11 98 -30 30 -63 25 -115 -20 -25 -22 -47 -40 -48 -40 -2 0 0 33 4 73 10 96
10 277 0 407 -5 58 -8 106 -7 107 1 1 22 -11 46 -28 34 -22 54 -29 84 -27 53
4 63 23 44 81 l-15 46 61 -7 c34 -4 120 -7 191 -7z"/>
</g>
</svg>
