<?xml version="1.0" standalone="no"?>
<!DOCTYPE svg PUBLIC "-//W3C//DTD SVG 20010904//EN"
 "http://www.w3.org/TR/2001/REC-SVG-20010904/DTD/svg10.dtd">
<svg version="1.0" xmlns="http://www.w3.org/2000/svg"
 width="144.000000pt" height="146.000000pt" viewBox="0 0 144.000000 146.000000"
 preserveAspectRatio="xMidYMid meet">

<g transform="translate(0.000000,146.000000) scale(0.100000,-0.100000)"
fill="#000000" stroke="none">
<path d="M648 1442 c-63 -38 -73 -129 -22 -183 25 -26 26 -32 25 -130 -1 -108
-8 -129 -46 -129 -43 0 -176 152 -168 193 12 61 -56 137 -122 137 -71 0 -134
-76 -120 -147 9 -50 44 -83 100 -97 42 -11 57 -22 96 -69 93 -115 92 -142 -3
-131 -111 11 -148 23 -174 53 -53 63 -131 65 -183 5 -54 -60 -36 -155 35 -189
43 -20 69 -19 119 6 43 21 44 21 117 4 106 -26 138 -40 138 -64 0 -25 -24 -41
-120 -81 -78 -32 -84 -33 -166 -24 -40 4 -58 2 -78 -12 -75 -49 -73 -169 4
-209 16 -8 48 -15 71 -15 33 0 47 6 75 34 19 19 34 41 34 49 0 20 139 78 194
80 40 2 41 1 40 -28 -1 -17 -21 -70 -44 -118 -35 -71 -49 -91 -74 -101 -108
-45 -115 -181 -12 -227 52 -23 99 -13 138 28 32 35 40 69 27 116 -9 34 -7 45
24 105 53 106 85 151 111 158 14 3 29 3 35 0 22 -14 86 -252 70 -261 -4 -3
-13 -23 -19 -45 -28 -104 82 -186 180 -135 79 41 79 169 0 210 -31 16 -45 52
-70 178 -13 67 -10 82 19 90 41 10 195 -104 205 -154 3 -17 21 -46 40 -65 27
-27 42 -34 72 -34 115 0 172 130 93 210 -30 29 -50 35 -114 31 -28 -1 -61 19
-167 104 -22 18 -48 55 -48 69 0 2 7 12 16 20 12 13 38 16 120 16 100 0 106
-1 146 -30 92 -67 198 -14 198 99 0 100 -138 155 -205 81 -16 -17 -30 -20
-109 -19 -196 1 -210 16 -118 130 86 107 98 116 156 118 10 1 33 16 52 35 28
28 34 42 34 75 0 78 -49 131 -120 131 -69 0 -120 -53 -120 -124 0 -41 -53
-112 -133 -180 -38 -32 -51 -38 -65 -30 -24 16 -30 46 -31 160 -1 87 2 103 18
118 53 48 51 126 -5 175 -41 36 -101 42 -146 13z m121 -607 c30 -15 61 -69 61
-105 0 -34 -29 -87 -58 -106 -31 -20 -97 -23 -130 -5 -32 17 -62 70 -62 109 0
40 22 85 52 106 28 20 100 21 137 1z"/>
</g>
</svg>
