<?xml version="1.0" standalone="no"?>
<!DOCTYPE svg PUBLIC "-//W3C//DTD SVG 20010904//EN"
 "http://www.w3.org/TR/2001/REC-SVG-20010904/DTD/svg10.dtd">
<svg version="1.0" xmlns="http://www.w3.org/2000/svg"
 width="148.000000pt" height="150.000000pt" viewBox="0 0 148.000000 150.000000"
 preserveAspectRatio="xMidYMid meet">

<g transform="translate(0.000000,150.000000) scale(0.100000,-0.100000)"
fill="#000000" stroke="none">
<path d="M686 1405 l-58 -95 16 -100 c22 -140 22 -142 -11 -134 -51 12 -98 42
-115 72 -10 17 -18 33 -18 36 0 3 19 6 43 6 48 0 67 13 67 45 0 72 -159 75
-195 4 -47 -89 25 -202 158 -251 l58 -21 -57 -58 -57 -58 -17 49 c-34 102
-117 180 -189 180 -64 0 -124 -86 -107 -154 8 -31 42 -52 60 -37 7 6 15 8 19
5 3 -3 11 15 19 41 l13 47 27 -22 c29 -22 51 -62 68 -118 9 -33 8 -33 -18 -28
-15 3 -45 8 -67 11 -22 4 -61 11 -86 16 -45 10 -51 8 -143 -38 -111 -54 -112
-46 14 -115 l75 -41 115 16 c63 9 116 15 117 13 5 -4 -36 -107 -49 -124 -16
-21 -47 -45 -70 -54 -16 -7 -18 -2 -16 42 3 57 1 60 -41 65 -40 5 -61 -24 -61
-85 0 -59 17 -91 62 -115 37 -20 38 -20 90 -1 82 28 126 77 163 177 l20 57 64
-57 63 -57 -41 -12 c-83 -26 -132 -103 -118 -189 13 -79 126 -134 170 -83 9
11 17 25 17 31 0 15 -39 49 -55 49 -7 0 -18 7 -25 15 -28 34 36 95 100 95 17
0 20 -6 20 -42 0 -24 -10 -82 -22 -130 -20 -78 -21 -92 -10 -135 7 -26 17 -49
23 -51 5 -2 9 -10 9 -18 0 -8 4 -14 9 -14 5 0 13 -9 16 -20 4 -11 15 -20 27
-20 16 0 19 5 14 22 -31 119 -31 181 -1 212 30 29 65 110 65 147 0 22 2 39 4
39 2 0 25 -9 50 -20 61 -26 63 -54 6 -71 -22 -7 -40 -15 -41 -18 0 -3 -2 -18
-4 -34 -8 -63 80 -68 143 -8 76 70 42 187 -66 227 -26 10 -49 19 -51 20 -2 2
18 28 45 60 l48 56 9 -28 c22 -69 101 -133 164 -134 40 0 90 32 112 70 27 49
26 62 -4 88 -24 21 -27 21 -50 6 -13 -9 -27 -24 -30 -35 -7 -22 -42 -25 -68
-5 -19 14 -37 65 -37 103 0 20 5 23 43 23 23 0 64 -7 91 -15 80 -24 157 -20
216 13 80 44 80 72 -1 54 -89 -21 -135 -16 -197 22 -32 19 -74 37 -94 40 l-38
7 15 37 c25 57 65 73 65 25 1 -38 19 -58 53 -58 37 1 51 26 44 82 -7 63 -52
103 -118 103 -61 0 -99 -31 -136 -111 l-27 -59 -58 57 -58 57 58 27 c149 67
210 214 114 271 -38 23 -93 31 -124 19 -22 -8 -26 -15 -24 -45 3 -45 4 -45 57
-54 l44 -8 -40 -40 c-36 -36 -128 -84 -140 -72 -4 4 0 31 25 173 l13 70 -52
93 c-29 50 -53 92 -55 92 -1 0 -28 -43 -60 -95z m150 -527 c27 -26 31 -48 10
-48 -8 0 -21 -3 -30 -6 -13 -5 -16 2 -16 35 0 23 3 41 6 41 3 0 17 -10 30 -22z
m-139 -62 c-7 -17 -87 -24 -87 -8 0 10 42 48 61 54 17 6 34 -25 26 -46z m217
-110 c-3 -8 -14 -16 -24 -19 -11 -3 -28 -19 -38 -36 l-19 -32 -7 38 c-10 63
-10 63 44 63 38 0 48 -3 44 -14z m-214 -10 c0 -7 2 -35 5 -62 4 -38 3 -44 -5
-26 -5 12 -33 37 -61 54 -42 27 -48 33 -32 39 33 13 93 10 93 -5z"/>
</g>
</svg>
