<?xml version="1.0" standalone="no"?>
<!DOCTYPE svg PUBLIC "-//W3C//DTD SVG 20010904//EN"
 "http://www.w3.org/TR/2001/REC-SVG-20010904/DTD/svg10.dtd">
<svg version="1.0" xmlns="http://www.w3.org/2000/svg"
 width="107.000000pt" height="149.000000pt" viewBox="0 0 107.000000 149.000000"
 preserveAspectRatio="xMidYMid meet">

<g transform="translate(0.000000,149.000000) scale(0.100000,-0.100000)"
fill="#000000" stroke="none">
<path d="M275 1465 c-41 -40 -30 -143 19 -177 5 -3 -8 -13 -29 -22 -47 -20
-144 -96 -145 -114 0 -7 -7 -15 -15 -18 -8 -4 -12 -10 -9 -15 3 -5 1 -9 -3 -9
-9 0 -47 -77 -59 -120 -4 -14 -6 -25 -6 -25 1 0 -5 -22 -13 -49 -30 -98 -13
-450 26 -553 5 -13 8 -27 8 -31 -3 -18 2 -32 11 -32 6 0 7 30 3 79 -5 74 3
154 29 261 13 57 107 250 125 257 7 3 13 10 13 17 0 6 41 50 91 99 78 75 96
87 125 87 87 0 35 -97 -83 -156 -109 -55 -151 -125 -97 -161 32 -21 73 -24
100 -7 37 23 81 24 100 3 17 -19 17 -21 -2 -45 -20 -27 -38 -38 -119 -76 -45
-21 -100 -70 -100 -89 0 -4 -3 -11 -7 -15 -9 -9 -10 -50 -2 -81 9 -32 40 -34
96 -6 28 14 68 28 89 30 34 5 39 3 39 -14 0 -26 -50 -94 -86 -117 -44 -29 -92
-84 -112 -130 -15 -35 -17 -64 -13 -143 1 -6 14 -24 30 -40 32 -32 79 -40 125
-22 33 14 76 51 76 66 0 18 36 43 62 43 28 0 38 -16 38 -59 0 -16 9 -40 21
-55 18 -23 28 -26 79 -26 52 0 61 3 80 28 19 23 22 35 17 92 -5 65 -5 66 27
88 39 27 132 117 163 158 28 37 71 125 89 184 18 59 18 295 0 370 -17 72 -53
177 -72 212 -8 15 -14 29 -13 30 1 2 -10 29 -26 61 -39 84 -51 64 -35 -59 16
-131 17 -456 0 -514 -7 -25 -13 -49 -14 -55 -3 -22 -30 -81 -44 -97 -8 -10
-12 -18 -7 -18 4 0 -16 -24 -45 -52 -29 -29 -54 -51 -55 -48 -2 3 -15 -5 -28
-18 -32 -30 -92 -28 -93 3 -2 41 39 88 111 131 82 47 106 141 41 158 -11 3
-44 -2 -72 -10 -47 -13 -56 -13 -88 0 -29 12 -36 20 -36 42 0 25 38 72 61 75
18 3 25 5 59 23 45 24 98 80 106 112 3 13 3 36 0 50 -6 24 -10 26 -59 22 -29
-3 -73 -11 -99 -18 -68 -20 -77 -7 -43 64 15 31 32 62 38 69 7 6 25 29 41 50
15 21 40 51 55 67 46 51 52 60 68 105 14 42 14 47 -6 89 -29 58 -83 85 -140
68 -43 -13 -91 -47 -91 -65 0 -27 -48 -82 -72 -84 -21 -2 -27 4 -36 36 -7 21
-12 48 -12 61 0 12 -8 35 -17 51 -16 27 -22 29 -76 29 -48 0 -62 -4 -82 -25z"/>
</g>
</svg>
