<?xml version="1.0" standalone="no"?>
<!DOCTYPE svg PUBLIC "-//W3C//DTD SVG 20010904//EN"
 "http://www.w3.org/TR/2001/REC-SVG-20010904/DTD/svg10.dtd">
<svg version="1.0" xmlns="http://www.w3.org/2000/svg"
 width="150.000000pt" height="150.000000pt" viewBox="0 0 150.000000 150.000000"
 preserveAspectRatio="xMidYMid meet">

<g transform="translate(0.000000,150.000000) scale(0.100000,-0.100000)"
fill="#000000" stroke="none">
<path d="M220 1400 l0 -100 215 0 215 0 0 -140 0 -140 -325 0 -325 0 0 -345 0
-345 105 0 105 0 0 256 0 255 53 -3 52 -3 3 -323 2 -322 -95 0 -95 0 0 -95 0
-95 625 0 625 0 0 95 0 95 -115 0 -115 0 0 325 0 325 65 0 65 0 0 -250 0 -250
110 0 110 0 0 340 0 340 -325 0 -325 0 0 135 0 135 208 2 207 3 3 103 3 102
-526 0 -525 0 0 -100z m430 -815 l0 -255 100 0 100 0 0 255 0 255 60 0 60 0 0
-325 0 -325 -225 0 -225 0 0 325 0 325 65 0 65 0 0 -255z"/>
</g>
</svg>
