<?xml version="1.0" standalone="no"?>
<!DOCTYPE svg PUBLIC "-//W3C//DTD SVG 20010904//EN"
 "http://www.w3.org/TR/2001/REC-SVG-20010904/DTD/svg10.dtd">
<svg version="1.0" xmlns="http://www.w3.org/2000/svg"
 width="150.000000pt" height="188.000000pt" viewBox="0 0 150.000000 188.000000"
 preserveAspectRatio="xMidYMid meet">

<g transform="translate(0.000000,188.000000) scale(0.100000,-0.100000)"
fill="#000000" stroke="none">
<path d="M659 1813 c-46 -91 -64 -97 -155 -52 -61 30 -78 34 -149 34 -69 0
-89 -4 -148 -32 -93 -44 -138 -82 -172 -145 -25 -46 -29 -65 -33 -159 -5 -127
11 -221 69 -393 l40 -119 -24 -56 c-59 -133 -87 -248 -87 -361 0 -73 4 -93 29
-145 38 -82 109 -172 169 -218 121 -92 228 -87 394 15 l37 23 25 -25 c14 -14
43 -60 64 -104 22 -43 42 -74 45 -70 2 5 12 34 21 64 24 83 57 134 88 138 16
2 62 -16 124 -48 94 -50 101 -52 164 -48 123 7 222 81 295 219 35 66 39 83 43
162 7 135 -33 251 -136 396 -45 62 -45 64 -28 90 37 58 88 165 112 238 34 101
38 249 10 333 -35 102 -113 202 -191 243 -68 36 -174 30 -317 -17 -136 -46
-138 -45 -208 49 -22 30 -42 55 -44 55 -1 0 -18 -30 -37 -67z m-268 -221 c106
-68 153 -169 194 -417 22 -130 30 -354 16 -460 -27 -220 -95 -366 -194 -416
-52 -27 -96 -19 -147 28 -74 66 -83 91 -77 206 5 99 29 207 46 207 5 0 20 -38
35 -83 27 -89 57 -137 84 -137 9 0 31 9 49 20 68 41 67 145 -2 303 -20 45 -38
87 -40 92 -3 6 14 24 36 40 54 40 89 100 89 154 0 92 -60 201 -110 201 -11 0
-42 -22 -70 -50 -28 -27 -57 -50 -64 -50 -106 0 -101 245 8 368 29 32 90 30
147 -6z m792 -23 c77 -51 156 -176 157 -247 0 -56 -74 -107 -121 -82 -11 6
-34 33 -50 61 -49 79 -78 82 -137 15 -26 -30 -32 -45 -32 -82 0 -57 46 -154
108 -224 l46 -53 -38 -30 c-86 -69 -99 -162 -38 -277 43 -83 84 -117 106 -88
7 10 26 58 41 108 31 94 38 101 80 74 49 -32 60 -138 30 -272 -14 -62 -21 -75
-45 -87 -74 -38 -199 -1 -265 79 -42 51 -85 178 -121 356 -21 102 -26 153 -26
275 0 227 38 352 138 453 64 64 97 68 167 21z m-415 -301 c21 -121 23 -152 23
-392 0 -261 -14 -416 -36 -395 -11 12 -35 200 -45 355 -13 231 9 518 39 499 5
-2 13 -33 19 -67z"/>
</g>
</svg>
