<?xml version="1.0" standalone="no"?>
<!DOCTYPE svg PUBLIC "-//W3C//DTD SVG 20010904//EN"
 "http://www.w3.org/TR/2001/REC-SVG-20010904/DTD/svg10.dtd">
<svg version="1.0" xmlns="http://www.w3.org/2000/svg"
 width="150.000000pt" height="149.000000pt" viewBox="0 0 150.000000 149.000000"
 preserveAspectRatio="xMidYMid meet">

<g transform="translate(0.000000,149.000000) scale(0.100000,-0.100000)"
fill="#000000" stroke="none">
<path d="M1326 1474 c-3 -9 -6 -27 -6 -40 0 -21 -4 -24 -38 -24 -33 0 -39 4
-49 30 -18 48 -73 35 -73 -18 0 -21 -4 -23 -37 -20 -33 3 -38 7 -41 30 -3 28
-22 41 -46 32 -8 -3 -16 -18 -18 -32 -3 -26 -6 -27 -65 -30 l-63 -3 0 29 c0
16 -7 35 -16 43 -23 19 -49 -1 -49 -40 0 -27 -3 -31 -28 -31 -23 0 -29 5 -33
30 -9 40 -27 54 -53 40 -14 -7 -21 -21 -21 -40 0 -40 -37 -43 -42 -4 -6 56
-68 53 -68 -2 0 -20 -5 -24 -30 -24 -25 0 -30 4 -30 25 0 47 -61 44 -68 -4 -5
-31 -63 -30 -77 2 -7 14 -19 22 -35 22 -16 0 -28 -8 -35 -22 -14 -32 -53 -30
-65 3 -13 34 -52 30 -60 -6 -8 -35 -34 -32 -40 5 -4 24 -10 30 -30 30 -20 0
-26 -6 -30 -30 -4 -23 -11 -31 -30 -33 -27 -4 -50 -19 -50 -33 0 -16 32 -39
56 -39 20 0 24 -5 24 -33 0 -27 -5 -35 -30 -44 -45 -17 -36 -73 12 -73 14 0
18 -8 18 -35 0 -22 -5 -35 -13 -35 -7 0 -21 -6 -31 -13 -26 -19 -13 -57 20
-57 16 0 24 -6 24 -17 0 -10 3 -35 6 -55 6 -36 6 -36 -37 -45 -38 -7 -44 -12
-44 -33 0 -22 5 -25 43 -28 42 -3 42 -3 42 -43 0 -37 -2 -39 -29 -39 -28 0
-61 -22 -61 -40 0 -17 44 -39 67 -34 18 5 23 2 23 -14 0 -16 -7 -21 -31 -24
-63 -6 -61 -68 2 -68 26 0 29 -4 29 -30 0 -25 -4 -30 -24 -30 -23 0 -56 -23
-56 -39 0 -15 25 -31 51 -31 22 0 28 -6 33 -31 9 -48 8 -49 -28 -49 -26 0 -36
-5 -41 -20 -9 -28 11 -50 46 -50 25 0 29 -4 29 -29 0 -26 -4 -30 -31 -33 -63
-6 -61 -68 2 -68 49 0 36 -28 -13 -32 -37 -3 -44 -7 -46 -27 -4 -28 12 -41 55
-41 27 0 32 -4 35 -26 6 -56 68 -53 68 2 0 20 5 24 29 24 26 0 30 -4 33 -31 6
-63 68 -61 68 2 0 25 4 29 29 29 27 0 30 -3 33 -37 3 -35 6 -38 33 -38 27 0
30 3 33 37 3 32 7 38 27 38 18 0 24 -6 27 -26 7 -56 68 -53 68 3 0 22 3 24 42
21 36 -3 43 -7 48 -28 10 -44 73 -30 67 15 -1 6 12 11 30 13 26 3 32 -1 35
-19 4 -31 32 -47 52 -30 9 8 16 22 16 32 0 16 8 19 44 19 36 0 47 -5 60 -25
20 -30 41 -32 58 -5 18 29 66 27 70 -2 4 -32 49 -32 63 0 13 30 85 33 85 3 0
-10 6 -24 14 -30 20 -17 56 3 56 29 0 17 7 20 44 20 30 0 46 -5 50 -15 8 -22
28 -18 64 11 36 31 41 60 12 69 -28 9 -29 65 0 65 29 0 44 34 24 54 -8 9 -24
16 -35 16 -13 0 -19 7 -19 24 0 18 8 25 32 32 53 15 46 74 -8 74 -19 0 -24 5
-24 25 0 18 5 25 19 25 50 0 50 58 0 70 -19 5 -25 13 -27 42 -3 32 0 36 26 41
53 11 49 67 -4 67 -21 0 -24 5 -24 35 0 30 3 35 24 35 33 0 50 23 36 49 -7 14
-21 21 -40 21 -28 0 -30 2 -30 40 0 36 2 40 25 40 29 0 43 25 28 49 -6 9 -20
16 -32 15 -15 0 -21 5 -21 20 0 12 -3 31 -6 44 -6 20 -3 22 29 22 32 0 67 20
67 39 0 17 -27 31 -62 31 -38 0 -38 0 -38 39 l0 40 48 3 c45 3 47 4 47 33 0
29 -2 30 -46 33 -43 3 -47 5 -53 34 -9 46 -9 47 30 50 71 6 68 68 -2 68 -31 0
-34 3 -34 28 0 15 -5 33 -12 40 -17 17 -45 15 -52 -4z m-306 -174 l0 -41 -57
3 c-56 3 -58 4 -61 32 -4 36 10 46 71 46 l47 0 0 -40z m150 0 l0 -40 -40 0
-40 0 0 40 0 40 40 0 40 0 0 -40z m158 -2 l3 -38 -45 0 -46 0 0 41 0 40 43 -3
c41 -3 42 -4 45 -40z m-1148 -8 c0 -46 -25 -57 -36 -15 -8 32 1 55 21 55 11 0
15 -11 15 -40z m128 -2 c3 -36 2 -38 -27 -38 -30 0 -31 2 -31 41 0 38 1 40 28
37 23 -3 27 -8 30 -40z m152 2 l0 -40 -40 0 -40 0 0 40 0 40 40 0 40 0 0 -40z
m130 0 c0 -38 -2 -40 -30 -40 -16 0 -30 4 -30 9 0 5 -3 23 -6 40 -6 30 -6 31
30 31 35 0 36 -1 36 -40z m108 -2 c3 -33 0 -38 -17 -38 -16 0 -21 6 -21 24 0
13 -3 32 -6 41 -5 13 -2 16 17 13 20 -2 25 -10 27 -40z m137 11 c8 -37 -4 -52
-36 -47 -20 2 -25 10 -27 41 -3 35 -2 37 27 37 25 0 30 -5 36 -31z m495 -149
l0 -40 -40 0 -40 0 0 40 0 40 40 0 40 0 0 -40z m-870 -10 c0 -39 -1 -40 -35
-40 -34 0 -35 1 -35 40 0 39 1 40 35 40 34 0 35 -1 35 -40z m130 31 c0 -5 3
-23 6 -40 6 -30 6 -31 -30 -31 -35 0 -36 1 -36 40 0 38 2 40 30 40 17 0 30 -4
30 -9z m114 -7 c3 -9 6 -27 6 -40 0 -19 -5 -24 -25 -24 -22 0 -25 4 -25 40 0
33 4 40 19 40 10 0 22 -7 25 -16z m146 -24 c0 -39 -1 -40 -35 -40 -34 0 -35 1
-35 40 0 39 1 40 35 40 34 0 35 -1 35 -40z m180 5 l0 -35 -55 0 c-48 0 -55 3
-55 19 0 11 -3 26 -6 35 -5 14 3 16 55 16 l61 0 0 -35z m140 0 c0 -33 -2 -35
-35 -35 -28 0 -35 4 -35 19 0 11 -3 26 -6 35 -5 13 2 16 35 16 40 0 41 -1 41
-35z m-980 -10 c0 -28 -4 -35 -20 -35 -16 0 -20 7 -20 35 0 28 4 35 20 35 16
0 20 -7 20 -35z m120 0 c0 -30 -3 -35 -24 -35 -20 0 -25 6 -28 35 -4 33 -2 35
24 35 25 0 28 -3 28 -35z m552 -145 l3 -50 -37 0 -38 0 0 50 0 50 34 0 c34 0
34 0 38 -50z m168 0 l0 -50 -50 0 -50 0 0 50 0 50 50 0 50 0 0 -50z m150 5 l0
-45 -40 0 -40 0 0 45 0 45 40 0 40 0 0 -45z m160 0 l0 -45 -45 0 -45 0 0 45 0
45 45 0 45 0 0 -45z m-1150 11 c0 -13 3 -38 6 -55 6 -28 4 -31 -20 -31 -25 0
-26 2 -26 55 0 48 2 55 20 55 14 0 20 -7 20 -24z m130 -31 c0 -54 0 -55 -30
-55 -30 0 -30 1 -30 55 0 54 0 55 30 55 30 0 30 -1 30 -55z m140 4 l0 -50 -32
3 c-32 3 -33 5 -36 51 l-3 47 35 0 36 0 0 -51z m140 1 l0 -50 -35 0 -35 0 0
50 0 50 35 0 35 0 0 -50z m115 10 c8 -45 2 -60 -26 -60 -16 0 -19 7 -19 50 0
43 3 50 19 50 15 0 21 -10 26 -40z m325 -150 l0 -40 -40 0 c-22 0 -43 -1 -47
-2 -5 -2 -9 14 -11 34 -3 33 -1 37 25 41 72 11 73 10 73 -33z m140 23 c0 -10
3 -28 6 -40 6 -21 3 -23 -35 -23 l-41 0 0 40 c0 39 1 40 35 40 27 0 35 -4 35
-17z m165 -14 c4 -17 5 -32 3 -33 -1 -2 -22 -6 -45 -9 l-43 -5 0 39 c0 39 0
39 39 39 36 0 40 -3 46 -31z m-623 -19 c3 -36 1 -40 -18 -40 -17 0 -24 8 -29
30 -8 35 0 50 25 50 14 0 19 -9 22 -40z m148 16 c0 -13 3 -31 6 -40 5 -13 -2
-16 -35 -16 l-41 0 0 40 c0 39 1 40 35 40 30 0 35 -3 35 -24z m-400 -26 c0
-39 -1 -40 -35 -40 -34 0 -35 1 -35 40 0 39 1 40 35 40 34 0 35 -1 35 -40z
m138 -3 l3 -38 -38 3 c-36 3 -38 5 -41 41 l-3 38 38 -3 c36 -3 38 -5 41 -41z
m-408 -7 c0 -33 -3 -40 -20 -40 -12 0 -20 7 -20 18 0 9 -3 27 -6 40 -5 19 -2
22 20 22 24 0 26 -4 26 -40z m130 5 c0 -32 -2 -35 -30 -35 -28 0 -30 3 -30 35
0 32 2 35 30 35 28 0 30 -3 30 -35z m860 -115 c0 -28 -2 -30 -40 -30 -38 0
-40 2 -40 30 0 28 2 30 40 30 38 0 40 -2 40 -30z m160 0 c0 -28 -2 -30 -39
-30 -26 0 -41 5 -45 16 -14 36 -7 44 39 44 43 0 45 -1 45 -30z m-466 4 c11
-29 6 -34 -33 -34 -30 0 -40 4 -44 19 -6 26 0 31 39 31 20 0 34 -6 38 -16z
m164 -11 c3 -21 0 -23 -47 -23 -48 0 -51 2 -51 26 0 24 2 25 48 22 40 -3 47
-6 50 -25z m-578 -8 c0 -21 -5 -25 -30 -25 -25 0 -30 4 -30 25 0 21 5 25 30
25 25 0 30 -4 30 -25z m140 0 c0 -22 -4 -25 -35 -25 -31 0 -35 3 -35 25 0 22
4 25 35 25 31 0 35 -3 35 -25z m120 0 c0 -20 -5 -25 -25 -25 -20 0 -25 5 -25
25 0 20 5 25 25 25 20 0 25 -5 25 -25z m-520 -5 c0 -15 -7 -20 -25 -20 -18 0
-25 5 -25 20 0 15 7 20 25 20 18 0 25 -5 25 -20z m120 0 c0 -16 -7 -20 -30
-20 -23 0 -30 4 -30 20 0 16 7 20 30 20 23 0 30 -4 30 -20z m410 -120 c0 -36
-3 -40 -25 -40 -18 0 -26 7 -31 25 -9 36 2 55 31 55 23 0 25 -4 25 -40z m158
-3 l3 -38 -43 3 c-42 3 -43 4 -46 41 l-3 38 43 -3 c42 -3 43 -4 46 -41z m152
3 l0 -40 -40 0 c-22 0 -40 4 -40 9 0 5 -3 23 -6 40 l-6 31 46 0 46 0 0 -40z
m150 0 l0 -40 -40 0 -40 0 0 40 0 40 40 0 40 0 0 -40z m150 31 c0 -5 3 -23 6
-40 l7 -31 -47 0 -46 0 0 40 0 40 40 0 c22 0 40 -4 40 -9z m-1140 -31 c0 -25
-4 -30 -25 -30 -21 0 -25 5 -25 30 0 25 4 30 25 30 21 0 25 -5 25 -30z m124 4
c9 -33 -2 -45 -32 -38 -16 5 -22 14 -22 35 0 24 4 29 24 29 17 0 26 -7 30 -26z
m136 -10 c0 -33 -2 -35 -27 -32 -23 2 -29 8 -31 36 -3 30 -1 32 27 32 29 0 31
-3 31 -36z m150 1 c0 -34 -1 -35 -40 -35 -39 0 -40 1 -40 35 0 34 1 35 40 35
39 0 40 -1 40 -35z m-400 -136 c0 -38 -1 -40 -27 -37 -24 3 -28 8 -31 41 -3
35 -2 37 27 37 30 0 31 -2 31 -41z m120 7 c0 -26 -5 -35 -22 -39 -26 -7 -38 7
-38 46 0 23 4 27 30 27 27 0 30 -3 30 -34z m130 15 c0 -11 3 -26 6 -35 5 -12
-1 -16 -24 -16 -22 0 -31 6 -36 23 -10 40 -7 47 24 47 23 0 30 -5 30 -19z
m150 -16 c0 -34 -1 -35 -40 -35 -39 0 -40 1 -40 35 0 34 1 35 40 35 39 0 40
-1 40 -35z m130 -6 c0 -26 -4 -29 -30 -29 -27 0 -30 3 -30 33 0 32 2 33 30 29
25 -4 30 -9 30 -33z m160 1 c0 -29 -2 -30 -45 -30 -43 0 -45 1 -45 30 0 29 2
30 45 30 43 0 45 -1 45 -30z m143 8 c8 -30 1 -38 -39 -38 -31 0 -34 2 -34 30
0 27 3 30 34 30 26 0 35 -5 39 -22z m147 -3 c0 -21 -5 -25 -30 -25 -16 0 -33
0 -37 0 -5 0 -9 11 -11 25 -3 23 0 25 37 25 37 0 41 -2 41 -25z m160 0 c0 -22
-4 -25 -40 -25 -36 0 -40 3 -40 25 0 23 4 25 40 25 36 0 40 -2 40 -25z m-608
-135 c4 -27 2 -30 -23 -30 -20 0 -28 6 -31 25 -6 29 -2 35 28 35 17 0 23 -7
26 -30z m168 0 c0 -29 -2 -30 -45 -30 -43 0 -45 1 -45 30 0 29 2 30 45 30 43
0 45 -1 45 -30z m140 0 c0 -28 -3 -30 -35 -30 -32 0 -35 2 -35 30 0 28 3 30
35 30 32 0 35 -2 35 -30z m145 0 c0 -22 -5 -25 -37 -28 -36 -3 -38 -2 -38 28
0 30 2 31 38 28 32 -3 37 -6 37 -28z m165 6 c0 -19 -6 -24 -37 -29 -44 -8 -53
-3 -53 29 0 22 4 24 45 24 41 0 45 -2 45 -24z m-1150 -16 c0 -25 -4 -30 -25
-30 -21 0 -25 5 -25 30 0 25 4 30 25 30 21 0 25 -5 25 -30z m128 3 c-2 -22 -9
-29 -30 -31 -25 -3 -28 0 -28 27 0 28 3 31 31 31 27 0 30 -3 27 -27z m132 2
c0 -21 -5 -25 -30 -25 -25 0 -30 4 -30 25 0 21 5 25 30 25 25 0 30 -4 30 -25z
m150 0 c0 -23 -4 -25 -45 -25 -41 0 -45 2 -45 25 0 23 4 25 45 25 41 0 45 -2
45 -25z m580 -115 c0 -28 -2 -30 -40 -30 -35 0 -40 3 -40 23 0 31 7 37 47 37
30 0 33 -3 33 -30z m160 0 c0 -28 -2 -30 -39 -30 -26 0 -41 5 -45 16 -14 36
-7 44 39 44 43 0 45 -1 45 -30z m-1020 0 c0 -16 -7 -20 -30 -20 -18 0 -30 5
-30 13 0 20 10 27 37 27 16 0 23 -6 23 -20z m130 0 c0 -15 -7 -20 -25 -20 -18
0 -25 5 -25 20 0 15 7 20 25 20 18 0 25 -5 25 -20z m150 -5 c0 -17 -5 -25 -17
-25 -38 0 -63 13 -63 31 0 15 7 19 40 19 36 0 40 -2 40 -25z m130 0 c0 -21 -5
-25 -30 -25 -25 0 -30 4 -30 25 0 21 5 25 30 25 25 0 30 -4 30 -25z m170 0 c0
-23 -4 -25 -45 -25 -25 0 -45 4 -45 9 0 5 -3 16 -6 25 -5 13 2 16 45 16 48 0
51 -2 51 -25z m138 -2 c3 -20 -1 -23 -32 -23 -32 0 -36 3 -36 26 0 23 3 25 33
22 24 -2 33 -8 35 -25z m-838 2 c0 -10 -10 -15 -30 -15 -20 0 -30 5 -30 15 0
10 10 15 30 15 20 0 30 -5 30 -15z"/>
</g>
</svg>
