<?xml version="1.0" standalone="no"?>
<!DOCTYPE svg PUBLIC "-//W3C//DTD SVG 20010904//EN"
 "http://www.w3.org/TR/2001/REC-SVG-20010904/DTD/svg10.dtd">
<svg version="1.0" xmlns="http://www.w3.org/2000/svg"
 width="150.000000pt" height="167.000000pt" viewBox="0 0 150.000000 167.000000"
 preserveAspectRatio="xMidYMid meet">

<g transform="translate(0.000000,167.000000) scale(0.100000,-0.100000)"
fill="#000000" stroke="none">
<path d="M315 1656 c-158 -50 -267 -181 -296 -354 -26 -155 32 -316 150 -418
l25 -21 -51 -50 c-101 -99 -151 -234 -140 -382 7 -100 28 -164 76 -238 48 -74
121 -134 198 -163 84 -32 206 -25 287 14 59 29 160 121 171 157 5 16 13 10 51
-41 52 -71 140 -132 215 -150 82 -20 196 -9 265 26 109 54 194 163 225 287 7
29 10 85 7 141 -4 77 -11 105 -36 160 -35 75 -106 156 -169 193 l-43 25 52 38
c93 67 150 163 170 285 30 179 -72 380 -230 453 -74 34 -187 42 -260 18 -70
-23 -137 -71 -182 -128 l-38 -48 -21 33 c-84 135 -278 210 -426 163z m212
-144 c21 -11 54 -35 72 -54 54 -54 111 -198 78 -198 -33 0 -138 -64 -181 -110
-46 -49 -106 -158 -106 -192 0 -43 -60 -32 -129 22 -35 28 -59 59 -81 104 -28
57 -33 76 -33 144 0 65 5 90 28 141 65 144 223 208 352 143z m680 -25 c150
-95 183 -320 67 -456 -32 -37 -98 -81 -122 -81 -5 0 -19 25 -30 55 -44 114
-133 207 -233 242 -55 20 -57 26 -33 95 25 75 93 143 169 170 42 15 140 2 182
-25z m-560 -420 c-30 -51 -109 -126 -115 -109 -7 21 48 102 90 132 23 17 43
28 46 26 2 -3 -7 -25 -21 -49z m274 6 c22 -20 49 -54 60 -75 l20 -39 -30 15
c-46 24 -129 136 -101 136 6 0 28 -17 51 -37z m-123 -116 c17 -24 56 -61 86
-82 l55 -38 -42 -28 c-53 -35 -65 -45 -104 -92 l-33 -37 -19 39 c-11 21 -41
60 -67 85 l-46 47 45 40 c25 22 55 55 67 74 12 19 23 35 24 35 1 0 17 -20 34
-43z m-399 -242 c14 -46 39 -97 64 -131 44 -58 137 -128 187 -139 27 -6 29 -9
23 -38 -37 -194 -185 -303 -345 -255 -60 18 -130 86 -164 160 -25 54 -29 75
-29 153 0 78 4 98 28 150 16 33 42 75 60 94 29 30 117 81 142 81 6 0 21 -34
34 -75z m189 -10 c37 -41 65 -92 60 -107 -9 -26 -92 70 -117 135 -10 25 -9 27
8 18 10 -6 32 -26 49 -46z m657 -15 c86 -59 132 -167 123 -284 -20 -246 -278
-363 -447 -203 -69 66 -118 219 -73 233 61 19 137 64 176 103 44 46 106 149
106 178 0 24 62 10 115 -27z m-280 -16 c-21 -32 -62 -72 -89 -86 -18 -10 -18
-9 0 22 20 34 94 103 102 95 3 -2 -3 -17 -13 -31z"/>
</g>
</svg>
