<?xml version="1.0" standalone="no"?>
<!DOCTYPE svg PUBLIC "-//W3C//DTD SVG 20010904//EN"
 "http://www.w3.org/TR/2001/REC-SVG-20010904/DTD/svg10.dtd">
<svg version="1.0" xmlns="http://www.w3.org/2000/svg"
 width="250.000000pt" height="153.000000pt" viewBox="0 0 250.000000 153.000000"
 preserveAspectRatio="xMidYMid meet">

<g transform="translate(0.000000,153.000000) scale(0.100000,-0.100000)"
fill="#000000" stroke="none">
<path d="M2010 1509 c-251 -34 -398 -39 -897 -27 -617 15 -725 6 -873 -73 -75
-40 -153 -122 -188 -196 -24 -53 -27 -69 -27 -173 0 -110 1 -118 33 -182 36
-73 86 -123 167 -166 45 -24 60 -27 155 -27 99 0 109 2 173 33 76 38 163 117
192 177 74 150 -63 375 -227 375 -80 0 -197 -71 -233 -141 -48 -92 12 -186
133 -205 32 -5 44 -2 61 15 38 38 26 85 -27 102 -66 21 -72 39 -29 87 27 29
87 30 133 1 112 -69 94 -212 -36 -283 -70 -38 -140 -44 -212 -17 -125 48 -175
165 -132 310 28 94 128 172 267 207 90 24 169 15 247 -27 122 -65 175 -181
168 -368 -3 -96 -6 -114 -33 -166 -74 -145 -235 -197 -546 -179 -92 6 -178 7
-196 2 -73 -20 -107 -116 -63 -178 40 -56 88 -65 350 -64 129 1 290 7 358 13
109 11 126 10 148 -4 53 -34 13 -72 -93 -85 -37 -5 -200 -11 -361 -14 -322 -5
-323 -5 -363 -69 -25 -40 -19 -91 14 -125 39 -38 122 -53 338 -59 222 -6 367
5 564 45 173 34 354 34 663 -2 251 -29 324 -31 434 -12 137 25 237 87 291 179
69 119 91 307 48 419 -42 108 -118 181 -243 231 -75 29 -208 29 -304 0 -169
-53 -243 -169 -232 -364 8 -130 68 -202 200 -235 92 -24 208 -4 261 44 39 35
59 92 55 152 -8 116 -69 180 -169 180 -48 0 -60 -4 -73 -22 -24 -33 -20 -84 6
-102 12 -9 32 -16 43 -16 32 0 65 -28 65 -56 0 -14 -11 -36 -25 -49 -49 -50
-174 -19 -223 55 -50 74 -5 204 89 262 61 38 131 46 214 23 133 -36 184 -102
185 -237 0 -188 -117 -321 -296 -336 -72 -5 -206 25 -269 63 -157 91 -200 324
-101 540 72 158 169 196 553 215 218 11 257 17 302 46 37 25 50 45 51 77 0 41
-16 64 -58 86 -62 31 -93 31 -369 6 -486 -45 -523 -45 -523 6 0 36 37 42 305
50 350 11 489 24 543 50 46 23 72 61 72 108 0 40 -51 97 -98 111 -54 15 -208
10 -362 -11z"/>
</g>
</svg>
