<?xml version="1.0" standalone="no"?>
<!DOCTYPE svg PUBLIC "-//W3C//DTD SVG 20010904//EN"
 "http://www.w3.org/TR/2001/REC-SVG-20010904/DTD/svg10.dtd">
<svg version="1.0" xmlns="http://www.w3.org/2000/svg"
 width="126.000000pt" height="150.000000pt" viewBox="0 0 126.000000 150.000000"
 preserveAspectRatio="xMidYMid meet">

<g transform="translate(0.000000,150.000000) scale(0.100000,-0.100000)"
fill="#000000" stroke="none">
<path d="M240 1493 c-67 -14 -157 -102 -201 -197 -27 -57 -33 -84 -37 -162 -8
-153 23 -246 115 -342 18 -19 33 -38 33 -43 0 -5 -13 -22 -30 -37 -45 -41 -96
-134 -110 -202 -8 -37 -11 -95 -8 -149 8 -143 65 -245 178 -324 43 -31 49 -32
146 -32 93 0 104 2 142 28 23 15 42 24 42 21 0 -11 99 127 105 147 9 26 20 24
34 -8 28 -62 96 -138 145 -163 42 -21 63 -25 145 -25 84 0 100 3 128 23 17 12
34 22 37 22 17 0 82 85 113 148 30 62 36 86 41 162 3 55 0 113 -8 150 -14 68
-65 161 -110 202 -17 15 -30 32 -30 37 0 5 15 24 33 43 92 96 123 189 115 342
-8 147 -63 249 -178 329 -43 31 -49 32 -146 32 -93 0 -104 -2 -142 -28 -23
-15 -42 -25 -42 -21 0 10 -86 -109 -105 -145 l-17 -34 -18 39 c-17 38 -100
154 -100 141 0 -4 -18 5 -40 19 -33 22 -53 27 -122 29 -46 2 -94 1 -108 -2z
m150 -130 c78 -52 122 -146 122 -258 0 -80 -29 -178 -63 -210 -12 -11 -18 -14
-14 -6 12 22 6 108 -11 149 -18 44 -54 73 -95 76 -74 5 -136 -82 -126 -177 l4
-50 -23 39 c-56 93 -57 244 -2 344 18 33 38 60 45 60 7 0 13 4 13 10 0 16 53
39 90 40 20 0 47 -8 60 -17z m600 2 c17 -9 30 -20 30 -25 0 -6 6 -10 14 -10 7
0 28 -30 47 -67 32 -63 34 -73 34 -162 -1 -101 -17 -154 -64 -211 l-21 -25 11
33 c6 18 9 60 7 92 -3 48 -10 67 -35 97 -26 33 -36 38 -74 39 -59 2 -64 -1
-99 -54 -32 -49 -40 -114 -19 -169 l10 -28 -20 20 c-12 11 -30 47 -42 80 -76
217 67 470 221 390z m-341 -470 c7 -19 35 -59 63 -90 l50 -55 -50 -55 c-28
-31 -56 -71 -63 -90 -7 -19 -16 -35 -19 -35 -3 0 -12 16 -19 35 -7 19 -35 59
-63 90 l-50 55 50 55 c28 31 56 71 63 90 7 19 16 35 19 35 3 0 12 -16 19 -35z
m-284 -229 c91 -38 147 -142 147 -271 -1 -74 -26 -159 -60 -203 -18 -23 -18
-22 -14 41 3 50 0 72 -16 104 -39 75 -105 94 -162 46 -36 -30 -49 -58 -59
-128 l-8 -50 -23 49 c-66 143 -17 342 100 403 51 27 51 27 95 9z m642 -18 c43
-26 90 -99 103 -162 15 -74 6 -185 -19 -234 -31 -61 -41 -61 -41 2 0 83 -21
124 -77 155 -95 50 -197 -94 -153 -216 l10 -28 -20 25 c-61 77 -80 225 -41
334 24 68 59 109 116 136 44 21 72 18 122 -12z"/>
</g>
</svg>
