<?xml version="1.0" standalone="no"?>
<!DOCTYPE svg PUBLIC "-//W3C//DTD SVG 20010904//EN"
 "http://www.w3.org/TR/2001/REC-SVG-20010904/DTD/svg10.dtd">
<svg version="1.0" xmlns="http://www.w3.org/2000/svg"
 width="144.000000pt" height="156.000000pt" viewBox="0 0 144.000000 156.000000"
 preserveAspectRatio="xMidYMid meet">

<g transform="translate(0.000000,156.000000) scale(0.100000,-0.100000)"
fill="#000000" stroke="none">
<path d="M947 1540 c-79 -25 -161 -81 -199 -135 -18 -25 -34 -45 -37 -45 -3 1
-18 18 -33 40 -15 22 -52 56 -81 75 -212 140 -496 46 -577 -191 -69 -199 48
-422 252 -482 47 -14 58 -21 58 -38 0 -17 -8 -23 -34 -27 -101 -16 -214 -109
-264 -215 -23 -49 -27 -70 -27 -147 0 -76 4 -99 26 -146 48 -101 112 -158 231
-205 105 -41 217 -26 332 45 40 25 116 105 116 123 0 6 22 -13 49 -43 187
-210 520 -168 648 81 25 49 28 65 28 155 0 121 -18 167 -96 250 -54 57 -153
115 -196 115 -20 0 -24 4 -21 26 2 22 11 29 43 39 105 31 194 105 241 202 39
80 45 203 14 286 -43 115 -135 199 -258 237 -79 25 -139 25 -215 0z m63 -153
c0 -24 -8 -54 -19 -71 -32 -48 2 -105 62 -106 64 0 99 49 72 103 -17 34 -20
117 -5 117 28 0 93 -45 121 -83 107 -148 85 -327 -50 -400 -205 -112 -457 70
-402 289 22 87 87 158 176 190 40 15 45 10 45 -39z m-680 -15 c0 -27 -6 -57
-15 -68 -36 -48 -2 -104 65 -104 27 0 47 7 60 20 21 21 27 74 10 85 -5 3 -10
31 -10 61 0 65 8 67 76 22 178 -120 150 -404 -47 -473 -198 -70 -405 116 -349
315 18 65 66 127 122 159 76 44 88 42 88 -17z m439 -445 c55 -58 121 -98 189
-117 35 -9 43 -15 40 -32 -2 -15 -17 -25 -60 -38 -31 -9 -72 -27 -92 -39 -37
-23 -126 -117 -126 -133 0 -5 -25 18 -56 51 -56 60 -128 105 -191 117 -25 5
-33 12 -33 28 0 18 10 26 53 39 73 23 142 71 186 128 20 26 37 48 38 48 1 1
25 -23 52 -52z m231 -338 c0 -33 -7 -63 -19 -83 -25 -41 -13 -72 35 -92 45
-19 97 -5 121 33 15 23 15 27 -1 57 -12 22 -16 49 -14 84 l3 52 51 -24 c163
-76 189 -300 49 -424 -145 -128 -386 -53 -425 131 -24 120 44 255 154 303 45
19 46 19 46 -37z m-670 -11 c0 -33 -6 -58 -16 -69 -9 -10 -16 -31 -16 -46 0
-61 99 -87 147 -38 28 28 30 40 10 75 -8 14 -14 48 -15 77 l0 52 32 -11 c49
-17 122 -96 141 -153 33 -96 14 -209 -46 -273 -63 -68 -194 -91 -285 -52 -168
72 -214 300 -85 422 25 24 105 67 126 68 4 0 7 -23 7 -52z"/>
</g>
</svg>
