<?xml version="1.0" standalone="no"?>
<!DOCTYPE svg PUBLIC "-//W3C//DTD SVG 20010904//EN"
 "http://www.w3.org/TR/2001/REC-SVG-20010904/DTD/svg10.dtd">
<svg version="1.0" xmlns="http://www.w3.org/2000/svg"
 width="300.000000pt" height="272.000000pt" viewBox="0 0 300.000000 272.000000"
 preserveAspectRatio="xMidYMid meet">

<g transform="translate(0.000000,272.000000) scale(0.100000,-0.100000)"
fill="#000000" stroke="none">
<path d="M0 1360 l0 -1360 1500 0 1500 0 0 1360 0 1360 -1500 0 -1500 0 0
-1360z m2930 0 l0 -1290 -1430 0 -1430 0 0 1290 0 1290 1430 0 1430 0 0 -1290z"/>
<path d="M260 1385 l0 -1075 1240 0 1240 0 0 1075 0 1075 -1240 0 -1240 0 0
-1075z m790 624 c236 -209 432 -383 434 -388 3 -4 -34 -39 -81 -79 l-85 -72
-38 33 c-20 17 -242 214 -494 436 -355 315 -456 409 -456 428 l0 23 145 0 146
0 429 -381z m1315 356 l-30 -25 -781 0 -781 0 -23 25 -23 25 834 0 834 -1 -30
-24z m303 -60 l-3 -84 -444 -380 -445 -380 -35 30 c-20 16 -60 51 -90 77 l-55
49 450 386 449 386 88 0 88 1 -3 -85z m-443 -60 l-30 -25 -639 0 -638 0 -30
25 -30 25 699 0 698 -1 -30 -24z m-1398 -434 c238 -210 433 -384 433 -387 0
-3 -855 -737 -913 -783 -16 -13 -17 31 -17 800 l0 813 33 -30 c17 -17 227
-203 464 -413z m1258 314 l-30 -25 -506 0 -506 0 -23 25 -23 25 559 0 559 -1
-30 -24z m583 -1090 l-3 -364 -385 340 c-212 187 -400 355 -418 373 l-33 33
418 357 418 357 3 -365 c1 -201 1 -530 0 -731z m-723 970 l-30 -24 -366 -1
-366 0 -23 25 -23 25 419 0 419 0 -30 -25z m-125 -100 c0 -3 -15 -19 -32 -35
l-33 -29 -203 -1 -203 0 -35 26 c-19 15 -34 30 -34 35 0 5 121 9 270 9 149 0
270 -2 270 -5z m-209 -185 l-65 -58 -63 55 c-35 31 -63 57 -63 59 0 2 57 4
128 4 l127 -1 -64 -59z m58 -257 l54 -49 -87 -73 -86 -73 -33 25 c-17 15 -58
50 -90 79 l-58 53 86 73 87 72 36 -29 c21 -17 61 -52 91 -78z m-229 -192 c36
-32 51 -53 45 -59 -5 -5 -230 -197 -498 -426 l-488 -416 -85 0 -85 0 3 84 3
85 490 419 490 419 35 -28 c19 -16 60 -51 90 -78z m863 -371 l367 -324 0 -103
0 -103 -55 0 -55 0 -139 123 c-539 474 -819 723 -820 727 0 3 39 37 86 77 l87
71 81 -71 c45 -40 247 -218 448 -397z m-693 220 l55 -50 -120 0 -120 0 55 50
c30 27 60 49 65 49 6 0 35 -22 65 -49z m168 -149 c12 -11 22 -22 22 -25 0 -3
-118 -6 -262 -6 l-261 0 23 25 23 25 216 0 c196 -1 218 -2 239 -19z m147 -131
l29 -30 -414 0 -414 0 29 30 29 30 356 0 356 0 29 -30z m147 -130 l33 -29
-570 -1 -569 0 34 30 35 29 502 1 503 0 32 -30z m153 -135 l40 -35 -730 1
-730 0 40 34 40 35 650 -1 650 0 40 -34z m175 -155 l55 -49 -924 -1 c-541 0
-921 4 -915 9 5 5 31 27 57 50 l48 41 812 0 812 -1 55 -49z"/>
</g>
</svg>
