<?xml version="1.0" standalone="no"?>
<!DOCTYPE svg PUBLIC "-//W3C//DTD SVG 20010904//EN"
 "http://www.w3.org/TR/2001/REC-SVG-20010904/DTD/svg10.dtd">
<svg version="1.0" xmlns="http://www.w3.org/2000/svg"
 width="300.000000pt" height="352.000000pt" viewBox="0 0 300.000000 352.000000"
 preserveAspectRatio="xMidYMid meet">

<g transform="translate(0.000000,352.000000) scale(0.100000,-0.100000)"
fill="#000000" stroke="none">
<path d="M246 3508 c4 -7 65 -98 134 -203 70 -104 130 -196 134 -203 5 -8 -17
-39 -59 -85 -198 -216 -364 -562 -426 -888 -30 -160 -37 -467 -15 -636 49
-370 208 -731 434 -985 26 -29 55 -62 64 -74 18 -20 15 -26 -117 -225 l-134
-204 1166 -3 c641 -1 1168 0 1170 2 3 2 -45 78 -105 168 l-110 164 90 88 c277
275 459 654 514 1069 22 169 15 476 -15 636 -47 247 -153 509 -291 715 -44 66
-117 154 -190 229 l-117 122 103 158 c57 87 104 160 104 163 0 2 -527 4 -1171
4 -933 0 -1169 -3 -1163 -12z m1262 -404 c101 -42 144 -156 94 -250 -19 -36
-80 -83 -117 -90 -92 -17 -170 20 -210 100 -28 56 -29 66 -15 118 30 105 149
164 248 122z m929 -425 c359 -523 365 -1291 15 -1819 -56 -84 -192 -244 -221
-259 -16 -9 -56 47 -355 494 -185 278 -336 507 -336 510 0 3 200 5 445 5 l445
0 0 185 0 185 -426 0 c-262 0 -424 4 -422 9 2 6 143 222 313 481 l310 471 90
-93 c50 -51 114 -127 142 -169z m-1457 -274 l280 -420 -400 -3 -400 -2 0 -185
0 -185 425 0 c234 0 425 -3 425 -6 0 -7 -587 -902 -604 -921 -8 -9 -23 2 -61
48 -393 472 -470 1198 -186 1768 71 143 208 337 232 329 5 -2 135 -192 289
-423z m543 -1699 c59 -24 117 -111 117 -176 0 -65 -58 -152 -117 -176 -39 -17
-111 -18 -150 -3 -35 13 -80 55 -101 94 -20 39 -20 131 0 170 47 89 159 130
251 91z"/>
</g>
</svg>
