<?xml version="1.0" standalone="no"?>
<!DOCTYPE svg PUBLIC "-//W3C//DTD SVG 20010904//EN"
 "http://www.w3.org/TR/2001/REC-SVG-20010904/DTD/svg10.dtd">
<svg version="1.0" xmlns="http://www.w3.org/2000/svg"
 width="134.000000pt" height="149.000000pt" viewBox="0 0 134.000000 149.000000"
 preserveAspectRatio="xMidYMid meet">

<g transform="translate(0.000000,149.000000) scale(0.100000,-0.100000)"
fill="#000000" stroke="none">
<path d="M85 1474 c11 -8 28 -21 38 -29 9 -8 19 -15 22 -15 3 0 13 -8 23 -17
10 -10 50 -47 90 -82 39 -35 72 -67 72 -70 0 -4 22 -31 50 -60 27 -29 49 -56
48 -59 -1 -4 14 -32 34 -62 31 -49 48 -84 54 -115 1 -5 9 -34 18 -64 9 -30 14
-56 12 -58 -4 -4 -85 36 -96 47 -3 3 -24 18 -47 33 -43 30 -136 123 -164 167
-9 14 -28 38 -42 54 -14 16 -31 41 -38 55 -7 14 -19 33 -25 41 -7 8 -36 60
-64 115 -29 55 -56 104 -61 110 -5 5 -9 -296 -9 -718 0 -400 2 -727 4 -727 3
0 19 26 37 58 53 95 119 179 219 281 101 102 134 131 150 131 6 0 10 5 10 11
0 5 4 8 9 5 5 -4 11 -3 13 1 1 5 21 16 42 26 33 15 37 16 27 3 -8 -9 -11 -16
-7 -16 3 0 -6 -23 -21 -50 -15 -27 -30 -50 -34 -50 -4 0 -10 -11 -13 -25 -4
-14 -11 -25 -16 -25 -6 0 -10 -4 -10 -10 0 -15 -36 -56 -131 -150 -102 -100
-140 -135 -148 -135 -3 0 -17 -10 -31 -22 -14 -12 -34 -29 -45 -37 -18 -14 46
-15 605 -15 l625 0 -25 20 c-14 11 -33 27 -43 35 -9 7 -20 14 -24 14 -12 0
-184 170 -218 215 -11 15 -26 33 -32 40 -7 8 -13 18 -13 24 0 6 -4 11 -10 11
-5 0 -10 6 -10 14 0 8 -7 22 -16 30 -21 22 -74 128 -68 138 5 7 54 -10 64 -23
3 -3 16 -9 30 -12 30 -7 249 -220 299 -290 19 -26 43 -64 54 -85 11 -20 30
-50 43 -65 l24 -29 0 713 c0 605 -2 710 -14 694 -7 -11 -32 -56 -55 -100 -23
-45 -53 -94 -66 -109 -14 -16 -25 -34 -25 -41 0 -7 -8 -21 -17 -33 -10 -11
-29 -34 -43 -52 -34 -43 -191 -196 -195 -190 -2 3 -14 -4 -27 -16 -13 -11 -42
-30 -66 -42 l-42 -22 6 28 c4 15 13 42 20 61 8 18 14 42 14 51 0 10 20 49 45
86 25 36 45 69 45 71 0 2 6 11 13 18 6 8 23 27 37 44 30 37 103 109 149 147
19 16 41 37 50 47 8 9 19 17 24 17 4 0 13 5 20 10 7 6 28 24 47 40 l35 30
-615 0 c-547 -1 -613 -2 -595 -16z"/>
</g>
</svg>
