<?xml version="1.0" standalone="no"?>
<!DOCTYPE svg PUBLIC "-//W3C//DTD SVG 20010904//EN"
 "http://www.w3.org/TR/2001/REC-SVG-20010904/DTD/svg10.dtd">
<svg version="1.0" xmlns="http://www.w3.org/2000/svg"
 width="149.000000pt" height="133.000000pt" viewBox="0 0 149.000000 133.000000"
 preserveAspectRatio="xMidYMid meet">

<g transform="translate(0.000000,133.000000) scale(0.100000,-0.100000)"
fill="#000000" stroke="none">
<path d="M1082 1320 c-77 -16 -148 -73 -176 -142 -10 -22 -16 -67 -16 -108 l0
-70 -139 0 -138 0 -6 63 c-3 34 -13 79 -22 100 -71 170 -347 206 -490 63 -112
-112 -116 -286 -9 -405 53 -59 108 -81 201 -81 l64 0 -3 -67 -3 -68 -66 -7
c-36 -3 -84 -15 -106 -27 -55 -27 -128 -111 -147 -168 -47 -138 15 -298 139
-358 50 -25 63 -27 134 -23 59 3 93 11 135 32 101 49 176 161 176 263 l0 33
133 0 133 0 10 -80 c9 -64 18 -90 45 -130 129 -190 409 -169 511 40 33 66 32
196 -1 263 -49 100 -152 167 -256 167 l-45 0 0 65 0 65 73 0 c163 0 267 106
267 271 0 167 -123 295 -300 312 -30 3 -74 2 -98 -3z m161 -96 c160 -55 208
-283 77 -371 -27 -19 -47 -23 -106 -23 l-74 0 0 40 0 40 59 0 c48 0 63 4 85
25 54 50 25 163 -51 199 -43 20 -122 21 -151 0 -22 -15 -22 -18 -22 -270 l0
-254 -42 0 -43 0 -3 247 c-1 151 2 259 8 279 12 35 48 73 88 90 39 18 121 17
175 -2z m-835 -7 c39 -15 90 -61 103 -94 5 -14 9 -134 9 -269 l0 -244 -40 0
-40 0 0 236 0 236 -29 29 c-26 25 -37 29 -86 29 -98 0 -145 -40 -145 -123 0
-40 5 -53 29 -78 26 -26 36 -29 90 -29 l61 0 0 -41 0 -41 -86 3 -85 4 -39 41
c-48 52 -65 119 -49 197 14 63 75 129 135 145 53 14 132 13 172 -1z m779 -158
c60 -22 59 -59 -2 -59 -45 0 -45 0 -45 35 0 38 5 40 47 24z m-835 -29 c5 -30
4 -30 -44 -30 -41 0 -48 3 -48 20 0 23 25 39 61 40 22 0 28 -5 31 -30z m538
-165 l0 -45 -140 0 -140 0 0 45 0 45 140 0 140 0 0 -45z m0 -190 l0 -65 -140
0 -140 0 0 65 0 65 140 0 140 0 0 -65z m386 -175 c65 -32 98 -88 102 -174 4
-81 -11 -126 -55 -170 -57 -57 -129 -75 -207 -52 -89 27 -146 104 -146 197 l0
49 40 0 c40 0 40 0 40 -37 0 -50 18 -82 59 -110 60 -40 126 -26 168 36 38 56
27 127 -27 176 -22 20 -34 20 -498 16 -262 -2 -486 -7 -498 -11 -11 -5 -33
-23 -47 -40 -61 -72 -16 -190 72 -190 82 1 161 66 161 133 0 25 3 27 40 27
l40 0 0 -41 c0 -54 -24 -102 -71 -143 -42 -36 -122 -66 -173 -66 -50 1 -112
34 -140 77 -67 103 -52 217 41 296 51 44 74 46 577 47 462 0 481 -1 522 -20z
m-926 -175 c0 -20 -8 -29 -32 -40 -35 -14 -58 -6 -58 21 0 18 40 44 67 44 18
0 23 -6 23 -25z m860 5 c16 -31 -4 -62 -38 -58 -23 3 -27 8 -30 41 -3 35 -2
37 27 37 20 0 34 -7 41 -20z"/>
</g>
</svg>
