<?xml version="1.0" standalone="no"?>
<!DOCTYPE svg PUBLIC "-//W3C//DTD SVG 20010904//EN"
 "http://www.w3.org/TR/2001/REC-SVG-20010904/DTD/svg10.dtd">
<svg version="1.0" xmlns="http://www.w3.org/2000/svg"
 width="198.000000pt" height="200.000000pt" viewBox="0 0 198.000000 200.000000"
 preserveAspectRatio="xMidYMid meet">

<g transform="translate(0.000000,200.000000) scale(0.100000,-0.100000)"
fill="#000000" stroke="none">
<path d="M1439 1986 c-118 -33 -227 -126 -281 -241 -38 -82 -48 -199 -25 -285
9 -30 14 -56 13 -57 -1 -1 -24 4 -51 12 -61 19 -148 19 -208 1 l-47 -14 8 26
c4 15 7 68 7 117 -1 80 -4 98 -33 160 -74 158 -223 255 -392 255 -276 0 -484
-265 -416 -530 57 -222 279 -365 496 -318 65 14 70 13 64 -1 -15 -37 -16 -158
0 -216 8 -32 14 -60 13 -61 -1 -1 -27 4 -57 12 -138 36 -284 -3 -392 -104
-175 -164 -184 -429 -20 -604 210 -224 572 -164 704 117 38 82 48 199 25 285
-9 30 -14 56 -13 57 1 1 24 -4 51 -12 62 -19 148 -19 210 0 27 8 50 13 51 12
1 -1 -4 -27 -13 -57 -23 -86 -13 -203 25 -285 132 -281 494 -341 704 -117 164
175 155 440 -20 604 -108 101 -254 140 -392 104 -30 -8 -56 -13 -57 -12 -1 1
4 26 12 56 8 30 15 80 15 110 0 30 -7 80 -15 110 -8 30 -13 55 -12 56 1 1 27
-4 57 -12 138 -36 284 3 392 104 175 164 184 429 20 604 -107 115 -276 164
-423 124z m192 -162 c101 -30 189 -148 189 -254 0 -93 -69 -198 -158 -241 -54
-26 -145 -31 -206 -10 -92 32 -176 152 -176 251 0 87 65 196 140 235 68 35
135 41 211 19z m-1129 -34 c62 -17 129 -70 160 -126 56 -100 45 -218 -29 -303
-134 -157 -400 -103 -458 93 -19 62 -19 90 -1 150 43 144 187 225 328 186z
m603 -549 c82 -37 155 -150 155 -241 0 -97 -79 -213 -168 -247 -60 -23 -144
-23 -204 0 -89 34 -168 150 -168 247 0 84 69 198 142 236 71 37 167 39 243 5z
m-566 -567 c55 -23 118 -91 141 -152 25 -67 25 -117 0 -185 -50 -132 -190
-202 -327 -162 -79 23 -154 97 -177 174 -20 68 -20 94 -1 159 45 150 216 228
364 166z m1128 -5 c84 -40 153 -148 153 -239 0 -109 -88 -224 -193 -255 -137
-40 -277 30 -327 162 -25 68 -25 118 0 187 32 85 104 145 205 170 35 8 119 -4
162 -25z"/>
</g>
</svg>
