<?xml version="1.0" standalone="no"?>
<!DOCTYPE svg PUBLIC "-//W3C//DTD SVG 20010904//EN"
 "http://www.w3.org/TR/2001/REC-SVG-20010904/DTD/svg10.dtd">
<svg version="1.0" xmlns="http://www.w3.org/2000/svg"
 width="297.000000pt" height="301.000000pt" viewBox="0 0 297.000000 301.000000"
 preserveAspectRatio="xMidYMid meet">

<g transform="translate(0.000000,301.000000) scale(0.100000,-0.100000)"
fill="#000000" stroke="none">
<path d="M1890 2945 l0 -65 470 0 470 0 0 -470 0 -471 68 3 67 3 0 530 0 530
-537 3 -538 2 0 -65z"/>
<path d="M0 2455 l0 -545 65 0 65 0 0 480 0 480 438 2 437 3 3 63 3 62 -506 0
-505 0 0 -545z"/>
<path d="M192 1498 l3 -1323 1292 -3 1291 -2 4 665 c2 366 2 962 0 1325 l-4
660 -1294 0 -1294 0 2 -1322z m858 1230 c-246 -108 -390 -205 -525 -356 -39
-44 -50 -51 -61 -40 -7 7 -53 71 -103 141 l-91 128 0 70 0 69 403 -1 c300 0
396 -3 377 -11z m1650 -44 c0 -55 -2 -59 -96 -193 -53 -75 -100 -140 -105
-145 -5 -6 -49 29 -106 85 -137 133 -240 199 -463 297 -19 8 74 11 373 11
l397 1 0 -56z m-1004 -45 c152 -28 335 -105 460 -194 274 -196 454 -510 483
-844 37 -422 -161 -832 -517 -1068 -136 -91 -314 -159 -471 -179 l-54 -7 34
47 c18 26 37 50 41 52 4 3 42 14 85 25 111 28 283 116 380 193 183 146 311
344 369 573 89 352 -9 720 -264 985 -141 146 -304 243 -500 295 -85 23 -117
27 -257 27 -136 0 -173 -3 -249 -23 -380 -99 -658 -367 -773 -746 -25 -85 -27
-101 -27 -280 0 -163 3 -201 21 -267 71 -254 227 -473 437 -613 101 -67 187
-107 301 -140 48 -14 90 -27 94 -29 3 -2 22 -25 40 -51 l34 -47 -44 7 c-431
68 -796 377 -928 785 -75 235 -74 500 4 731 142 416 521 725 955 778 86 11
260 6 346 -10z m-156 -946 l0 -706 -26 -34 c-14 -18 -30 -33 -37 -33 -7 0 -22
16 -34 35 l-23 35 0 705 0 705 60 0 60 0 0 -707z m-242 -228 l-3 -304 -292
411 -292 411 32 44 c47 66 153 170 221 216 74 50 204 111 276 129 l55 14 3
-309 c1 -169 1 -445 0 -612z m521 875 c89 -35 204 -107 279 -175 57 -52 142
-156 142 -175 0 -12 -568 -820 -576 -820 -2 0 -4 274 -4 609 l0 609 41 -9 c23
-5 76 -23 118 -39z m859 -226 l-22 -33 -39 66 c-21 36 -36 69 -35 72 2 4 28
42 58 85 l55 78 3 -117 c2 -108 1 -120 -20 -151z m-2327 13 l-36 -67 -22 27
c-21 26 -23 38 -23 152 l0 124 59 -84 59 -84 -37 -68z m1998 -354 c12 -34 21
-70 21 -79 0 -17 -878 -1264 -890 -1264 -3 0 -43 51 -87 112 -44 62 -243 342
-443 623 l-363 509 13 51 c7 27 19 65 26 84 l14 33 313 -438 c171 -242 359
-505 417 -586 57 -82 107 -148 110 -148 5 0 789 1105 820 1156 18 30 23 24 49
-53z m31 -438 c-32 -172 -109 -330 -220 -451 -90 -99 -210 -186 -314 -229
l-39 -16 19 29 c10 16 141 201 289 411 249 352 270 379 273 349 2 -18 -1 -60
-8 -93z m-1518 -285 c151 -212 277 -390 281 -397 10 -16 -50 11 -135 61 -231
135 -400 400 -433 681 -5 41 -4 57 3 50 5 -5 133 -183 284 -395z m-454 -271
c157 -231 387 -414 627 -500 50 -17 46 -18 -357 -18 l-408 -1 0 388 0 387 44
-91 c24 -50 66 -124 94 -165z m2292 -144 l0 -375 -402 0 -403 0 81 33 c99 40
209 102 295 167 151 113 328 330 395 485 16 36 30 65 31 65 2 0 3 -169 3 -375z"/>
<path d="M2830 615 l0 -485 -450 0 -450 0 0 -65 0 -65 520 0 520 0 0 550 0
550 -70 0 -70 0 0 -485z"/>
<path d="M2 528 l3 -513 510 0 510 0 0 60 0 60 -447 3 -448 2 0 450 0 450 -65
0 -65 0 2 -512z"/>
</g>
</svg>
