<?xml version="1.0" standalone="no"?>
<!DOCTYPE svg PUBLIC "-//W3C//DTD SVG 20010904//EN"
 "http://www.w3.org/TR/2001/REC-SVG-20010904/DTD/svg10.dtd">
<svg version="1.0" xmlns="http://www.w3.org/2000/svg"
 width="200.000000pt" height="210.000000pt" viewBox="0 0 200.000000 210.000000"
 preserveAspectRatio="xMidYMid meet">

<g transform="translate(0.000000,210.000000) scale(0.100000,-0.100000)"
fill="#000000" stroke="none">
<path d="M1170 1755 l0 -345 -65 0 -65 0 0 340 0 340 -85 0 -85 0 0 -340 0
-340 -60 0 -60 0 0 340 0 340 -370 0 -371 0 3 -57 3 -58 283 -3 282 -2 0 -80
0 -80 -270 0 -270 0 0 -60 0 -60 270 0 270 0 0 -120 0 -120 -275 0 -275 0 0
-440 0 -440 275 0 275 0 0 -85 0 -85 -285 0 -285 0 0 -65 0 -65 285 0 285 0 0
-60 0 -60 -290 0 -290 0 0 -65 0 -65 375 0 375 0 0 295 0 295 65 0 65 0 0
-300 0 -300 85 0 85 0 0 300 0 300 60 0 60 0 0 -305 0 -305 415 0 415 0 0 60
0 60 -325 0 -325 0 0 55 0 55 303 2 302 3 0 60 0 60 -302 3 -303 2 0 115 0
115 305 0 305 0 -2 417 -3 418 -302 3 -303 2 0 130 0 130 295 0 296 0 -3 61
-3 60 -292 -1 -293 -1 0 86 0 85 315 0 315 0 0 60 0 60 -405 0 -405 0 0 -345z
m-860 -750 l0 -315 -80 0 -80 0 0 315 0 315 80 0 80 0 0 -315z m270 0 l0 -315
-75 0 -75 0 0 315 0 315 75 0 75 0 0 -315z m950 5 l0 -290 -90 0 -90 0 0 290
0 290 90 0 90 0 0 -290z m300 0 l0 -290 -85 0 -85 0 0 290 0 290 85 0 85 0 0
-290z m-660 170 l0 -100 -210 0 -210 0 0 100 0 100 210 0 210 0 0 -100z m0
-340 l0 -110 -210 0 -210 0 0 110 0 110 210 0 210 0 0 -110z"/>
</g>
</svg>
