<?xml version="1.0" standalone="no"?>
<!DOCTYPE svg PUBLIC "-//W3C//DTD SVG 20010904//EN"
 "http://www.w3.org/TR/2001/REC-SVG-20010904/DTD/svg10.dtd">
<svg version="1.0" xmlns="http://www.w3.org/2000/svg"
 width="125.000000pt" height="149.000000pt" viewBox="0 0 125.000000 149.000000"
 preserveAspectRatio="xMidYMid meet">

<g transform="translate(0.000000,149.000000) scale(0.100000,-0.100000)"
fill="#000000" stroke="none">
<path d="M290 1482 c-38 -13 -123 -89 -153 -138 -27 -45 -78 -156 -83 -184 -3
-14 -15 -56 -26 -95 -18 -60 -21 -102 -24 -289 -3 -216 3 -287 31 -376 8 -25
16 -56 19 -70 6 -33 76 -184 87 -188 5 -2 9 -9 9 -16 0 -14 102 -108 128 -117
58 -20 212 -4 212 23 0 4 7 8 15 8 8 0 15 3 15 8 0 4 18 25 40 47 21 22 39 45
40 50 0 6 6 18 14 27 11 15 17 10 56 -48 24 -36 51 -69 59 -72 9 -3 29 -16 45
-29 26 -21 38 -24 110 -22 70 2 86 5 121 29 102 71 171 194 219 390 25 101 26
114 23 350 -3 216 -6 252 -25 306 -11 34 -23 75 -25 91 -3 16 -14 47 -25 69
-11 21 -20 42 -21 47 -2 17 -105 157 -115 157 -4 0 -23 11 -44 24 -46 30 -154
36 -201 12 -41 -21 -128 -112 -148 -153 l-16 -34 -18 31 c-11 17 -19 35 -19
40 0 6 -4 10 -10 10 -5 0 -10 4 -10 10 0 12 -41 60 -51 60 -5 0 -25 11 -46 25
-32 22 -47 26 -103 24 -36 -1 -72 -4 -80 -7z m147 -138 c24 -7 113 -130 113
-157 0 -14 -10 -17 -49 -17 -72 0 -98 -24 -98 -92 0 -55 16 -90 79 -170 16
-21 26 -38 22 -38 -4 0 2 -10 13 -22 29 -33 36 -55 39 -128 3 -73 -6 -94 -67
-151 -22 -20 -39 -41 -39 -47 0 -6 -10 -19 -22 -29 -50 -41 -83 -116 -72 -161
5 -19 11 -33 14 -32 3 0 22 -6 42 -14 21 -9 51 -16 68 -16 35 0 36 -3 11 -39
-28 -38 -96 -84 -126 -83 -21 0 -69 41 -70 62 -1 3 -11 24 -23 47 -12 23 -23
50 -25 60 -2 10 -11 39 -21 65 -18 45 -18 50 -2 95 9 27 19 56 21 67 2 10 16
33 30 51 14 19 25 37 25 40 0 6 16 28 60 82 6 7 10 17 10 22 0 12 -39 84 -49
91 -7 5 -25 37 -61 110 -9 19 -25 63 -34 97 l-17 62 31 80 c17 45 36 81 41 81
5 0 9 4 9 9 0 12 51 66 70 74 20 7 50 8 77 1z m535 -75 c35 -50 78 -154 78
-190 0 -25 -39 -134 -61 -169 -5 -8 -17 -31 -27 -50 -10 -19 -30 -54 -45 -77
-15 -24 -27 -48 -27 -54 0 -7 16 -31 35 -54 47 -58 104 -174 111 -229 7 -48
-9 -100 -68 -224 -46 -96 -99 -105 -175 -28 -54 54 -52 73 7 74 56 1 87 23 96
68 8 45 -21 107 -79 169 -16 17 -41 44 -57 60 -15 17 -36 42 -45 58 -23 36
-23 121 -1 167 38 79 57 110 66 110 6 0 10 6 10 13 0 8 9 22 20 32 29 26 54
114 46 159 -6 30 -14 40 -40 51 -20 9 -48 12 -70 8 -43 -7 -46 4 -15 62 31 58
90 113 124 117 38 4 82 -23 117 -73z"/>
</g>
</svg>
