<?xml version="1.0" standalone="no"?>
<!DOCTYPE svg PUBLIC "-//W3C//DTD SVG 20010904//EN"
 "http://www.w3.org/TR/2001/REC-SVG-20010904/DTD/svg10.dtd">
<svg version="1.0" xmlns="http://www.w3.org/2000/svg"
 width="135.000000pt" height="155.000000pt" viewBox="0 0 135.000000 155.000000"
 preserveAspectRatio="xMidYMid meet">

<g transform="translate(0.000000,155.000000) scale(0.100000,-0.100000)"
fill="#000000" stroke="none">
<path d="M0 1325 l0 -225 590 0 590 0 0 -35 0 -35 -590 0 -590 0 0 -245 0
-245 585 0 585 0 0 -45 0 -45 -585 0 -585 0 0 -225 0 -225 105 0 105 0 0 125
0 125 75 0 75 0 0 -125 0 -125 105 0 105 0 0 124 0 125 90 3 90 3 0 -127 0
-128 120 0 120 0 0 124 0 124 80 4 80 3 0 -127 0 -128 100 0 100 0 0 375 0
375 -570 0 -570 0 0 30 0 30 570 0 570 0 0 250 0 250 -570 0 -570 0 0 25 0 25
570 0 570 0 0 95 0 95 -675 0 -675 0 0 -225z"/>
</g>
</svg>
