<?xml version="1.0" standalone="no"?>
<!DOCTYPE svg PUBLIC "-//W3C//DTD SVG 20010904//EN"
 "http://www.w3.org/TR/2001/REC-SVG-20010904/DTD/svg10.dtd">
<svg version="1.0" xmlns="http://www.w3.org/2000/svg"
 width="50.000000pt" height="50.000000pt" viewBox="0 0 50.000000 50.000000"
 preserveAspectRatio="xMidYMid meet">

<g transform="translate(0.000000,50.000000) scale(0.100000,-0.100000)"
fill="#000000" stroke="none">
<path d="M0 488 c0 -5 16 -22 35 -39 19 -17 35 -36 35 -42 0 -6 -16 4 -35 23
-53 51 -42 23 13 -33 l47 -49 -47 -43 c-27 -24 -48 -46 -48 -50 0 -4 25 16 56
44 56 51 74 58 82 30 3 -11 2 -11 -7 1 -9 12 -21 5 -71 -45 -52 -52 -60 -64
-60 -97 0 -32 7 -44 46 -80 25 -23 54 -53 64 -68 18 -26 18 -26 -5 -25 -14 0
-41 17 -65 40 -22 21 -40 35 -40 29 0 -5 17 -27 38 -47 31 -31 45 -37 80 -37
40 0 56 13 30 23 -10 4 -10 6 0 6 7 1 15 -6 18 -14 9 -24 21 -18 66 31 23 25
51 50 62 56 12 6 -4 -15 -34 -46 -68 -70 -54 -75 15 -6 l51 51 48 -51 c26 -28
52 -50 57 -48 4 2 -19 31 -52 66 -34 34 -57 62 -52 62 6 0 38 -29 72 -65 35
-36 65 -65 68 -65 5 0 -107 131 -122 142 -6 5 -6 8 2 8 6 0 42 -34 79 -75 37
-42 69 -73 72 -70 3 3 -22 34 -56 68 -34 34 -62 67 -62 72 0 5 27 -17 60 -50
33 -33 60 -55 60 -50 0 5 -24 33 -52 63 l-53 53 53 50 c28 28 52 56 52 62 0 6
-27 -15 -60 -48 -33 -33 -60 -55 -60 -49 0 6 27 37 60 68 85 81 75 82 -15 1
-42 -37 -79 -65 -82 -61 -4 3 -1 6 5 6 7 0 12 5 12 11 0 6 -7 8 -17 5 -12 -5
-35 11 -81 56 -66 64 -53 38 19 -39 22 -24 36 -43 30 -43 -14 0 -122 122 -118
134 8 23 27 13 82 -44 l58 -61 82 78 c45 43 83 81 84 85 0 4 -23 29 -51 57
-29 27 -50 52 -46 56 3 3 27 -15 53 -42 54 -56 57 -45 4 14 -32 35 -42 40 -85
41 -49 2 -50 1 -114 -65 -64 -67 -45 -56 38 21 23 22 42 35 42 29 0 -6 -30
-36 -66 -68 -49 -44 -68 -55 -77 -46 -8 8 3 26 47 70 56 57 57 59 30 59 -20 0
-43 -14 -77 -47 -27 -25 -52 -47 -56 -49 -4 -1 -29 20 -54 47 -29 31 -54 49
-67 48 -11 -1 -20 -5 -20 -9z m79 -50 c27 -29 48 -55 45 -57 -6 -6 -104 90
-104 101 0 15 8 8 59 -44z m141 -3 c-30 -30 -58 -55 -63 -55 -5 0 15 25 44 55
29 30 57 55 63 55 6 0 -14 -25 -44 -55z m255 -63 c-5 -6 -99 96 -103 112 -2 6
22 -16 52 -48 31 -33 54 -61 51 -64z m-65 43 l55 -55 -66 -66 -66 -66 -56 59
-56 58 62 63 c34 34 64 62 67 62 3 0 30 -25 60 -55z m-305 -53 c-6 -7 -35 18
-35 31 0 5 9 2 20 -8 11 -10 18 -20 15 -23z m50 -3 c11 -16 1 -19 -13 -3 -7 8
-8 14 -3 14 5 0 13 -5 16 -11z m-85 -104 c-69 -70 -57 -72 17 -2 31 28 54 46
51 38 -2 -8 -31 -38 -64 -67 -55 -49 -60 -51 -59 -29 0 24 93 130 104 120 3
-3 -20 -30 -49 -60z m202 -60 c6 -11 -15 5 -46 35 -31 30 -56 59 -56 64 0 13
88 -73 102 -99z m-65 -82 l-57 -58 -57 58 -58 58 58 56 59 56 56 -56 57 -57
-58 -57z m-118 -15 c30 -32 50 -58 44 -58 -9 0 -37 29 -93 94 -43 50 -7 23 49
-36z m140 -5 c-47 -50 -49 -53 -14 -26 22 17 51 43 64 57 14 14 29 26 35 26 6
0 -20 -29 -57 -65 -56 -53 -71 -62 -82 -52 -11 10 -4 22 43 69 31 32 58 55 61
52 3 -2 -20 -30 -50 -61z"/>
<path d="M100 456 c24 -25 46 -46 48 -46 10 0 -66 84 -79 88 -8 3 6 -16 31
-42z"/>
<path d="M465 470 c16 -16 31 -28 33 -25 7 7 -39 55 -52 55 -5 0 3 -13 19 -30z"/>
<path d="M420 277 l-65 -71 72 59 c39 33 72 66 72 73 2 22 -13 11 -79 -61z"/>
<path d="M0 124 c0 -5 23 -32 50 -59 28 -27 50 -45 50 -39 0 5 -22 32 -50 59
-27 27 -50 45 -50 39z"/>
</g>
</svg>
