<?xml version="1.0" standalone="no"?>
<!DOCTYPE svg PUBLIC "-//W3C//DTD SVG 20010904//EN"
 "http://www.w3.org/TR/2001/REC-SVG-20010904/DTD/svg10.dtd">
<svg version="1.0" xmlns="http://www.w3.org/2000/svg"
 width="60.000000pt" height="52.000000pt" viewBox="0 0 60.000000 52.000000"
 preserveAspectRatio="xMidYMid meet">

<g transform="translate(0.000000,52.000000) scale(0.100000,-0.100000)"
fill="#000000" stroke="none">
<path d="M0 410 l0 -110 75 0 75 0 0 -40 0 -40 -75 0 -75 0 0 -110 0 -110 120
0 120 0 0 65 0 65 70 0 70 0 0 -65 0 -65 110 0 110 0 0 110 0 110 -65 0 -65 0
0 40 0 40 65 0 65 0 0 110 0 110 -110 0 -110 0 0 -65 0 -65 -70 0 -70 0 0 65
0 65 -120 0 -120 0 0 -110z m190 0 l0 -70 -70 0 -70 0 0 70 0 70 70 0 70 0 0
-70z m370 0 l0 -70 -65 0 -65 0 0 -30 c0 -29 -1 -30 -50 -30 -49 0 -50 1 -50
30 0 29 1 30 50 30 l50 0 0 70 0 70 65 0 65 0 0 -70z m-270 -100 c0 -29 -2
-30 -45 -30 -43 0 -45 1 -45 30 0 29 2 30 45 30 43 0 45 -1 45 -30z m0 -105
c0 -35 0 -35 -45 -35 -45 0 -45 0 -45 35 0 35 0 35 45 35 45 0 45 0 45 -35z
m138 -2 l3 -33 65 0 64 0 0 -60 0 -60 -65 0 -65 0 0 59 0 60 -47 3 c-37 2 -49
7 -51 21 -7 37 6 48 50 45 40 -3 43 -5 46 -35z m-238 -98 l0 -65 -70 0 -70 0
0 65 0 65 70 0 70 0 0 -65z"/>
</g>
</svg>
