<?xml version="1.0" standalone="no"?>
<!DOCTYPE svg PUBLIC "-//W3C//DTD SVG 20010904//EN"
 "http://www.w3.org/TR/2001/REC-SVG-20010904/DTD/svg10.dtd">
<svg version="1.0" xmlns="http://www.w3.org/2000/svg"
 width="147.000000pt" height="148.000000pt" viewBox="0 0 147.000000 148.000000"
 preserveAspectRatio="xMidYMid meet">

<g transform="translate(0.000000,148.000000) scale(0.100000,-0.100000)"
fill="#000000" stroke="none">
<path d="M656 1457 c-21 -32 -53 -172 -67 -291 -16 -148 -24 -163 -83 -157
-10 0 -51 26 -91 55 -87 66 -183 116 -236 123 -34 5 -39 3 -39 -15 0 -21 12
-39 137 -197 39 -50 78 -104 87 -122 16 -32 16 -32 -15 -61 -17 -16 -89 -64
-161 -108 -71 -43 -144 -91 -161 -106 l-32 -26 29 -12 c19 -7 94 -10 204 -9
184 2 191 0 192 -45 0 -11 -25 -82 -56 -157 -57 -142 -75 -209 -56 -209 15 0
63 40 173 146 151 144 202 139 224 -26 21 -163 44 -240 71 -240 30 0 49 78 72
305 6 60 10 70 27 73 12 2 71 -34 155 -94 192 -137 225 -148 195 -64 -17 48
-34 78 -110 195 -61 93 -85 138 -85 158 0 43 126 114 314 177 101 33 141 58
123 76 -14 14 -106 23 -253 23 -137 1 -154 3 -178 22 -14 11 -26 30 -26 42 0
12 28 78 61 147 74 150 99 220 99 272 0 31 -4 38 -19 38 -23 0 -219 -185 -273
-257 -42 -58 -83 -77 -103 -50 -6 9 -17 76 -23 149 -20 223 -54 310 -96 245z
m137 -568 c47 -13 106 -63 123 -106 20 -48 17 -112 -7 -152 -28 -47 -42 -59
-91 -81 -107 -49 -245 -4 -289 94 -24 53 -24 90 2 143 43 88 154 132 262 102z"/>
</g>
</svg>
