<?xml version="1.0" standalone="no"?>
<!DOCTYPE svg PUBLIC "-//W3C//DTD SVG 20010904//EN"
 "http://www.w3.org/TR/2001/REC-SVG-20010904/DTD/svg10.dtd">
<svg version="1.0" xmlns="http://www.w3.org/2000/svg"
 width="114.000000pt" height="247.000000pt" viewBox="0 0 114.000000 247.000000"
 preserveAspectRatio="xMidYMid meet">

<g transform="translate(0.000000,247.000000) scale(0.100000,-0.100000)"
fill="#000000" stroke="none">
<path d="M475 2460 c-3 -5 10 -30 30 -56 20 -26 43 -61 52 -78 14 -27 43 -119
43 -138 0 -16 -80 -19 -124 -4 -26 9 -65 16 -88 16 -35 0 -39 -2 -28 -15 7 -8
18 -15 24 -15 7 0 23 -11 36 -25 28 -30 89 -34 146 -10 31 13 36 13 41 -1 6
-16 -4 -164 -11 -172 -8 -7 -117 -6 -188 3 -73 8 -88 -1 -40 -26 16 -8 45 -23
65 -33 35 -19 37 -19 97 1 l62 20 -7 -36 c-3 -20 -15 -71 -27 -113 l-20 -78
-53 0 c-29 0 -70 7 -91 17 -79 33 -158 37 -133 7 6 -8 16 -14 22 -14 5 0 28
-16 50 -36 39 -36 41 -36 100 -29 34 3 68 10 78 15 14 8 13 -4 -9 -95 l-26
-104 -61 6 c-40 4 -80 17 -120 39 -69 38 -145 58 -160 43 -7 -7 -3 -14 10 -21
11 -7 43 -35 70 -63 45 -47 55 -53 106 -59 30 -4 75 -2 99 3 25 5 46 9 47 8 1
-2 -4 -32 -11 -67 -8 -36 -17 -90 -21 -120 -4 -30 -9 -58 -11 -61 -8 -13 -131
23 -169 50 -59 42 -121 71 -150 71 -33 0 -32 -11 4 -38 16 -12 39 -39 52 -61
29 -52 64 -66 171 -66 l86 0 1 -92 c0 -50 3 -102 6 -116 l6 -24 -86 19 c-53
11 -99 28 -119 43 -73 56 -216 106 -216 76 0 -6 16 -22 35 -37 20 -15 48 -47
62 -71 14 -24 39 -51 56 -60 40 -20 193 -30 236 -15 24 9 33 8 35 -1 9 -29 56
-261 53 -263 -1 -1 -45 4 -97 11 -76 10 -105 19 -146 44 -58 36 -176 80 -216
81 -42 0 -35 -26 15 -57 24 -14 59 -49 78 -76 45 -66 74 -77 202 -77 83 0 110
4 142 20 21 11 39 19 40 17 1 -1 17 -49 35 -107 18 -58 35 -109 36 -115 3 -6
-35 -11 -97 -13 -93 -2 -105 0 -170 29 -178 77 -385 75 -229 -3 30 -16 73 -48
95 -73 22 -24 53 -49 68 -55 65 -23 246 -1 314 40 20 12 37 20 38 18 6 -7 34
-149 41 -206 8 -71 9 -72 86 -41 102 41 203 69 251 69 l49 0 -80 87 c-43 49
-105 122 -137 163 l-57 75 45 6 c58 9 120 37 196 88 70 48 88 77 97 158 3 32
17 78 30 102 24 44 31 81 16 81 -38 0 -161 -132 -207 -222 -19 -36 -45 -61
-112 -109 -100 -71 -86 -77 -158 62 l-45 86 42 6 c23 3 79 24 125 47 89 44
107 65 119 139 4 23 20 59 35 81 26 36 38 70 24 70 -34 0 -138 -88 -195 -165
-25 -34 -58 -62 -103 -86 l-65 -36 -11 23 c-13 28 -51 176 -51 197 0 10 17 16
55 21 70 8 162 42 191 71 13 13 28 41 34 64 6 23 24 56 40 75 36 41 39 60 8
50 -47 -14 -80 -37 -146 -98 -46 -44 -86 -71 -129 -89 l-63 -25 0 82 c0 44 3
104 6 131 l6 50 37 -3 c46 -5 160 24 185 46 10 10 29 37 41 62 13 25 33 53 44
62 26 22 27 38 3 38 -22 0 -127 -62 -164 -97 -26 -25 -131 -66 -136 -54 -1 4
6 47 16 96 l18 89 45 2 c25 2 69 11 99 21 50 16 57 23 80 69 14 28 33 59 43
68 20 21 22 36 4 36 -18 0 -95 -50 -132 -86 -29 -28 -114 -68 -124 -59 -4 4
21 139 35 185 3 11 20 15 66 15 81 1 137 27 159 75 9 19 26 44 38 54 12 11 21
23 21 28 0 25 -87 -12 -142 -61 -36 -31 -121 -65 -126 -50 -2 5 1 31 6 57 6
26 13 63 16 82 6 32 10 37 50 48 62 16 126 78 126 121 0 18 7 45 15 60 8 16
12 31 8 34 -12 13 -43 -16 -86 -80 -25 -38 -59 -78 -75 -90 l-31 -23 -3 95
c-2 64 1 95 8 95 21 0 93 60 110 91 9 19 14 43 10 60 -3 16 -1 41 5 55 5 15 7
29 4 32 -11 11 -46 -35 -68 -90 -21 -50 -67 -118 -81 -118 -3 0 -6 8 -6 18 0
30 -56 133 -94 175 -34 36 -68 48 -81 27z"/>
</g>
</svg>
