<?xml version="1.0" standalone="no"?>
<!DOCTYPE svg PUBLIC "-//W3C//DTD SVG 20010904//EN"
 "http://www.w3.org/TR/2001/REC-SVG-20010904/DTD/svg10.dtd">
<svg version="1.0" xmlns="http://www.w3.org/2000/svg"
 width="150.000000pt" height="155.000000pt" viewBox="0 0 150.000000 155.000000"
 preserveAspectRatio="xMidYMid meet">

<g transform="translate(0.000000,155.000000) scale(0.100000,-0.100000)"
fill="#000000" stroke="none">
<path d="M263 1536 c-177 -57 -298 -247 -216 -338 44 -49 89 -55 228 -33 28 4
39 -6 190 -180 88 -101 161 -188 162 -192 2 -5 -72 -83 -164 -175 l-168 -168
-49 25 c-80 41 -163 33 -210 -19 -43 -49 -47 -108 -12 -181 50 -107 160 -209
252 -234 60 -16 138 9 165 52 26 41 22 125 -9 188 l-22 44 168 168 169 169
138 -159 c76 -87 145 -166 153 -175 13 -15 11 -23 -9 -65 -29 -61 -36 -146
-16 -195 23 -56 54 -71 135 -66 172 9 339 174 350 345 4 61 3 64 -32 99 -36
36 -37 36 -109 33 -52 -3 -87 -11 -125 -30 l-53 -26 -67 76 c-37 41 -81 91
-98 111 -78 87 -144 165 -144 170 0 3 71 77 159 164 l159 158 47 -27 c84 -50
193 -32 235 38 54 88 -13 292 -126 385 -43 36 -110 57 -153 47 -38 -8 -86 -47
-106 -86 -19 -36 -19 -115 0 -168 l14 -42 -171 -169 c-94 -93 -175 -167 -179
-164 -4 2 -74 79 -154 171 l-146 166 29 31 c40 42 52 68 52 114 0 43 -29 93
-73 126 -34 25 -134 32 -194 12z m130 -96 c48 -38 40 -106 -18 -144 -31 -20
-33 -18 86 -147 47 -52 132 -146 189 -211 l103 -116 26 19 c14 11 113 106 219
212 l193 192 -12 50 c-24 109 50 161 135 94 36 -28 86 -130 86 -174 0 -76 -80
-101 -144 -44 -20 17 -40 29 -45 27 -5 -1 -102 -94 -215 -206 -127 -126 -203
-208 -199 -215 4 -7 82 -95 173 -196 91 -102 179 -201 196 -220 l31 -34 45 21
c51 25 106 28 133 8 30 -21 24 -86 -11 -144 -54 -86 -178 -138 -223 -93 -28
28 -28 91 1 142 l22 39 -20 22 c-11 13 -83 93 -160 178 -76 86 -158 177 -181
204 -23 26 -46 46 -51 44 -5 -1 -106 -97 -224 -213 l-215 -210 24 -44 c39 -74
27 -127 -34 -145 -65 -20 -193 96 -193 175 0 71 59 98 135 62 l35 -17 37 35
c131 122 403 394 400 402 -1 5 -94 112 -206 237 -190 213 -205 228 -228 219
-39 -14 -110 -11 -127 7 -22 22 -20 72 6 109 54 80 174 119 231 75z"/>
</g>
</svg>
