<?xml version="1.0" standalone="no"?>
<!DOCTYPE svg PUBLIC "-//W3C//DTD SVG 20010904//EN"
 "http://www.w3.org/TR/2001/REC-SVG-20010904/DTD/svg10.dtd">
<svg version="1.0" xmlns="http://www.w3.org/2000/svg"
 width="250.000000pt" height="256.000000pt" viewBox="0 0 250.000000 256.000000"
 preserveAspectRatio="xMidYMid meet">

<g transform="translate(0.000000,256.000000) scale(0.100000,-0.100000)"
fill="#000000" stroke="none">
<path d="M1179 2532 c-19 -16 -59 -54 -91 -84 -76 -76 -101 -81 -222 -39 -163
55 -204 39 -250 -96 -54 -158 -66 -169 -209 -184 -166 -18 -197 -53 -177 -196
17 -122 14 -148 -20 -187 -17 -18 -61 -52 -99 -75 -132 -78 -141 -123 -50
-263 74 -114 74 -142 0 -257 -91 -142 -82 -187 58 -270 38 -22 81 -55 96 -73
l27 -32 -7 -131 c-8 -146 -3 -165 45 -190 15 -8 72 -20 126 -26 54 -6 111 -17
126 -25 32 -16 55 -59 88 -158 12 -37 35 -82 50 -100 36 -40 74 -39 199 4 127
43 139 40 251 -66 81 -76 93 -84 128 -84 43 0 67 16 164 112 76 76 101 81 222
39 163 -55 204 -39 250 96 54 158 66 169 209 184 166 18 197 53 177 196 -17
122 -14 148 20 187 17 18 61 52 99 75 132 78 141 123 50 263 -74 114 -74 142
0 257 91 142 82 187 -58 270 -38 22 -81 55 -96 73 l-27 32 7 131 c8 146 3 165
-45 190 -15 8 -72 20 -126 26 -54 6 -111 17 -126 25 -32 16 -55 59 -88 158
-12 37 -35 82 -50 100 -36 40 -74 39 -199 -4 -127 -43 -139 -40 -251 66 -81
76 -93 84 -128 84 -28 0 -49 -8 -73 -28z m181 -262 c239 -30 441 -131 606
-302 184 -192 277 -422 277 -688 0 -266 -93 -496 -277 -688 -394 -411 -1038
-411 -1432 0 -184 192 -277 422 -277 688 0 266 93 496 277 688 160 167 367
272 591 301 99 12 139 12 235 1z"/>
<path d="M911 2176 c-49 -17 -71 -50 -71 -103 0 -50 24 -109 51 -126 14 -9 3
-17 -74 -55 -73 -35 -107 -60 -162 -116 -125 -127 -174 -257 -182 -486 -6
-161 9 -286 53 -450 29 -111 48 -149 37 -75 -4 28 -7 95 -6 150 3 163 53 317
154 467 58 86 197 223 293 286 71 47 84 53 125 50 44 -3 46 -4 49 -37 5 -50
-67 -116 -178 -161 -138 -57 -203 -137 -151 -184 31 -28 88 -30 175 -7 66 17
83 19 105 8 70 -33 12 -109 -119 -152 -127 -42 -200 -112 -200 -190 0 -75 50
-87 165 -40 39 15 88 30 110 32 107 13 65 -82 -80 -177 -77 -50 -125 -100
-151 -155 -60 -127 1 -249 125 -249 67 0 151 42 187 92 31 43 60 62 98 62 32
0 48 -22 57 -82 12 -72 41 -100 112 -106 67 -5 120 11 147 45 24 31 27 114 6
155 -14 27 -14 27 50 63 197 111 335 281 380 470 12 53 15 99 11 190 -6 136
-31 239 -98 390 -38 88 -136 252 -144 243 -3 -2 2 -53 11 -114 8 -60 18 -204
21 -319 7 -240 -5 -331 -58 -444 -41 -89 -86 -141 -175 -200 -116 -78 -196
-92 -210 -37 -12 50 39 111 127 150 65 28 114 67 134 107 20 38 19 55 -5 79
-24 24 -66 26 -134 5 -65 -20 -102 -19 -153 5 -37 16 -43 23 -43 49 0 38 39
69 137 105 131 50 203 114 203 184 0 58 -84 72 -196 33 -73 -26 -110 -27 -123
-2 -19 35 33 114 171 257 160 166 180 208 139 284 -35 67 -136 97 -233 70 -42
-12 -98 -55 -98 -76 0 -21 -57 -80 -91 -95 -30 -12 -33 -11 -55 15 -13 15 -24
39 -24 54 0 50 -20 101 -51 126 -25 21 -41 26 -82 25 -29 0 -67 -6 -86 -13z"/>
</g>
</svg>
