<?xml version="1.0" standalone="no"?>
<!DOCTYPE svg PUBLIC "-//W3C//DTD SVG 20010904//EN"
 "http://www.w3.org/TR/2001/REC-SVG-20010904/DTD/svg10.dtd">
<svg version="1.0" xmlns="http://www.w3.org/2000/svg"
 width="150.000000pt" height="179.000000pt" viewBox="0 0 150.000000 179.000000"
 preserveAspectRatio="xMidYMid meet">

<g transform="translate(0.000000,179.000000) scale(0.100000,-0.100000)"
fill="#000000" stroke="none">
<path d="M350 1773 c-29 -10 -68 -39 -111 -82 -161 -161 -252 -495 -236 -871
7 -167 19 -250 53 -373 47 -167 105 -280 185 -358 63 -61 110 -82 192 -87 58
-4 75 0 122 22 58 29 129 101 172 173 l26 44 30 -52 c36 -64 111 -139 164
-164 21 -11 68 -21 106 -23 58 -4 75 0 122 22 132 65 239 252 296 518 26 121
37 430 20 576 -45 383 -206 648 -406 669 -107 11 -215 -55 -296 -179 l-37 -58
-42 66 c-44 67 -99 118 -160 149 -48 25 -144 29 -200 8z m169 -169 c66 -55
121 -190 121 -294 0 -114 -64 -255 -166 -366 l-53 -57 48 -56 c159 -184 209
-357 142 -497 -52 -111 -138 -168 -196 -130 -70 46 -152 250 -186 462 -19 117
-16 368 5 499 30 185 98 387 149 443 30 32 95 31 136 -4z m609 -8 c32 -37 59
-102 97 -233 78 -268 85 -587 19 -842 -27 -103 -98 -262 -133 -298 -66 -69
-157 -18 -224 125 -26 56 -29 71 -24 130 2 37 14 93 26 124 24 61 97 176 157
245 l36 43 -61 67 c-78 85 -138 202 -153 300 -9 60 -9 82 5 139 23 91 52 149
99 196 32 32 44 38 82 38 37 0 48 -5 74 -34z"/>
</g>
</svg>
