<?xml version="1.0" standalone="no"?>
<!DOCTYPE svg PUBLIC "-//W3C//DTD SVG 20010904//EN"
 "http://www.w3.org/TR/2001/REC-SVG-20010904/DTD/svg10.dtd">
<svg version="1.0" xmlns="http://www.w3.org/2000/svg"
 width="150.000000pt" height="141.000000pt" viewBox="0 0 150.000000 141.000000"
 preserveAspectRatio="xMidYMid meet">

<g transform="translate(0.000000,141.000000) scale(0.100000,-0.100000)"
fill="#000000" stroke="none">
<path d="M481 1390 c-84 -39 -118 -107 -107 -213 3 -33 15 -79 26 -104 11 -25
20 -47 20 -49 0 -2 -29 11 -66 28 -121 57 -249 47 -308 -23 -67 -80 -53 -221
31 -311 l25 -27 -21 -30 c-78 -110 -82 -249 -8 -313 60 -53 154 -48 277 14
l86 43 -28 -52 c-57 -103 -65 -221 -20 -282 59 -81 228 -80 315 2 l30 28 31
-30 c46 -45 112 -71 179 -71 90 0 153 41 178 117 16 49 6 157 -20 217 -14 31
-17 46 -9 43 116 -51 148 -60 208 -61 88 -1 140 28 175 98 14 27 25 63 25 80
0 51 -33 135 -68 177 l-34 40 20 22 c90 98 95 268 10 330 -59 43 -189 29 -304
-32 l-51 -28 28 61 c58 124 60 216 7 277 -35 40 -68 53 -133 53 -69 -1 -136
-26 -179 -68 l-27 -28 -20 26 c-27 34 -115 75 -175 82 -37 3 -60 0 -93 -16z
m157 -97 c32 -15 82 -66 82 -84 0 -5 -11 -7 -25 -3 -34 9 -75 -19 -75 -51 0
-32 33 -65 65 -65 19 0 25 -5 25 -21 0 -38 19 -59 53 -59 42 0 57 15 57 57 0
23 4 31 13 27 23 -9 66 14 72 39 8 29 -10 76 -31 84 -9 3 -30 1 -45 -4 -28
-11 -28 -10 -15 9 35 50 133 92 188 81 120 -24 41 -235 -167 -449 l-88 -89
-89 94 c-90 96 -155 191 -183 270 -51 145 29 226 163 164z m-302 -333 c70 -34
183 -121 252 -193 54 -55 54 -53 -62 -165 -128 -123 -264 -202 -346 -202 -94
0 -94 146 -1 234 l30 29 -11 -30 c-6 -16 -8 -38 -5 -47 8 -21 55 -39 84 -31
25 6 48 49 39 72 -4 9 5 13 29 13 35 0 55 20 55 56 0 26 -30 54 -57 54 -14 0
-23 6 -23 15 0 9 -7 29 -15 45 -30 59 -111 30 -103 -37 5 -41 -2 -41 -46 -3
-70 62 -84 166 -28 211 38 30 122 22 208 -21z m1048 18 c25 -36 20 -96 -14
-155 -17 -29 -39 -57 -50 -63 -18 -10 -19 -9 -10 15 11 30 0 59 -26 69 -48 19
-94 -5 -94 -50 0 -20 -5 -24 -29 -24 -31 0 -61 -30 -61 -60 0 -29 25 -51 57
-52 20 -1 30 -5 27 -13 -8 -21 15 -65 40 -77 20 -9 30 -8 52 7 23 15 26 22 21
56 -5 35 -3 38 13 29 56 -30 105 -124 93 -180 -9 -49 -47 -75 -107 -74 -61 2
-120 26 -208 85 -63 43 -218 190 -218 208 0 17 168 168 239 216 124 82 243
109 275 63z m-462 -524 c74 -94 111 -175 116 -247 4 -55 1 -65 -22 -89 -46
-51 -143 -33 -204 36 -37 42 -42 62 -12 46 27 -15 57 -4 77 26 15 24 15 27 -4
52 -13 17 -31 28 -51 30 -27 3 -32 7 -32 31 0 35 -17 51 -55 51 -38 0 -55 -16
-55 -52 0 -23 -4 -28 -23 -28 -49 0 -69 -34 -54 -92 9 -32 44 -45 77 -28 21
11 21 11 6 -13 -25 -37 -106 -77 -158 -77 -151 0 -83 221 138 447 l85 86 62
-59 c34 -33 83 -86 109 -120z"/>
</g>
</svg>
