<?xml version="1.0" standalone="no"?>
<!DOCTYPE svg PUBLIC "-//W3C//DTD SVG 20010904//EN"
 "http://www.w3.org/TR/2001/REC-SVG-20010904/DTD/svg10.dtd">
<svg version="1.0" xmlns="http://www.w3.org/2000/svg"
 width="150.000000pt" height="280.000000pt" viewBox="0 0 150.000000 280.000000"
 preserveAspectRatio="xMidYMid meet">

<g transform="translate(0.000000,280.000000) scale(0.100000,-0.100000)"
fill="#000000" stroke="none">
<path d="M509 2783 c-11 -12 -15 -73 -19 -256 l-5 -239 -60 -22 c-156 -56
-292 -173 -357 -306 -48 -98 -61 -154 -61 -275 0 -86 5 -113 32 -192 l31 -91
-18 -43 c-46 -108 -60 -274 -33 -389 29 -123 107 -247 208 -331 57 -47 169
-105 238 -123 l50 -12 5 -237 c3 -137 9 -240 15 -246 22 -21 61 -22 86 -3 24
20 24 21 27 241 l3 221 52 0 c29 0 82 3 120 7 l67 6 0 -224 c0 -123 4 -229 8
-235 9 -13 46 -34 62 -34 6 0 22 11 35 25 l25 24 0 235 0 234 38 12 c157 51
318 183 385 317 48 98 60 164 55 303 -4 96 -9 126 -32 183 l-28 68 21 52 c34
87 41 128 41 237 0 186 -48 307 -170 431 -59 60 -94 85 -166 121 -51 25 -110
49 -133 53 l-41 7 0 232 c0 216 -1 234 -19 250 -27 24 -82 18 -97 -11 -16 -33
-17 -1131 0 -1164 9 -20 23 -26 71 -32 111 -16 190 -45 251 -91 33 -25 65 -54
72 -66 13 -21 10 -26 -25 -62 -53 -55 -142 -95 -238 -109 -44 -6 -88 -18 -97
-27 -16 -14 -18 -41 -18 -307 l0 -292 -52 -7 c-29 -3 -83 -6 -120 -6 l-68 0 0
281 c0 258 -4 302 -26 328 -2 2 -41 9 -88 16 -95 14 -180 49 -243 101 -62 51
-70 70 -41 101 62 67 184 123 270 123 40 0 77 14 90 34 4 6 8 272 8 592 0 550
-1 582 -18 597 -24 22 -76 22 -93 0z m601 -657 c82 -39 175 -131 213 -209 54
-112 69 -260 36 -355 l-11 -31 -53 44 c-68 55 -162 100 -242 115 l-63 13 0
233 0 234 28 -6 c15 -4 56 -20 92 -38z m-620 -205 l0 -228 -65 -16 c-83 -21
-166 -62 -220 -109 l-43 -38 -11 30 c-50 146 0 341 119 460 49 49 180 130 211
130 5 0 9 -103 9 -229z m-163 -758 c39 -19 99 -40 132 -46 l61 -12 0 -233 0
-234 -27 6 c-58 14 -150 65 -200 110 -107 97 -157 212 -157 361 0 50 5 107 13
128 l13 37 46 -41 c26 -23 79 -57 119 -76z m1044 23 c33 -195 -71 -391 -257
-489 -40 -20 -77 -37 -83 -37 -8 0 -11 69 -11 229 l0 228 60 12 c74 15 187 72
231 117 39 41 43 36 60 -60z"/>
</g>
</svg>
