<?xml version="1.0" standalone="no"?>
<!DOCTYPE svg PUBLIC "-//W3C//DTD SVG 20010904//EN"
 "http://www.w3.org/TR/2001/REC-SVG-20010904/DTD/svg10.dtd">
<svg version="1.0" xmlns="http://www.w3.org/2000/svg"
 width="150.000000pt" height="200.000000pt" viewBox="0 0 150.000000 200.000000"
 preserveAspectRatio="xMidYMid meet">

<g transform="translate(0.000000,200.000000) scale(0.100000,-0.100000)"
fill="#000000" stroke="none">
<path d="M695 1987 c-65 -22 -99 -43 -141 -89 -35 -39 -49 -63 -68 -121 -3 -9
-11 -19 -18 -21 -136 -39 -201 -66 -265 -109 -279 -186 -270 -526 28 -1008 32
-53 59 -98 59 -101 0 -3 -14 -8 -30 -12 -48 -9 -128 -67 -160 -114 -72 -109
-59 -227 35 -319 88 -85 187 -103 291 -53 52 26 104 96 104 142 0 57 -68 87
-118 52 -12 -8 -22 -22 -22 -30 0 -27 -38 -54 -76 -54 -29 0 -44 8 -75 39 -32
32 -39 46 -39 77 0 81 61 134 154 134 36 0 47 -5 60 -26 20 -29 190 -231 270
-319 l54 -60 44 21 c62 30 145 110 239 228 130 163 123 156 166 156 51 0 102
-27 130 -69 44 -66 20 -141 -57 -176 -38 -17 -45 -18 -68 -4 -15 8 -32 26 -39
39 -16 32 -50 60 -73 60 -32 0 -70 -39 -70 -71 0 -127 179 -209 315 -145 232
108 200 424 -49 490 l-42 11 68 125 c79 145 140 294 175 430 21 81 24 112 21
216 -4 116 -5 125 -40 195 -59 119 -155 199 -300 248 -47 16 -53 22 -66 59
-20 60 -91 135 -154 162 -65 28 -184 36 -243 17z m185 -142 c14 -7 34 -22 44
-34 l19 -21 -120 0 c-66 0 -135 -3 -153 -6 -30 -7 -31 -6 -19 13 38 62 153 86
229 48z m172 -210 c132 -27 224 -88 268 -179 97 -196 -1 -533 -273 -941 -56
-83 -186 -255 -194 -255 -1 0 -3 160 -3 356 l0 355 29 -20 c41 -30 115 -42
174 -29 138 29 228 201 173 331 -22 55 -90 122 -148 147 -52 22 -159 31 -206
16 -22 -7 -22 -7 -22 116 l0 124 68 -4 c37 -2 97 -10 134 -17z m-352 -106 c0
-109 -2 -120 -17 -115 -9 4 -42 9 -73 13 -193 20 -355 -150 -306 -321 32 -111
110 -176 217 -184 67 -5 114 8 152 43 l27 26 0 -371 0 -371 -58 68 c-124 145
-265 346 -347 493 -101 183 -145 320 -145 451 0 104 17 159 70 220 73 85 275
161 448 168 l32 1 0 -121z m-32 -259 c32 -20 32 -20 32 -100 l0 -80 -25 10
c-28 11 -64 1 -83 -23 -7 -8 -24 -18 -37 -21 -76 -19 -142 86 -102 164 33 66
145 92 215 50z m390 -24 c33 -32 37 -42 37 -87 0 -45 -4 -54 -33 -80 -40 -36
-68 -37 -112 -4 -20 15 -47 25 -67 25 l-33 0 0 79 0 79 33 16 c22 11 49 15 85
13 46 -3 59 -9 90 -41z"/>
</g>
</svg>
