<?xml version="1.0" standalone="no"?>
<!DOCTYPE svg PUBLIC "-//W3C//DTD SVG 20010904//EN"
 "http://www.w3.org/TR/2001/REC-SVG-20010904/DTD/svg10.dtd">
<svg version="1.0" xmlns="http://www.w3.org/2000/svg"
 width="84.000000pt" height="150.000000pt" viewBox="0 0 84.000000 150.000000"
 preserveAspectRatio="xMidYMid meet">

<g transform="translate(0.000000,150.000000) scale(0.100000,-0.100000)"
fill="#000000" stroke="none">
<path d="M340 1470 c-27 -29 -28 -36 -29 -118 0 -48 0 -100 -1 -116 l0 -29
-131 5 c-117 4 -133 3 -155 -14 -17 -14 -24 -29 -24 -53 0 -53 34 -69 160 -74
17 -1 31 -11 42 -31 9 -17 30 -35 45 -41 38 -14 40 -20 42 -110 2 -88 9 -81
-87 -94 -85 -11 -142 -57 -142 -114 0 -22 46 -71 69 -72 9 -1 50 -3 91 -5 80
-4 100 -16 100 -59 0 -35 -20 -45 -88 -45 -116 0 -204 -35 -216 -87 -15 -58
25 -77 183 -87 78 -5 99 -10 118 -28 26 -24 30 -65 11 -118 -8 -25 -8 -45 2
-84 17 -68 43 -96 91 -96 47 0 64 17 85 85 14 45 15 61 6 93 -18 60 -15 96 11
120 19 18 40 23 118 28 158 10 198 29 183 87 -12 52 -100 87 -216 87 -68 0
-88 10 -88 45 0 43 20 55 100 59 41 2 82 4 91 5 23 1 69 50 69 72 0 57 -57
103 -142 114 -96 13 -89 6 -87 94 2 90 4 96 42 110 15 6 36 24 45 41 11 20 25
30 42 31 128 5 160 21 160 77 0 56 -32 72 -130 63 -41 -3 -100 -4 -130 -1
l-55 5 3 107 c3 81 0 113 -12 136 -18 36 -33 42 -98 42 -43 0 -54 -4 -78 -30z"/>
</g>
</svg>
