<?xml version="1.0" standalone="no"?>
<!DOCTYPE svg PUBLIC "-//W3C//DTD SVG 20010904//EN"
 "http://www.w3.org/TR/2001/REC-SVG-20010904/DTD/svg10.dtd">
<svg version="1.0" xmlns="http://www.w3.org/2000/svg"
 width="285.000000pt" height="276.000000pt" viewBox="0 0 285.000000 276.000000"
 preserveAspectRatio="xMidYMid meet">

<g transform="translate(0.000000,276.000000) scale(0.100000,-0.100000)"
fill="#000000" stroke="none">
<path d="M1985 2745 c-190 -31 -389 -106 -496 -189 -46 -35 -47 -35 -65 -15
-59 65 -244 139 -416 165 -151 23 -354 15 -471 -20 -257 -76 -430 -237 -509
-471 -20 -62 -23 -88 -22 -225 0 -138 3 -165 27 -245 38 -126 113 -270 256
-490 205 -316 259 -388 581 -771 194 -233 324 -368 419 -437 91 -67 103 -66
236 38 116 90 306 290 502 525 364 438 499 633 653 943 119 239 163 400 163
602 0 116 -2 139 -26 208 -67 193 -200 311 -414 368 -102 27 -294 33 -418 14z
m280 -224 c28 -6 24 -10 -75 -62 -163 -85 -217 -124 -335 -243 l-110 -111 -85
29 c-157 54 -387 39 -553 -36 -37 -17 -69 -29 -71 -27 -1 2 -23 33 -47 69 -67
101 -162 187 -292 265 -64 39 -117 73 -117 76 0 12 159 21 243 14 126 -10 258
-40 329 -74 82 -39 158 -104 158 -136 0 -14 12 -33 28 -45 22 -18 36 -21 77
-17 43 4 54 10 87 47 21 23 38 50 38 60 0 10 17 33 38 52 99 90 309 146 537
146 66 0 134 -3 150 -7z m349 -312 c20 -85 20 -134 1 -245 -37 -207 -124 -392
-334 -705 -83 -123 -159 -235 -169 -248 l-19 -23 -51 71 c-29 39 -52 75 -52
80 0 5 19 36 41 70 138 206 128 475 -25 686 -20 27 -36 55 -36 61 0 19 152
156 212 192 30 17 115 54 189 81 74 27 150 56 169 65 45 19 53 10 74 -85z
m-2295 62 c20 -16 97 -59 171 -96 167 -83 214 -117 294 -213 l64 -75 -29 -61
c-107 -230 -67 -516 101 -724 l50 -63 -39 -57 c-72 -107 -65 -107 -160 16
-107 137 -351 505 -429 644 -106 193 -153 389 -123 515 11 48 50 143 59 143 2
0 21 -13 41 -29z m1469 -662 c-13 -3 -79 -9 -147 -12 l-123 -7 6 70 c3 39 9
101 12 140 l6 70 134 -128 c120 -113 132 -127 112 -133z m-454 -38 c-6 -6
-284 -18 -284 -13 0 2 51 69 112 149 l113 145 32 -138 c18 -75 31 -140 27
-143z m454 -160 c-50 -63 -223 -260 -229 -260 -3 -1 -14 54 -23 122 -9 67 -20
132 -23 145 l-5 22 152 0 151 0 -23 -29z m-441 -23 c-3 -24 -11 -89 -18 -146
-7 -56 -17 -101 -22 -99 -6 2 -63 63 -127 137 l-118 135 61 6 c34 3 100 6 146
7 l84 2 -6 -42z m558 -578 l23 -25 -151 -175 c-168 -194 -322 -350 -345 -350
-23 0 -174 152 -298 300 l-112 135 53 55 c30 30 71 77 91 104 33 44 39 47 68
42 17 -4 64 -11 103 -17 119 -16 289 15 403 75 l44 24 49 -72 c27 -39 59 -82
72 -96z"/>
</g>
</svg>
