<?xml version="1.0" standalone="no"?>
<!DOCTYPE svg PUBLIC "-//W3C//DTD SVG 20010904//EN"
 "http://www.w3.org/TR/2001/REC-SVG-20010904/DTD/svg10.dtd">
<svg version="1.0" xmlns="http://www.w3.org/2000/svg"
 width="150.000000pt" height="126.000000pt" viewBox="0 0 150.000000 126.000000"
 preserveAspectRatio="xMidYMid meet">

<g transform="translate(0.000000,126.000000) scale(0.100000,-0.100000)"
fill="#000000" stroke="none">
<path d="M727 1242 c-23 -25 -21 -55 3 -77 35 -32 25 -49 -36 -63 -66 -16 -84
-7 -84 44 0 68 -53 83 -106 30 -54 -54 -38 -106 31 -106 19 0 36 -4 39 -9 3
-5 -11 -34 -31 -65 -41 -61 -71 -73 -88 -33 -14 32 -68 36 -89 5 -50 -70 23
-170 79 -108 10 11 26 20 37 20 14 0 18 -8 18 -40 0 -22 7 -57 15 -76 8 -20
13 -40 10 -45 -3 -4 -24 -7 -46 -6 -45 1 -59 -12 -59 -55 0 -33 36 -75 71 -83
33 -8 59 16 59 55 0 41 14 45 57 15 21 -14 56 -30 77 -36 l40 -11 -32 -25
c-45 -35 -43 -76 5 -102 72 -37 150 32 94 83 -27 25 -17 41 32 56 23 7 54 21
68 31 33 23 49 9 42 -36 -4 -27 -1 -36 20 -50 23 -14 29 -15 60 -1 77 32 75
126 -2 126 -44 0 -53 17 -32 59 10 20 22 51 26 69 5 22 12 32 26 32 10 0 19
-6 19 -13 0 -18 33 -47 53 -47 30 0 57 41 57 85 0 67 -48 97 -90 55 -30 -30
-66 -26 -73 8 -3 15 -17 43 -30 63 -30 45 -21 69 26 69 41 0 57 15 57 52 0 41
-40 78 -84 78 -40 0 -62 -27 -52 -64 3 -13 0 -30 -7 -40 -11 -16 -15 -15 -54
1 -49 20 -58 52 -20 68 32 14 36 68 5 89 -31 22 -91 21 -111 -2z m92 -256 c96
-50 114 -167 36 -235 -97 -85 -224 -56 -255 60 -20 73 17 155 84 185 35 16 93
11 135 -10z"/>
<path d="M1446 824 c-81 -160 -180 -300 -280 -399 -138 -136 -253 -189 -411
-189 -101 0 -158 15 -270 72 -135 70 -318 278 -437 498 -22 40 -42 74 -45 74
-3 0 -3 -53 0 -117 7 -147 33 -250 94 -373 38 -79 61 -110 133 -181 72 -73
101 -94 180 -132 312 -151 694 -78 905 172 116 137 174 299 182 506 3 72 4
138 2 148 -3 10 -23 -20 -53 -79z"/>
</g>
</svg>
