<?xml version="1.0" standalone="no"?>
<!DOCTYPE svg PUBLIC "-//W3C//DTD SVG 20010904//EN"
 "http://www.w3.org/TR/2001/REC-SVG-20010904/DTD/svg10.dtd">
<svg version="1.0" xmlns="http://www.w3.org/2000/svg"
 width="150.000000pt" height="71.000000pt" viewBox="0 0 150.000000 71.000000"
 preserveAspectRatio="xMidYMid meet">

<g transform="translate(0.000000,71.000000) scale(0.100000,-0.100000)"
fill="#000000" stroke="none">
<path d="M0 670 l0 -40 708 2 707 3 3 38 3 37 -710 0 -711 0 0 -40z"/>
<path d="M0 581 c0 -38 1 -40 35 -43 33 -3 40 -11 153 -188 l119 -185 -114 -3
-114 -3 3 -37 3 -37 708 -3 707 -2 0 39 c0 37 -2 40 -29 43 -27 3 -43 23 -149
188 l-119 185 106 5 106 5 3 38 3 37 -710 0 -711 0 0 -39z m300 -222 c63 -99
117 -184 118 -189 2 -6 -12 -10 -30 -10 -33 0 -37 5 -151 184 -64 101 -117
186 -117 190 0 3 15 6 33 6 31 0 37 -8 147 -181z m90 44 c47 -75 86 -142 88
-148 2 -7 -5 -22 -15 -33 -18 -22 -19 -21 -125 148 l-107 170 37 0 c37 -1 38
-2 122 -137z m91 42 c32 -49 58 -94 58 -100 0 -5 -7 -20 -17 -32 -17 -22 -17
-22 -75 70 -31 50 -67 107 -79 125 l-21 33 39 -3 c36 -3 41 -8 95 -93z m179
90 c0 -3 -21 -39 -47 -80 l-48 -74 -47 75 c-27 41 -48 77 -48 79 0 3 43 5 95
5 52 0 95 -2 95 -5z m118 -3 c-1 -4 -36 -61 -77 -125 l-75 -117 -18 29 -19 29
62 96 c59 91 64 96 96 96 19 0 33 -4 31 -8z m112 -13 c-7 -11 -13 -19 -14 -17
-1 1 -8 11 -15 21 -12 15 -11 17 13 17 24 0 26 -2 16 -21z m119 4 c-7 -10 -14
-20 -15 -21 -1 -2 -7 6 -14 17 -10 19 -8 21 16 21 24 0 25 -2 13 -17z m264
-167 c64 -101 117 -186 117 -190 0 -3 -15 -6 -32 -6 -32 1 -38 8 -148 181 -63
99 -116 185 -118 190 -2 5 12 9 30 9 34 0 37 -4 151 -184z m-438 133 l16 -30
-83 -130 c-83 -128 -83 -129 -100 -106 -10 12 -17 27 -15 32 2 10 160 264 164
265 1 0 10 -14 18 -31z m135 -29 c0 -3 -9 -16 -18 -28 l-18 -24 -18 26 c-16
25 -16 28 1 56 l17 29 18 -27 c10 -15 18 -29 18 -32z m283 -255 l27 -40 -26
-3 c-14 -2 -31 -1 -38 1 -12 5 -196 287 -196 301 0 4 7 18 16 31 l16 25 87
-138 c48 -75 99 -155 114 -177z m-357 190 c16 -24 14 -27 -52 -130 -63 -99
-69 -105 -101 -105 -40 0 -42 -5 44 129 30 47 62 96 69 109 18 28 20 28 40 -3z
m186 -108 l78 -122 -32 -3 c-36 -4 -38 -2 -117 124 -53 83 -53 84 -36 110 9
14 19 23 23 20 3 -3 41 -61 84 -129z m-93 -37 c28 -45 51 -83 51 -85 0 -3 -47
-5 -105 -5 -58 0 -105 2 -105 5 0 6 101 165 105 165 2 0 26 -36 54 -80z m-389
0 c0 -3 -9 -16 -19 -29 l-19 -24 -15 29 c-14 26 -14 32 1 56 l16 27 18 -27
c10 -15 18 -29 18 -32z m-75 -60 l16 -30 -31 0 c-16 0 -30 2 -30 5 0 7 23 55
26 55 2 0 10 -13 19 -30z m121 -28 c-9 -2 -25 -2 -36 0 -20 3 -20 4 -4 27 l17
24 20 -24 c17 -21 17 -24 3 -27z"/>
<path d="M80 35 l0 -35 710 0 710 0 0 35 0 35 -710 0 -710 0 0 -35z"/>
</g>
</svg>
