<?xml version="1.0" standalone="no"?>
<!DOCTYPE svg PUBLIC "-//W3C//DTD SVG 20010904//EN"
 "http://www.w3.org/TR/2001/REC-SVG-20010904/DTD/svg10.dtd">
<svg version="1.0" xmlns="http://www.w3.org/2000/svg"
 width="142.000000pt" height="240.000000pt" viewBox="0 0 142.000000 240.000000"
 preserveAspectRatio="xMidYMid meet">

<g transform="translate(0.000000,240.000000) scale(0.100000,-0.100000)"
fill="#000000" stroke="none">
<path d="M0 1200 l0 -1200 160 0 160 0 0 105 0 105 390 0 390 0 0 -105 0 -105
160 0 160 0 0 1200 0 1200 -160 0 -160 0 0 -85 0 -85 -390 0 -390 0 0 85 0 85
-160 0 -160 0 0 -1200z m1100 585 l0 -125 -390 0 -390 0 0 125 0 125 390 0
390 0 0 -125z m0 -570 l0 -125 -390 0 -390 0 0 125 0 125 390 0 390 0 0 -125z
m0 -565 l0 -120 -390 0 -390 0 0 120 0 120 390 0 390 0 0 -120z"/>
</g>
</svg>
