<?xml version="1.0" standalone="no"?>
<!DOCTYPE svg PUBLIC "-//W3C//DTD SVG 20010904//EN"
 "http://www.w3.org/TR/2001/REC-SVG-20010904/DTD/svg10.dtd">
<svg version="1.0" xmlns="http://www.w3.org/2000/svg"
 width="280.000000pt" height="300.000000pt" viewBox="0 0 280.000000 300.000000"
 preserveAspectRatio="xMidYMid meet">

<g transform="translate(0.000000,300.000000) scale(0.100000,-0.100000)"
fill="#000000" stroke="none">
<path d="M482 2975 c-251 -81 -443 -354 -459 -652 -14 -246 57 -425 240 -607
45 -45 121 -110 169 -145 l87 -63 -79 -59 c-287 -212 -424 -434 -437 -704 -7
-133 8 -202 67 -321 135 -270 371 -424 647 -424 115 0 228 22 310 61 73 35
153 117 178 184 l18 45 153 0 c84 0 158 2 166 5 8 3 23 -16 40 -54 69 -148
215 -225 449 -238 210 -11 373 51 519 197 155 154 229 306 238 485 12 277
-129 532 -420 758 -43 33 -78 61 -78 63 0 1 44 33 97 70 194 138 328 300 380
462 38 114 44 305 14 422 -66 260 -251 469 -466 525 -69 18 -191 20 -267 4
-29 -6 -95 -31 -146 -55 -194 -93 -332 -290 -332 -472 0 -41 -2 -44 -22 -38
-13 3 -82 6 -154 6 l-132 0 -11 78 c-32 218 -222 416 -457 476 -93 24 -223 20
-312 -9z m313 -216 c52 -15 118 -62 150 -110 36 -51 42 -107 20 -166 -23 -59
-119 -155 -203 -203 -34 -19 -62 -38 -62 -42 0 -14 96 -98 142 -123 50 -27
109 -35 169 -22 l36 7 36 -117 c98 -315 131 -484 131 -673 0 -157 -12 -234
-66 -420 -17 -58 -33 -115 -35 -127 -6 -28 -5 -28 -52 1 -47 30 -132 56 -183
56 -45 0 -228 -40 -228 -50 0 -4 24 -23 53 -43 116 -80 210 -199 223 -283 11
-74 -36 -149 -125 -202 -98 -58 -228 -18 -339 104 -69 75 -127 170 -149 243
-30 103 1 252 76 368 70 109 263 286 527 484 l134 101 -87 52 c-310 184 -540
372 -605 491 -49 92 -57 225 -21 355 62 227 270 371 458 319z m1469 -28 c208
-102 309 -427 201 -642 -54 -106 -249 -267 -520 -428 -82 -49 -158 -93 -168
-97 -10 -3 -17 -10 -15 -14 2 -5 46 -41 99 -82 233 -177 465 -394 537 -503 40
-61 69 -138 84 -224 21 -125 -25 -245 -146 -377 -152 -167 -294 -192 -414 -73
-73 71 -84 150 -36 239 30 56 137 161 210 207 24 15 44 30 44 33 0 3 -38 16
-85 29 -109 30 -226 27 -294 -8 -24 -12 -47 -19 -51 -14 -5 4 -24 67 -44 138
-102 369 -109 577 -31 880 42 160 100 331 111 328 5 -1 27 -9 49 -17 89 -33
177 -8 273 78 28 27 52 51 52 54 0 4 -26 23 -57 42 -77 48 -169 139 -193 191
-43 97 -14 177 92 258 68 51 200 52 302 2z"/>
</g>
</svg>
