<?xml version="1.0" standalone="no"?>
<!DOCTYPE svg PUBLIC "-//W3C//DTD SVG 20010904//EN"
 "http://www.w3.org/TR/2001/REC-SVG-20010904/DTD/svg10.dtd">
<svg version="1.0" xmlns="http://www.w3.org/2000/svg"
 width="150.000000pt" height="213.000000pt" viewBox="0 0 150.000000 213.000000"
 preserveAspectRatio="xMidYMid meet">

<g transform="translate(0.000000,213.000000) scale(0.100000,-0.100000)"
fill="#000000" stroke="none">
<path d="M648 2115 c-88 -22 -176 -62 -263 -120 -134 -88 -227 -203 -311 -379
-58 -123 -74 -195 -74 -342 0 -199 36 -357 105 -461 48 -73 179 -174 297 -231
54 -26 97 -50 98 -53 0 -3 -38 -75 -84 -160 l-85 -154 -53 3 c-59 3 -107 -19
-129 -59 -10 -20 -9 -21 7 -14 62 24 76 27 87 16 8 -8 8 -11 -2 -11 -17 0 -43
-67 -36 -91 6 -17 8 -17 31 10 51 62 123 61 176 -2 l27 -32 0 40 c0 22 -6 56
-13 75 -12 35 -10 39 72 195 46 88 85 161 86 163 2 1 46 -3 99 -10 67 -8 117
-9 166 -2 l70 10 17 -38 c10 -21 50 -100 90 -175 l73 -136 -15 -56 c-25 -97
-17 -114 28 -57 45 56 103 54 165 -7 l33 -31 0 36 c0 21 -9 46 -21 62 -28 36
-18 43 33 23 49 -20 59 -15 32 14 -33 37 -74 52 -124 46 l-46 -6 -96 176 -96
175 46 25 c249 132 462 425 462 634 0 90 -8 98 -40 42 -31 -53 -71 -95 -56
-58 34 81 44 176 18 175 -4 -1 -19 -18 -34 -40 -15 -21 -36 -43 -46 -49 -19
-10 -19 -9 -6 36 17 55 18 82 4 118 l-10 27 -46 -61 c-119 -159 -369 -281
-574 -281 -177 0 -301 76 -374 230 -27 57 -31 75 -31 150 1 115 27 180 108
266 67 72 115 104 202 134 123 42 209 23 298 -66 62 -62 82 -72 179 -88 20 -4
58 -22 85 -41 55 -40 117 -75 133 -75 17 0 11 36 -19 112 -16 40 -36 102 -45
138 -31 122 -101 198 -224 243 -74 27 -288 34 -374 12z"/>
</g>
</svg>
