<?xml version="1.0" standalone="no"?>
<!DOCTYPE svg PUBLIC "-//W3C//DTD SVG 20010904//EN"
 "http://www.w3.org/TR/2001/REC-SVG-20010904/DTD/svg10.dtd">
<svg version="1.0" xmlns="http://www.w3.org/2000/svg"
 width="146.000000pt" height="144.000000pt" viewBox="0 0 146.000000 144.000000"
 preserveAspectRatio="xMidYMid meet">

<g transform="translate(0.000000,144.000000) scale(0.100000,-0.100000)"
fill="#000000" stroke="none">
<path d="M700 1433 c-49 -18 -82 -85 -95 -195 -6 -46 -39 -108 -62 -116 -7 -2
-18 8 -24 22 -9 20 -8 44 6 114 21 101 16 138 -21 154 -24 11 -29 9 -55 -19
-51 -58 -62 -147 -32 -259 18 -68 15 -86 -20 -108 -27 -17 -37 9 -37 102 0
106 -17 152 -58 152 -94 0 -107 -163 -23 -290 16 -25 30 -54 32 -65 4 -31 -10
-63 -31 -70 -34 -11 -60 17 -81 88 -24 82 -68 137 -110 137 -64 0 -75 -80 -24
-180 36 -71 78 -115 135 -139 54 -23 70 -44 70 -90 0 -28 -3 -31 -33 -31 -27
0 -41 10 -84 59 -56 63 -94 83 -131 70 -18 -7 -22 -16 -22 -49 0 -23 6 -53 14
-68 40 -76 163 -152 248 -152 40 0 50 -4 67 -29 20 -28 20 -28 1 -46 -19 -17
-22 -17 -79 9 -67 30 -88 32 -135 12 -87 -36 -22 -136 100 -151 70 -9 152 1
196 25 34 18 34 18 72 -5 l37 -23 -27 -21 c-15 -12 -39 -24 -53 -28 -127 -30
-153 -129 -33 -127 55 1 144 42 167 78 33 50 125 60 125 14 0 -12 -22 -44 -50
-74 -38 -40 -50 -60 -50 -84 0 -64 73 -62 147 4 42 36 58 66 72 138 14 64 27
79 73 81 30 2 33 -1 36 -30 2 -21 -6 -48 -22 -76 -30 -51 -33 -97 -8 -120 25
-23 44 -21 77 5 57 45 77 130 52 218 -7 25 -12 52 -10 61 5 22 44 42 74 37 30
-4 39 -35 32 -113 -4 -51 -2 -64 17 -88 27 -34 55 -32 84 6 16 22 20 42 20
100 -1 82 -17 122 -65 160 -23 18 -30 29 -25 45 8 24 32 35 53 23 9 -4 30 -37
47 -72 34 -69 67 -96 107 -86 26 7 49 43 49 78 0 37 -30 78 -78 105 -121 70
-150 102 -120 132 21 21 49 13 89 -23 49 -44 103 -48 137 -12 51 54 7 123 -96
153 -31 9 -79 23 -106 32 -57 17 -105 57 -88 74 18 18 96 10 155 -17 73 -34
121 -31 125 7 4 35 -46 92 -111 125 -52 26 -55 26 -187 7 -38 -5 -48 -3 -63
14 -42 46 22 99 99 82 96 -23 137 -5 114 50 -16 40 -63 63 -121 62 -56 -1
-101 -19 -153 -61 -38 -30 -79 -40 -91 -22 -3 5 2 28 11 50 14 36 22 43 60 52
57 15 84 48 84 103 0 50 -13 66 -55 66 -46 0 -105 -47 -161 -128 -51 -74 -86
-102 -128 -102 -59 0 -39 69 42 147 45 42 53 56 49 76 -10 36 -70 57 -117 40z
m204 -351 c35 -16 82 -46 104 -66 41 -38 102 -123 102 -144 0 -9 -41 -12 -143
-12 l-144 0 -50 130 c-28 71 -49 131 -47 133 11 11 123 -15 178 -41z m-240
-44 c-19 -46 -42 -100 -51 -120 -8 -21 -19 -38 -24 -38 -20 0 -244 -31 -247
-35 -2 -2 46 -45 107 -95 61 -51 111 -96 111 -100 0 -9 -91 -273 -97 -279 -10
-13 -89 84 -121 148 -36 72 -37 79 -37 180 0 98 2 111 32 173 32 67 92 142
147 181 39 28 143 66 183 66 l32 1 -35 -82z m475 -248 c21 -98 10 -185 -35
-275 -27 -53 -90 -135 -103 -135 -8 0 -111 222 -111 239 0 10 221 220 232 221
3 0 11 -23 17 -50z m-326 -1 c24 -30 22 -105 -3 -147 -25 -40 -81 -66 -125
-58 -86 16 -107 132 -37 199 52 50 126 52 165 6z m30 -340 c67 -39 126 -74
130 -79 5 -4 -11 -19 -35 -33 -124 -72 -285 -75 -416 -8 -24 12 -42 27 -40 32
3 8 225 158 236 159 1 0 57 -32 125 -71z"/>
</g>
</svg>
