<?xml version="1.0" standalone="no"?>
<!DOCTYPE svg PUBLIC "-//W3C//DTD SVG 20010904//EN"
 "http://www.w3.org/TR/2001/REC-SVG-20010904/DTD/svg10.dtd">
<svg version="1.0" xmlns="http://www.w3.org/2000/svg"
 width="150.000000pt" height="164.000000pt" viewBox="0 0 150.000000 164.000000"
 preserveAspectRatio="xMidYMid meet">

<g transform="translate(0.000000,164.000000) scale(0.100000,-0.100000)"
fill="#000000" stroke="none">
<path d="M1196 1609 c-218 -82 -494 -108 -711 -68 -33 6 -102 24 -153 41 -52
16 -96 27 -99 25 -2 -3 19 -34 47 -68 28 -35 72 -107 99 -159 124 -243 125
-353 4 -436 -46 -32 -63 -38 -106 -38 -132 0 -215 140 -159 267 51 115 194
109 208 -9 11 -85 -64 -137 -114 -79 -26 30 -34 31 -57 5 -18 -20 -18 -21 1
-48 11 -15 38 -36 59 -46 35 -17 42 -18 78 -5 107 38 142 187 65 275 -40 45
-77 64 -128 64 -111 0 -202 -108 -202 -240 0 -102 54 -189 144 -234 97 -49
209 -25 296 62 l40 40 7 -71 c4 -40 2 -116 -4 -169 -6 -54 -11 -99 -11 -102 0
-3 -24 19 -52 47 -109 108 -268 118 -366 24 -68 -65 -98 -173 -73 -264 39
-144 211 -225 309 -146 48 38 72 87 72 146 0 58 -17 94 -64 135 -45 39 -93 49
-134 28 -62 -32 -93 -104 -54 -125 22 -12 40 -2 56 30 17 36 65 37 96 4 20
-21 25 -37 25 -77 0 -42 -4 -53 -28 -74 -91 -78 -233 43 -213 181 13 87 75
146 158 152 44 4 63 -1 107 -24 80 -41 95 -67 100 -169 2 -53 -2 -97 -10 -117
-25 -64 -109 -227 -150 -292 -23 -36 -39 -68 -37 -70 3 -3 45 4 94 14 314 68
621 67 857 -4 32 -9 60 -15 62 -13 3 2 -14 31 -37 63 -22 33 -65 111 -96 173
-60 125 -74 200 -53 279 22 80 130 143 220 128 106 -18 170 -147 125 -253 -47
-113 -172 -143 -219 -52 -47 90 64 207 113 120 19 -33 35 -42 56 -34 24 9 25
30 5 72 -13 25 -32 45 -50 53 -113 46 -225 -61 -205 -196 10 -63 73 -130 132
-140 173 -28 315 196 230 363 -30 59 -90 115 -141 132 -92 30 -242 -16 -293
-91 -15 -21 -30 -38 -33 -39 -11 0 -18 59 -25 203 l-7 137 39 -36 c115 -109
256 -112 361 -8 76 76 98 159 68 260 -38 128 -162 196 -263 145 -46 -23 -67
-46 -87 -94 -54 -130 64 -277 179 -222 40 19 70 64 60 89 -9 22 -47 20 -69 -4
-44 -49 -110 -7 -110 70 0 48 26 86 70 100 93 31 182 -92 153 -209 -8 -30 -25
-59 -54 -87 -76 -77 -176 -69 -264 21 -41 42 -44 49 -48 108 -3 49 2 80 23
142 47 137 101 232 244 426 17 24 12 23 -83 -12z m-534 -295 c40 -3 99 0 160
10 54 9 99 16 102 16 2 0 -5 -26 -16 -57 -37 -111 -52 -246 -52 -473 -1 -238
16 -384 59 -512 13 -40 23 -73 22 -75 -2 -1 -19 2 -38 8 -44 14 -274 14 -318
0 -19 -6 -36 -9 -37 -8 -2 2 8 26 22 55 57 120 68 187 68 442 0 202 -3 253
-22 360 -20 108 -43 203 -59 248 -4 9 1 10 21 2 14 -5 54 -12 88 -16z"/>
</g>
</svg>
