<?xml version="1.0" standalone="no"?>
<!DOCTYPE svg PUBLIC "-//W3C//DTD SVG 20010904//EN"
 "http://www.w3.org/TR/2001/REC-SVG-20010904/DTD/svg10.dtd">
<svg version="1.0" xmlns="http://www.w3.org/2000/svg"
 width="73.000000pt" height="150.000000pt" viewBox="0 0 73.000000 150.000000"
 preserveAspectRatio="xMidYMid meet">

<g transform="translate(0.000000,150.000000) scale(0.100000,-0.100000)"
fill="#000000" stroke="none">
<path d="M120 1495 c0 -5 51 -59 113 -122 129 -130 184 -215 215 -333 4 -14 7
-55 7 -92 0 -59 -3 -70 -31 -105 -45 -55 -72 -65 -217 -74 -71 -5 -136 -14
-143 -20 -8 -6 -14 -8 -14 -3 0 4 -11 -3 -25 -16 -54 -50 -17 -133 73 -166 54
-20 74 -34 49 -34 -39 0 -82 -65 -68 -103 10 -25 65 -57 98 -57 10 0 -9 -14
-42 -30 -66 -34 -75 -43 -75 -80 0 -32 24 -53 81 -72 l44 -15 -47 -7 c-27 -4
-48 -11 -48 -17 0 -5 -6 -9 -14 -9 -15 0 -26 -21 -31 -61 -3 -19 4 -34 21 -50
25 -24 28 -24 282 -27 303 -4 318 -2 327 37 14 66 -19 101 -120 127 -24 6 -26
8 -10 11 61 12 125 52 125 79 0 26 -52 74 -93 85 l-42 12 48 16 c48 17 87 52
86 81 0 35 -64 80 -114 80 -37 0 -31 15 18 43 54 32 102 78 129 125 31 52 38
245 13 324 -16 52 -45 118 -55 128 -3 3 -14 18 -24 35 -38 59 -83 105 -152
155 -26 19 -53 41 -61 48 -7 7 -13 11 -13 7 0 -3 -12 2 -27 13 -76 53 -263
115 -263 87z"/>
</g>
</svg>
