<?xml version="1.0" standalone="no"?>
<!DOCTYPE svg PUBLIC "-//W3C//DTD SVG 20010904//EN"
 "http://www.w3.org/TR/2001/REC-SVG-20010904/DTD/svg10.dtd">
<svg version="1.0" xmlns="http://www.w3.org/2000/svg"
 width="150.000000pt" height="142.000000pt" viewBox="0 0 150.000000 142.000000"
 preserveAspectRatio="xMidYMid meet">

<g transform="translate(0.000000,142.000000) scale(0.100000,-0.100000)"
fill="#000000" stroke="none">
<path d="M646 1404 c-3 -9 -6 -51 -6 -95 l0 -79 -36 0 c-30 0 -37 4 -49 33 -7
18 -31 53 -53 77 l-40 45 -93 3 c-53 2 -107 -1 -123 -7 -24 -10 -27 -15 -22
-37 11 -42 51 -72 110 -81 35 -6 63 -18 89 -41 23 -20 22 -29 -5 -38 -159 -49
-320 -182 -382 -314 -29 -60 -31 -73 -31 -175 0 -103 2 -114 31 -175 59 -123
142 -202 289 -276 49 -25 91 -47 93 -49 2 -2 -5 -17 -17 -34 -21 -29 -32 -32
-80 -16 -35 11 -95 -26 -120 -74 -11 -20 -10 -26 8 -45 30 -29 181 -36 246
-12 40 16 97 68 136 124 11 14 22 20 33 16 13 -5 16 -21 16 -80 l0 -74 104 0
c119 0 116 -2 116 90 0 44 4 59 16 64 31 12 44 5 63 -32 11 -20 36 -53 56 -72
35 -34 38 -35 128 -38 102 -3 144 10 139 44 -4 26 -64 79 -94 82 -12 1 -32 4
-43 6 -11 3 -23 5 -27 5 -10 1 -38 31 -38 42 0 5 6 9 14 9 27 0 191 90 243
132 64 53 116 121 151 196 24 51 27 69 27 167 0 102 -2 115 -31 175 -36 77
-116 167 -193 219 -56 37 -163 91 -182 91 -14 0 18 58 39 69 10 5 33 7 51 5
89 -14 180 87 111 123 -41 21 -203 17 -249 -7 -37 -18 -131 -113 -131 -131 0
-5 -11 -9 -25 -9 -25 0 -25 1 -25 79 0 115 4 111 -110 111 -80 0 -99 -3 -104
-16z m-6 -725 l0 -409 -22 4 c-179 39 -308 131 -372 266 -27 56 -31 76 -31
145 0 71 4 89 33 147 37 76 115 154 196 196 58 30 177 71 189 65 4 -2 7 -189
7 -414z m318 395 c137 -46 255 -141 308 -249 25 -51 29 -72 29 -140 0 -87 -11
-124 -58 -194 -53 -78 -106 -121 -217 -177 -42 -21 -62 -27 -132 -40 l-28 -5
0 415 0 415 25 -5 c15 -2 47 -12 73 -20z"/>
</g>
</svg>
