<?xml version="1.0" standalone="no"?>
<!DOCTYPE svg PUBLIC "-//W3C//DTD SVG 20010904//EN"
 "http://www.w3.org/TR/2001/REC-SVG-20010904/DTD/svg10.dtd">
<svg version="1.0" xmlns="http://www.w3.org/2000/svg"
 width="150.000000pt" height="179.000000pt" viewBox="0 0 150.000000 179.000000"
 preserveAspectRatio="xMidYMid meet">

<g transform="translate(0.000000,179.000000) scale(0.100000,-0.100000)"
fill="#000000" stroke="none">
<path d="M319 1757 c-138 -71 -239 -257 -296 -542 -25 -129 -25 -511 0 -640
57 -285 158 -471 296 -542 138 -72 277 -24 382 132 24 35 46 64 49 64 3 0 25
-29 49 -64 105 -156 244 -204 382 -132 138 71 239 257 296 542 25 129 25 511
0 640 -57 285 -158 471 -296 542 -138 72 -277 24 -382 -132 -24 -35 -46 -64
-49 -64 -3 0 -25 29 -49 64 -105 156 -244 204 -382 132z m217 -150 c39 -26 84
-94 113 -170 33 -89 35 -86 -79 -89 l-100 -3 82 -108 c77 -101 81 -110 63
-120 -34 -18 -84 -79 -96 -115 -27 -83 11 -198 81 -241 l30 -18 -90 -106 -91
-107 125 0 c146 0 139 7 101 -107 -60 -177 -171 -267 -258 -210 -55 36 -141
230 -179 407 -26 115 -31 399 -10 520 30 167 98 378 144 443 41 57 101 66 164
24z m576 -5 c49 -45 119 -244 155 -435 21 -116 24 -399 4 -507 -18 -101 -66
-250 -107 -331 -61 -122 -106 -155 -175 -126 -40 16 -100 80 -127 134 -19 37
-62 165 -62 185 0 5 46 8 110 7 60 -1 110 1 110 5 0 3 -34 52 -76 107 l-76
100 45 48 c90 96 89 204 -3 293 l-48 46 89 105 c49 58 89 108 89 111 0 3 -47
6 -105 6 -58 0 -105 4 -105 8 0 5 9 35 20 67 63 182 175 258 262 177z m-318
-566 c119 -50 87 -216 -42 -216 -130 0 -166 163 -47 216 38 17 49 17 89 0z"/>
</g>
</svg>
