<?xml version="1.0" standalone="no"?>
<!DOCTYPE svg PUBLIC "-//W3C//DTD SVG 20010904//EN"
 "http://www.w3.org/TR/2001/REC-SVG-20010904/DTD/svg10.dtd">
<svg version="1.0" xmlns="http://www.w3.org/2000/svg"
 width="300.000000pt" height="261.000000pt" viewBox="0 0 300.000000 261.000000"
 preserveAspectRatio="xMidYMid meet">

<g transform="translate(0.000000,261.000000) scale(0.100000,-0.100000)"
fill="#000000" stroke="none">
<path d="M1712 2473 l3 -138 463 -3 462 -2 0 -400 0 -400 180 0 180 0 0 540 0
540 -645 0 -646 0 3 -137z"/>
<path d="M0 2065 l0 -535 200 0 200 0 0 400 0 400 458 2 457 3 3 133 3 132
-661 0 -660 0 0 -535z"/>
<path d="M442 1288 l3 -203 433 -3 432 -2 0 205 0 205 -435 0 -435 0 2 -202z"/>
<path d="M1730 1280 l0 -200 433 2 432 3 3 198 2 197 -435 0 -435 0 0 -200z"/>
<path d="M0 535 l0 -535 658 2 657 3 3 143 3 142 -466 0 -465 0 0 390 0 390
-195 0 -195 0 0 -535z"/>
<path d="M2630 680 l0 -390 -460 0 -460 0 0 -145 0 -145 645 0 645 0 0 535 0
535 -185 0 -185 0 0 -390z"/>
</g>
</svg>
