<?xml version="1.0" standalone="no"?>
<!DOCTYPE svg PUBLIC "-//W3C//DTD SVG 1.1//EN" "http://www.w3.org/Graphics/SVG/1.1/DTD/svg11.dtd">
<svg xmlns="http://www.w3.org/2000/svg">
<metadata>Generated by Fontastic.me</metadata>
<defs>
<font id="adinkra" horiz-adv-x="512">
<font-face font-family="adinkra" units-per-em="512" ascent="480" descent="-32"/>
<missing-glyph horiz-adv-x="512" />

<glyph glyph-name="akofen" unicode="&#98;" d="M121 432c-52-12-99-67-116-133-3-11-5-24-5-29 0-9 2-8 27 17 61 61 123 83 174 61 25-10 26-13 14-30-9-13-10-14-27-15-40-1-60-40-38-71 7-9 7-9 0-22-4-9-8-13-16-13-34-4-49-31-32-59 7-10 7-13 4-27-5-16-2-30 5-33 7-2 21 13 23 27 2 9 5 12 9 12 33 0 51 37 31 62-7 8-7 9 0 19 5 9 8 10 24 12 37 3 54 28 42 61l-6 17 10 10 9 10 13-13 12-11-6-13c-8-15-8-24-1-40 7-15 30-27 48-25 11 2 12 1 18-11 6-11 6-13 2-17-9-7-14-28-8-39 5-12 24-25 35-25 6 0 8-3 10-13 3-16 11-25 21-25 10 0 13 14 7 35-4 15-4 16 4 25 7 8 8 12 6 25-2 18-13 29-34 34-10 1-15 5-20 13-6 10-6 10 3 27 9 17 9 32 0 46-6 10-28 20-44 20-14 0-15 1-26 17l-10 17 12 8c20 13 37 17 64 15 42-3 85-27 130-74 21-22 22-22 22-12 0 16-11 50-24 76-27 55-73 89-120 89-35 0-56-9-87-39l-26-26-23 23c-36 34-72 47-110 37z m272-28c6-6 7-8 1-14-11-11-31 2-21 14 7 7 13 8 20 0z m-255-3c7-8 1-19-11-18-12 2-17 11-12 18 6 7 16 7 23 0z m210 0c5-7 0-17-11-17-11 0-16 10-11 17 3 3 8 5 11 5 3 0 8-2 11-5z m-164-3c6-8 0-17-10-17-11 0-17 9-11 17 3 3 7 5 11 5 3 0 7-2 10-5z m246-23c6-9-4-18-14-13-9 4-10 10-3 17 5 5 13 4 17-4z m-330-3c2-4 1-8-1-10-5-6-19-2-20 5-2 12 18 17 21 5z m55-205c11-16 4-29-14-29-13 0-25 9-25 19 0 17 29 25 39 10z m231 1c11-9 11-18 1-27-8-8-22-9-30-1-11 10-6 26 11 33 8 3 9 2 18-5z"/>
<glyph glyph-name="akokonan" unicode="&#99;" d="M285 511c0 0 10-10 21-22 48-51 71-98 64-132-6-28-25-47-62-65-27-12-43-14-59-6-37 18-31 73 12 102l14 9-8 5c-12 8-40 8-64 1-32-11-54-35-69-77l-7-21-16 0c-8 0-23-1-32-2-16-2-16-2-21-13-6-15-8-47-4-60 2-5 6-13 10-18 6-7 8-8 28-8 33-1 32 0 40-29 12-47 30-76 55-86 24-11 71-7 83 6 5 5 4 5-8 13-12 8-25 20-34 31-5 8-8 25-5 36 10 39 77 42 116 6 16-14 21-29 19-52-2-31-20-67-52-107l-18-23 14 2c41 5 91 24 114 44 16 14 31 38 37 60 10 36 2 91-19 138-4 9-7 18-7 19 0 1 3 7 7 11 3 5 10 18 15 28 8 16 9 23 10 45 2 45-12 79-48 114-35 34-72 52-107 52-10 0-19 0-19-1z"/>
<glyph glyph-name="akoma-ntoso" unicode="&#100;" d="M332 502c-12-6-29-18-38-27-15-16-28-34-28-38 0-2 11-10 25-19 14-8 26-17 27-18 1-2-6-17-17-33l-18-30-24 0c-18-1-26-3-38-10l-15-8-33 20c-32 20-33 21-28 28 2 4 6 10 7 12 1 3 7 12 12 20 6 8 10 15 9 16-5 4-35 18-47 22-23 8-67 6-83-2-53-28-58-89-12-140 15-16 39-35 44-35 2 0 8 10 16 22 23 39 19 38 55 16l32-20 0-23c1-19 3-27 10-40l9-16-8-11c-4-6-12-20-18-30-7-10-12-19-13-20 0 0-14 7-30 17-16 9-30 16-32 15-3-1-14-24-21-43-3-6-5-25-5-42 0-28 1-33 9-47 6-10 16-21 26-27 21-13 53-14 81-1 19 9 50 38 60 56l6 10-25 17c-15 8-26 17-26 18 0 1 9 16 20 33 19 30 19 31 30 29 14-3 43 4 53 13l9 6 31-19c17-10 30-20 30-21 0-1-3-7-7-12-14-19-27-43-25-47 7-10 58-27 84-27 24 0 53 10 65 23 15 16 20 29 20 54 0 35-16 63-55 94-9 7-17 13-19 13-2 0-10-12-19-27l-16-27-30 18-30 19 0 21c0 17-2 25-9 38l-10 17 20 31c10 17 20 31 20 32 1 1 7-2 14-7 28-18 42-27 43-26 5 4 19 39 24 55 24 81-41 143-112 108z"/>
<glyph glyph-name="ananse-ntontan" unicode="&#101;" d="M224 492c-19-5-22-8-22-25 0-15 6-40 21-91 7-24 12-47 12-50 0-12-10-21-20-19-5 1-12 9-38 46-50 70-77 102-85 102-6 0-23-12-39-28-18-19-28-36-26-44 3-10 35-30 114-72 23-12 42-24 43-26 4-6 2-12-4-16-6-3-11-2-60 4-66 9-103 10-111 5-6-4-9-14-9-37 0-22 5-47 11-59 4-6 6-8 11-9 11-1 35 7 92 30 34 14 56 21 61 21 10 0 21-5 23-12 3-13 0-17-39-52-42-38-67-63-72-73-3-7-3-8 0-14 1-3 9-11 16-18 23-21 56-38 65-33 5 3 14 22 31 70 25 68 33 84 51 92 9 4 14 4 20-1 9-7 12-16 17-56 9-68 17-96 27-105 4-4 6-5 18-4 10 1 18 3 33 10 20 10 40 26 40 33 0 5-13 24-39 56-24 30-42 57-46 68-3 9-1 17 4 19 10 4 17 1 60-24 45-27 79-45 89-47 9-2 16 5 25 22 12 25 17 61 11 70-6 7-33 11-96 13-70 2-84 4-84 16 0 9 10 17 48 37 74 39 106 60 109 71 2 10-17 45-33 61-11 10-18 13-25 9-6-3-47-44-82-83-27-28-37-37-47-37-8 0-12 4-15 14-1 5 0 19 9 68 5 35 10 69 10 77l0 15-8 3c-9 4-60 6-71 3z m50-208c14-8 20-18 20-34 0-32-41-48-66-25-26 22-9 62 27 62 7 0 14-1 19-3z"/>
<glyph glyph-name="asase-ye-duru" unicode="&#102;" d="M233 500c-9-7-27-23-41-35-66-58-103-114-103-153 0-19 6-32 22-47l13-14-9-8c-20-16-30-47-23-74 9-42 57-97 129-149 36-26 35-26 66-2 60 49 105 99 125 141 7 14 8 20 9 35 1 11 0 22-1 26-4 11-15 25-25 32l-9 7 12 11c6 6 13 16 17 22 5 10 6 13 6 33 0 18-1 24-6 34-19 43-76 101-145 147-13 9-18 8-37-6z m39-38c62-46 105-95 114-126 3-11 3-28 0-36-4-9-15-21-27-26-28-13-65-1-78 26-6 14-4 20 13 27 17 7 27 3 32-14 4-15 23-15 31 0 7 15-8 41-28 46-18 5-43-2-66-19l-9-6-10 10c-18 18-38 24-59 16-22-8-42-30-42-46 0-7 1-8 5-10 11-4 20 1 27 16 3 4 7 9 11 11 8 4 8 4 17 1 5-3 11-8 15-12 12-14 11-26-2-35-33-22-78-13-90 18-11 28 8 67 59 118 19 19 61 58 64 58 1 0 11-8 23-17z m-2-222l-8-9-7 9c-5 6-13 14-24 21 0 0 4 5 9 9l10 9 15-15 14-14z m-72 0c13-5 21-11 29-23 9-13 9-23-1-28-20-13-32-11-39 7-4 11-4 11-13 12-25 2-27-32-3-50 7-5 9-6 25-6 15 0 18 1 34 9 9 4 18 11 21 14l5 5 11-11c20-21 42-26 66-14 32 14 50 54 25 54-10 0-17-5-22-17-3-8-12-14-20-14-10 0-32 21-32 32 0 15 23 27 52 28 18 1 19 0 31-8 38-25 26-70-35-133-19-20-59-57-67-62-8-4-84 59-110 93-26 31-37 61-30 81 3 9 15 22 25 28 14 7 33 9 48 3z"/>
<glyph glyph-name="fihankra" unicode="&#103;" d="M65 500c-8-8-8-12-4-26 3-8 11-15 29-27 25-16 31-24 28-38-2-13-18-9-49 12-48 33-69 39-69 22 0-10 5-19 21-38 27-31 38-80 38-166l1-62-25-49c-26-52-32-71-23-83 4-7 5-7 17 0 7 4 20 16 30 26 25 30 48 39 52 22 3-12 0-19-22-46-25-30-27-41-9-41 6 0 22 6 36 12 45 20 82 29 127 31 50 2 83-4 142-27 53-21 81-21 81-2 0 3-10 13-23 23-27 19-34 28-37 46-2 12-1 12 8 12 6 0 17-6 32-18 12-10 26-20 31-23 10-8 25-8 31-1 4 6 5 5-16 36-16 25-28 52-36 82-7 24-7 34-6 73 3 57 14 95 45 158 20 38 20 52 3 54-11 1-14-2-41-30-28-30-36-35-44-27-9 9-4 21 16 44 16 17 21 26 21 34 1 21-12 22-53 1-40-19-76-29-121-31-57-3-120 12-172 42-25 13-30 14-39 5z m199-131c24 0 52 1 62 2l17 3-11-18c-17-25-15-37 8-37 8 0 14 3 22 12 10 10 10 10 8 2-11-44-11-119-1-151 3-9 5-18 4-19-1-1-6 1-12 3-14 6-25 3-30-7-4-8-4-12 1-24 3-7 5-14 4-15 0-1-9 1-19 4-32 8-84 7-141-4l-10-2 11 18c12 22 12 25 3 34-10 10-21 8-39-7-8-8-16-14-16-14-1 0 0 11 1 25 4 33 4 94 0 139-1 19-2 36-2 36 0 0 7-4 16-10 11-7 18-9 28-9 18 2 22 8 15 28l-5 15 21-2c11-1 41-2 65-2z"/>
<glyph glyph-name="aya" unicode="&#104;" d="M189 506c-15-7-19-17-9-23 7-5 7-5 0-5-8 0-25-15-25-22 0-9 15-10 27-1 11 7 14 8 24 5 22-6 45-25 45-38 0-7 0-7-9-1-35 23-69 24-93 4-8-7-9-9-5-14 7-8 16-7 29 3 18 13 39 10 67-11 9-7 11-11 11-22l0-14-16 13c-18 13-49 24-64 21-7-1-19-5-27-9-13-6-16-10-17-18-3-17 14-19 32-3 8 7 15 10 23 10 15 0 45-14 59-27 9-8 11-12 9-22l-1-13-10 9c-26 23-68 32-96 21-29-11-39-34-16-36 9-1 14 1 21 8 14 13 25 16 45 10 10-3 27-11 37-18 17-12 18-12 18-29l0-17-10 9c-13 13-48 29-66 32-21 2-50-6-65-19-10-9-10-10-7-18 7-11 22-11 34 0 15 15 26 17 48 13 11-2 46-21 56-29 7-7 10-12 10-20 0-6-1-12-2-13-3-2-29 14-29 19 0 2-2 2-4 1-2-1-3-1-3 1 0 3-15 10-36 15-22 5-46 2-68-9-32-15-35-36-6-36 10 0 16 2 26 12 13 12 14 12 34 11 26-2 53-15 78-38 5-4 6-11 6-24l0-17-16 14c-19 16-47 30-72 35-23 5-48 0-72-14-28-16-30-39-4-41 11-1 15 1 29 14 15 14 17 15 35 14 11 0 26-2 35-6 15-5 49-26 53-33 1-1-5-3-14-5-52-6-74-14-94-33-28-28-36-52-24-76 10-21 27-28 62-26 47 3 83 28 95 63l4 10 4-8c11-25 34-47 59-54 2 0 3-1 4-1 7-6 50-7 66-1 12 5 29 19 30 25 0 1 0 5 1 10 3 17-8 43-25 60-22 21-46 30-88 32l-34 2 17 12c21 15 39 23 62 29 22 4 37 0 51-15 9-10 24-13 37-8 9 3 7 20-2 28-39 33-99 29-152-11l-16-12 0 16c0 18 2 20 23 34 21 14 44 23 63 25 20 1 21 1 33-11 14-14 22-17 34-13 10 4 12 15 5 25-14 18-58 28-85 20-9-2-17-4-18-5-6-1-34-18-42-25-12-9-16-6-16 12 0 10 2 13 15 21 8 5 15 11 16 12 1 2 3 3 4 3 2 0 9 2 15 6 8 3 22 5 33 6 18 0 21-1 28-9 10-12 18-14 28-10 6 3 9 7 9 14 0 8-3 11-18 19-35 18-76 11-115-20l-13-11-1 12c-2 11 1 15 12 25 16 16 39 27 60 29 15 1 18 0 28-9 6-6 15-10 22-11 9 0 11 1 13 8 3 11 0 15-19 25-31 15-63 10-101-18l-20-15 0 17c0 15 2 17 12 25 34 26 66 32 82 16 10-11 16-12 27-7 6 4 7 16 1 22-8 7-44 16-56 14-12-2-43-17-58-27-8-6-8-6-8 6 0 10 3 14 12 21 29 22 55 27 68 13 8-9 28-9 30 0 2 9-20 24-37 25-19 2-33-2-53-15-20-12-20-12-20-3 0 10 25 33 42 38 12 4 14 3 24-3 17-13 39-7 25 8-21 21-57 17-83-9l-11-11 0 13c0 10 2 16 8 21 22 19 40 23 48 11 6-9 23-9 23 0 0 11-16 21-33 21-18 0-27-4-39-18-10-12-10-12-21-2-20 19-45 24-62 14z m41-14c18-10 24-18 22-31-2-11-2-11-9-5-11 10-31 21-43 23l-10 2 7 9c9 10 16 10 33 2z m14-380c0-4-2-16-5-27-10-34-36-55-69-55-13 0-18 2-26 10-15 15-12 33 6 50 13 12 28 19 54 25 33 7 40 6 40-3z m97-1c22-8 37-21 41-35 6-24-8-39-38-39-32 0-59 28-68 69l-3 15 26-3c15-1 34-4 42-7z"/>
<glyph glyph-name="fofo" unicode="&#105;" d="M231 506c-22-14-26-45-8-64 9-9 9-11 9-46 0-38-3-45-16-45-15 0-62 53-59 68 4 21-20 48-43 48-24 0-47-27-42-52 4-17 16-29 35-34 15-4 20-7 34-24 32-40 32-50-1-46-39 4-52 8-61 19-18 22-46 23-64 2-19-21-13-55 12-67 15-7 24-6 42 3 15 7 15 7 41 1 37-9 48-14 48-22 0-9-8-15-42-29-27-11-29-11-58-8-14 1-20 1-27-4-26-17-26-59 1-73 6-3 17-6 25-6 12 0 16 2 26 12 7 7 12 15 12 17 0 7 49 28 68 28 14 1 14 1 14-9 0-6-7-25-15-42-13-25-18-32-26-35-38-16-41-63-5-79 19-9 35-5 49 9 11 13 14 24 9 41-3 12-2 16 9 37 18 37 29 52 38 55 5 1 11 1 13 0 7-5 30-88 24-91-1-1-4-8-7-16-9-37 29-65 63-47 28 14 28 59 0 73-10 6-15 18-24 62-5 24-4 29 7 32 14 3 68-37 71-54 1-6 8-16 14-23 10-9 15-12 25-12 41 0 61 46 33 74-10 10-17 12-40 11-10-1-21 6-58 36-8 6-17 19-17 24 0 1 2 4 6 7 4 5 13 6 41 6 35 0 38-1 52-11 32-23 69-5 69 35 0 35-48 54-72 28-5-6-10-7-38-6-69 0-73 5-41 45 30 37 34 41 54 41 4 1 12 6 18 12 10 10 12 15 12 27 0 27-17 46-42 46-24 0-42-19-42-44 0-14-18-39-46-63-13-11-18-13-23-10-8 5-10 16-11 56 0 30 1 36 7 41 18 17 17 44-2 61-14 13-35 15-51 5z m42-213c11-5 21-24 21-36 0-12-10-31-20-37-11-7-34-8-45-2-11 6-22 24-22 38 0 14 8 30 18 37 10 7 35 7 48 0z"/>
<glyph glyph-name="bese-saka" unicode="&#106;" d="M55 497c-23-11-36-25-47-48-8-17-9-23-7-52 1-27 3-36 12-56 14-30 36-57 62-76l21-15-18-11c-24-16-51-48-64-75-9-19-12-30-13-52-2-26-1-32 7-48 11-25 24-38 48-49 17-8 23-9 52-7 30 1 36 3 61 15 29 14 67 47 78 67 4 7 8 13 9 13 1 0 5-6 9-13 11-20 49-53 78-67 25-12 31-14 61-15 29-2 35-1 52 7 24 11 37 24 48 49 8 16 9 22 7 48-1 22-4 33-13 52-13 27-40 59-64 75l-18 11 21 15c26 19 48 46 62 76 9 20 11 29 12 56 2 29 1 35-7 52-11 24-24 37-49 48-16 8-22 9-48 7-24-1-34-3-54-13-32-16-71-54-85-85-6-12-11-22-12-22-1 0-6 10-12 22-15 31-53 69-85 85-21 10-29 12-56 13-26 1-33 0-48-7z m75-50c44-22 76-65 79-108 1-13 0-23-1-23-5 0-37 34-47 49-5 6-8 16-8 22 0 24-29 34-50 16-21-18-10-51 17-51 17 0 73-50 67-60-4-6-26-8-43-2-27 8-49 24-69 51-37 48-42 92-14 112 12 9 46 6 69-6z m321 6c28-20 23-64-14-112-20-27-42-43-69-51-17-6-41-4-41 2 0 6 32 38 50 49 9 6 21 11 26 11 24 0 32 31 13 50-18 19-44 11-48-14-1-7-7-19-12-27-11-17-47-48-51-46-2 1-3 12-2 25 4 48 48 100 99 115 15 5 40 4 49-2z m-177-159c32-9 42-43 20-65-16-16-38-19-60-9-36 15-37 56-2 72 18 8 24 8 42 2z m-84-80c6-2 5-5-8-21-17-21-52-46-63-44-4 0-12-3-17-7-21-16-5-57 21-57 13 0 26 11 28 25 4 18 14 33 39 56 23 22 25 23 28 16 10-21-15-71-48-97-77-61-146-37-117 40 19 50 73 92 118 92 6 0 15-2 19-3z m197-10c40-20 75-66 78-106 2-22-2-32-18-41-23-14-60-5-99 23-37 27-60 70-55 100 2 12 2 12 12 7 24-12 61-59 61-76 0-25 35-33 53-13 15 18 5 48-18 48-5 0-17 5-28 14-21 16-50 49-47 54 4 6 41 0 61-10z"/>
<glyph glyph-name="funtunfunefu" unicode="&#107;" d="M238 480l-20-33 5-34c8-47 8-48-3-45-18 4-34 14-40 24-3 6-6 11-6 12 0 1 7 2 15 2 16 0 23 5 23 16 0 24-54 25-67 1-16-30 9-69 54-85l20-7-20-20-19-20-6 17c-11 34-40 61-64 61-22 0-42-29-36-52 2-11 14-18 20-13 2 2 5 3 6 2 1-1 4 5 7 14l4 16 10-8c9-7 17-21 23-40 3-11 2-11-6-10-6 1-16 3-23 4-8 2-21 4-30 6-15 3-17 2-48-13-38-19-38-16 5-39l25-14 39 5c22 3 40 5 40 4 2-1-12-36-17-42-5-7-16-15-23-18-6-2-7-1-6 14 1 20 0 21-14 22-13 2-21-8-21-29 0-20 6-31 21-39 13-7 13-7 31 0 28 9 43 26 56 60l6 20 22-20 22-19-14-4c-29-9-45-35-40-65 4-27 42-45 57-28 3 4 6 9 6 11 0 5-13 16-19 16-2 0-6 3-8 5-10 12 12 33 34 33 6 0 7-2 7-15 0-8-4-27-8-44-7-26-7-31-3-46 2-9 6-16 8-17 1-1 3-4 3-6 0-3 1-5 3-5 2 0 4-3 5-7 2-4 5-7 9-7 6 0 7 2 5 8-10 40-10 61 0 72 10 10 22 37 22 50 0 8 1 13 1 13 1 0 9-3 17-6 21-9 22-19 2-25-7-2-13-5-13-6 0-1-1-6-2-11-3-22 27-23 49-3 26 24 14 64-23 77-8 4-16 7-17 7-1 1 6 10 15 20l17 20 3-10c7-24 34-45 56-46 13 0 30 11 38 24 9 17 9 21-2 30-8 7-9 7-17 2-4-3-9-8-10-12-2-7-14-8-23-1-7 4-13 22-13 35 0 6 2 7 15 7 8 0 22-2 31-5 27-8 53-6 73 5 28 15 28 24 0 18-30-7-46-5-67 8-11 6-25 12-32 13l-13 3 5 12c9 20 22 25 22 9 1-13 7-20 18-20 13 0 18 9 15 28-2 21-17 35-40 35-21 0-33-11-46-38l-9-20-20 20-20 19 20 9c51 23 71 73 39 92-13 8-32 11-42 7-8-3-9-5-9-15 1-16 2-16 20-19l15-3-14-13c-12-12-43-29-47-25-2 2 0 11 8 59l4 24-17 32c-10 17-18 31-19 31 0 0-9-15-20-32z m51-180c9-9 10-16 3-16-3 0-7-1-10-2-5-2-6 1-6 12 0 8 1 14 2 14 1 0 6-4 11-8z m-48-21c-2-6-29-8-29-3 0 4 14 17 21 19 5 2 11-9 8-16z m74-37c-1-3-5-6-8-7-4-1-9-6-13-12l-6-11-3 13c-3 21-3 21 15 21 13 0 17-1 15-4z m-73-4c0-2 1-12 2-21 1-13 1-15-2-9-1 4-11 13-20 19-15 9-17 11-11 13 11 4 31 3 31-2z"/>
<glyph glyph-name="gye-nyame" unicode="&#108;" d="M166 503c-14-13-10-49 7-61 1-1-3-4-10-7-16-7-50-33-50-39 0-3-3-5-5-6-3-2-4-4-3-6 1-1 0-3-1-3-4 0-17-26-21-41-1-5-2-9-2-9 1 0-2-7-4-17-11-33-5-154 9-190 1-4 2-9 2-10-1-7 1-11 4-11 2 0 3 10 1 27-1 25 1 53 10 90 5 19 37 86 43 88 3 1 5 3 5 6 0 2 14 17 31 34 27 26 33 30 43 30 30 0 12-34-29-54-37-19-51-43-33-55 11-7 25-9 35-3 12 8 27 9 34 1 6-6 6-7-1-15-7-9-13-13-41-26-15-8-34-24-34-31 0-1-1-4-3-5-3-3-3-17 0-28 3-11 14-12 33-2 9 5 23 10 30 10 12 2 14 1 14-4 0-9-17-33-30-41-15-10-31-29-38-44-5-13-6-23-5-50 1-2 5-8 11-13 11-11 27-14 43-8 11 5 26 18 26 23 0 6 12 14 21 14 10 0 13-5 13-20 0-5 3-14 7-19 7-8 10-9 28-9 17 0 21 1 27 10 7 8 8 12 6 32-2 22-2 22 9 30 14 9 46 40 56 54 10 13 25 43 31 64 6 20 6 101 0 127-6 25-18 61-25 73-3 5-5 10-4 10 0 1-4 10-9 21-14 29-18 22-12-20 5-45 6-157 0-177-3-9-5-17-5-19-1-8-10-28-15-33-3-4-4-7-3-7 2 0-5-8-15-17-10-10-19-18-19-17-1 1-5-2-10-6-11-10-31-10-32 1 0 14 14 30 38 45 29 16 37 48 15 54-4 1-16 0-25-3-16-5-19-5-30 0-10 4-13 7-13 14 0 9 13 25 21 26 6 1 9 2 20 8 16 8 34 28 37 39 1 4 1 12 0 17-2 8-4 9-20 7-10-1-26-3-34-6-24-7-27-2-15 22 5 11 11 22 13 24 2 2 8 10 14 17 5 7 14 18 19 23 16 18 18 21 23 36 5 15 5 17-2 31-10 20-28 29-48 23-15-4-31-16-31-22 0-9-17-28-25-29-7-1-9 1-12 12-3 8-5 17-5 21 0 5-2 13-5 18-6 9-8 10-27 10-16 0-21-1-28-9z"/>
<glyph glyph-name="bi-nka-bi" unicode="&#109;" d="M293 445c-5-4-8-12-9-23-2-13-1-19 10-39 12-24 15-34 10-34-6 0-14 12-30 44-19 38-24 44-36 44-23 0-27-25-8-48 16-19 23-37 15-37-2 0-12 8-23 18-30 27-56 33-61 14-3-12 1-18 13-25 19-10 27-18 27-26l0-8-54 1c-41 0-58-1-75-5-25-7-56-22-64-31-8-9-10-37-3-45 8-7 14-7 38 5 13 6 22 8 24 6 1-1-6-10-16-19-21-19-27-30-27-47 0-17 8-29 19-29 13 0 37 25 51 53 13 26 21 33 17 16-2-10-14-32-31-56-14-20-16-38-4-60 6-12 9-16 17-17 20-2 34 23 39 67 4 32 9 42 19 41 7-1 8-4 10-30 3-38 12-73 21-89 13-20 40-29 51-18 9 9 6 24-8 53-13 26-14 34-7 34 1 0 11-15 21-34 20-35 27-42 39-46 11-4 25 6 25 16 0 18-14 39-31 48-11 5-16 15-11 19 7 7 18 0 37-25 18-22 36-36 45-36 8 0 18 13 18 25 0 11-6 19-25 31-8 4-10 7-9 16 2 16 13 19 43 13 84-16 98-16 119-3 17 10 27 40 20 59-3 7-20 6-38-1-35-16-43-10-15 11 25 19 34 31 34 46 0 16-11 31-22 31-11 0-39-29-51-51-6-12-10-17-12-15-5 5 3 23 21 45 16 21 20 34 17 55-4 20-14 32-28 33-20 2-31-19-37-68-2-15-6-30-8-33-13-13-21 9-18 45 3 25-2 70-10 86-13 27-33 36-49 23z m-47-143c8-3 7-9-3-18-18-17-5-26 45-33 43-6 54-10 55-22 2-11-12-22-36-29-17-5-45-6-45-2 0 2 7 8 15 14 17 12 20 22 8 28-4 3-28 5-59 6-54 2-63 5-63 19 0 10 9 21 21 28 17 8 51 14 62 9z"/>
<glyph glyph-name="boa-me-na-me-mmoa-wo" unicode="&#110;" d="M234 507c-22-11-32-42-19-63l4-7-49 0c-28 0-50-1-50-2 0 0 7-10 16-21l15-20-11-12c-42-46-57-121-36-186 6-21 19-45 33-62l13-14-16-21c-9-11-16-21-16-22 0 0 22-1 48-1l49 0 0-75 88 0 0 75 44 0c24 0 44 1 44 2 0 1-7 10-15 21l-15 20 13 15c20 24 35 57 40 89 4 19 3 55-1 74-6 31-21 61-39 82-6 7-9 11-8 13 1 2 9 11 17 22 8 10 14 19 14 20 0 2-16 3-52 3l-53 0 5 8c11 18 3 47-16 60-12 8-33 9-47 2z m54-139l0-32-65 0 0 64 65 0z m-69-64c19-25 34-47 34-49 0-3-68-91-70-91-4 0-15 17-23 33-19 40-18 90 4 128 6 12 17 26 19 26 0 0 16-21 36-47z m128 22c22-40 23-90 3-131-9-19-20-33-23-30-1 1-17 22-35 46-20 27-32 44-31 46 2 3 50 65 63 81 7 9 7 9 11 5 3-2 8-10 12-17z m-68-153c21-16 20-45-2-60-14-10-39-5-48 10-11 16-9 33 4 46 12 12 33 14 46 4z"/>
<glyph glyph-name="hwe-mu-dua" unicode="&#111;" d="M75 478l0-34 146 0 0-95-221 0 0-235 71 0 0 174 19-1 17-1 1-110 1-110-65 0 0-65 426 0 0 65-79 0 0 221 45 0 0-170 75 0 0 232-222 0 0 92 71 0 71 1 1 35 1 35-358 0z m146-277l0-87 68 0 0 173 41 0 0-221-153 0 0 221 44 0z"/>
<glyph glyph-name="hye-won-hye" unicode="&#112;" d="M231 494c-13-25-18-27-43-14-16 8-21 9-40 9-19 0-24-1-40-9-26-12-38-22-47-39-7-13-8-18-9-44-2-34 3-60 19-107l10-32-6-15c-16-37-24-68-24-99 0-20 1-25 8-39 10-22 30-47 46-60 33-25 62-23 107 5l11 6 6-7c4-4 12-16 18-28 6-12 11-20 12-19 1 1 3 9 6 17 6 23 15 37 24 38 4 0 17-5 33-13 26-14 28-15 45-13 34 1 61 22 80 59 10 18 11 23 12 44 2 37-9 69-37 108-12 17-12 18-7 25 10 15 23 45 30 64 9 28 10 68 3 91-10 28-31 55-52 66-19 10-48 8-87-4-37-13-37-13-56 13-6 8-12 15-12 15-1 0-5-8-10-18z m-73-60c29-19 41-46 53-114 6-35 8-96 4-125-7-60-26-100-53-114-14-7-26-5-40 8-20 18-23 25-21 56 1 27 8 57 13 57 1 0 5-11 9-23 7-24 16-37 23-37 2 0 8 2 13 5 19 11 19 40 0 83-6 12-11 23-11 25-1 1 4 6 10 11 14 10 24 27 24 41 0 26-16 55-30 55-3 0-11-6-19-13-8-8-16-14-18-14-28 0-27 67 3 100 8 9 24 8 40-1z m215-7c21-14 43-48 43-67 0-15-20-29-33-22-3 1-9 9-13 16-14 22-22 23-38 4-7-8-8-12-8-22 0-15 12-42 29-61l12-14-10-9c-23-18-27-44-10-75 11-23 23-32 29-24 2 3 7 16 11 29 8 26 10 28 22 21 13-9 16-38 8-74-4-17-6-21-12-24-21-10-55 0-73 21-11 14-23 49-33 97-5 28-7 42-7 75 0 62 11 96 38 124 17 17 26 18 45 5z m-113-82c6-33 7-41 7-106 0-72-4-114-10-108-3 3-10 54-12 97-4 63 2 141 10 136 2-1 4-9 5-19z"/>
<glyph glyph-name="dame-dame" unicode="&#113;" d="M221 510c-57-9-110-53-140-114-21-45-29-82-29-138 0-44 2-60 13-96 21-73 72-131 135-153 21-8 64-10 88-6 76 15 136 77 164 169 7 24 7 28 7 84 0 56 0 60-7 84-9 29-23 60-36 78-31 47-83 82-131 91-14 3-50 3-64 1z m19-91c0-15 0-16-9-17l-9 0-1-37 0-37-15-1-15-1 0-17-1-18-53 0 0-19-31 0 2 14c8 64 54 125 107 141 9 2 17 5 18 5 7 2 7 1 7-13z m49 11c22-6 43-18 60-34 31-29 50-67 56-110l2-14-30 0 0 19-24 1-25 1 0 17-1 18-30 0-1 37-1 37-12 0-12 1 0 16c0 8 1 15 2 15 1 0 9-2 16-4z m-21-81l0-19-22 0 0 37 22 0z m-78-93l0-15-20 0 0 31 20 0z m159-1l0-14-19 0 0 28 19 0z m-211-24l0-11 52 0 0-49 31 0 0-33 1-33 9 0c9-1 9-2 9-14 0-7 0-12-2-12-7 0-38 12-50 18-39 23-74 79-80 129l-2 15 31 0z m267-7c-9-66-55-123-114-141-19-6-20-6-20 8l0 13 12 1 12 0 1 33 1 33 30 0 0 47 25 1 24 1 1 11 1 10 29 0z m-134-73l0-16-25 0 0 33 25 0z"/>
<glyph glyph-name="denkyem" unicode="&#114;" d="M230 506c-11-8-22-26-25-45-3-19 11-57 25-67l7-4-9-6c-10-7-39-9-68-6-17 1-23 4-34 13l-13 11 7 11c6 10 8 26 4 36-1 4-7 5-23 5l-20 0 0 13c0 13 0 13-8 8-17-13-22-13-29-5-10 12-20 8-25-10-4-18 0-60 9-81 9-19 18-26 48-37 20-8 25-11 28-19 2-5 5-35 6-66 2-31 4-62 6-69 2-6 9-17 15-24 8-10 10-14 7-15-2-1-21-2-41-3-45-1-52-4-52-26 0-22-9-57-21-83-6-13-11-24-11-25 0-3 14-1 24 4 11 6 11 5 21-3 12-10 12-10 26-2l10 7 8-7c15-15 20 2 6 23-20 33-20 45-1 51 21 6 80 14 105 13l26-1 1-17c0-13-2-20-14-46-8-16-15-30-15-31 0-4 8 0 34 19 38 27 46 35 57 59 12 27 16 29 53 24 16-2 35-3 42-2 12 2 14 1 22-9 4-5 10-15 13-20 5-10 5-11-2-16-9-9-25-34-25-41 0-8 7-8 17 0 11 9 12 9 12-4 0-14 5-15 24-3l15 8 11-9c7-5 12-8 13-7 1 0 0 29-1 63-3 73-4 75-31 83-10 3-20 5-24 5-15 0-16 3-10 20 15 39 14 88-2 127-14 32-13 32 15 35 12 1 25 4 27 6 3 2 5 18 6 44 3 41 7 80 11 90 3 8-5 5-19-8-16-14-27-21-31-18-2 1-5 7-7 13-4 13-11 13-12 1-2-13-7-16-22-12-7 2-13 2-14 2-1-1 2-10 7-19 12-24 13-33 7-44-9-18-51-27-80-17-18 6-20 12-15 40 8 51 0 80-28 93-17 8-30 8-43 0z m85-173c10-14 16-144 8-166-3-9-11-16-15-13-2 2-8 177-6 182 2 7 7 6 13-3z m-69-7c7-21 14-166 8-166-2 0-6 2-11 5-8 3-10 7-13 24-2 12-5 46-6 77-2 55-2 56 5 63 11 11 12 11 17-3z m140-46c14-27 15-56 4-79-5-10-12-21-17-26l-9-9-1 64c0 37-2 69-4 76l-3 13 10-10c6-6 15-19 20-29z m-213 3c-3-28 3-69 13-96l8-21-9 6c-24 17-35 42-32 75 1 19 14 58 20 58 1 0 1-10 0-22z"/>
<glyph glyph-name="kete-pa" unicode="&#115;" d="M451 504c-1-3-2-9-2-14 0-7-1-8-13-8-11 0-13 1-16 10-6 17-25 12-25-6 0-7-1-8-13-7-11 1-13 3-14 11-1 9-7 13-15 10-3-1-6-6-6-10-1-9-2-10-23-11l-21-1 0 10c0 6-2 12-5 15-8 6-17-1-17-14 0-9-1-10-10-10-8 0-10 1-11 10-3 13-9 18-18 13-5-2-7-7-7-13 0-14-13-15-14-2-2 20-24 19-24 0 0-7-1-8-10-8-8 0-10 1-10 8 0 16-21 15-23-1-2-11-22-10-26 0-3 5-7 8-12 8-6 0-10-3-12-8-5-10-18-10-22 1-5 12-18 11-21-2-2-11-11-10-13 2-2 8-4 10-11 10-6 0-8-2-10-10-1-8-4-10-10-11-9-1-17-7-17-11 0-6 11-14 19-14 7 0 8-1 8-11 0-9-1-12-10-15-15-6-12-25 4-25 5 0 6-2 6-12 0-7-1-11-4-11-3 0-7-3-11-5-9-6-4-19 7-19 6 0 8-2 8-6 0-4 1-12 2-19 2-12 2-12-12-15-13-3-15-4-15-11 0-8 1-9 14-10 15-1 15-1 15-15 0-12-1-13-10-13-10 0-21-7-21-13 0-6 15-14 23-12 6 2 8 1 8-5 0-5-3-7-11-8-21-2-21-23 1-23 9 0 10-1 10-10 0-9-2-11-9-11-7 0-19-7-19-13 0-5 9-10 18-10 7 0 9-2 11-11 3-16 3-17-10-17-8 0-12-1-13-6-4-10 3-17 15-17 9 0 10-2 10-10 0-9-1-11-11-12-21-2-20-23 1-23 17 0 12-9-4-11-13-1-15-2-16-9-1-9 4-14 19-14 9 0 11-1 12-9 2-19 23-18 23 1 0 7 2 8 10 8 9 0 10-1 11-10 2-22 23-21 23 0 0 9 1 10 10 10 9 0 10-1 11-12 1-12 2-13 11-13 10 0 11 1 12 12 1 11 2 13 9 13 6 0 8-2 9-9 2-19 23-18 23 1 0 8 1 9 15 8 12-1 14-3 16-10 3-15 25-10 23 5-1 2 4 4 10 5 9 1 11-1 12-7 1-10 11-16 18-10 3 3 5 7 5 11 0 5 3 6 15 6 12 0 16-1 20-8 7-10 14-11 20-2 6 10 23 9 24-1 1-11 17-11 21 0 5 11 29 12 29 1 0-3 2-8 5-10 7-6 19 1 19 10 0 6 3 7 15 7 10 0 16-2 17-5 3-8 10-6 22 4 12 10 14 20 4 23-10 3-10 22 0 22 10 0 15 12 8 19-3 3-8 5-12 5-4 0-6 2-6 8 0 6 3 9 11 11 18 5 15 25-3 25-6 0-8 2-8 9 0 6 2 8 6 8 17 0 17 20 0 24-6 2-8 4-9 14-1 11 0 13 9 14 18 4 17 23-1 23-8 0-9 2-9 12 0 10 1 12 9 12 11 0 17 8 12 17-3 4-7 7-14 7-9 0-10 0-10 13 0 13 1 14 9 14 9 0 14 9 9 17-2 3-7 5-11 5-5 0-7 2-7 7 0 4-1 10-2 15-2 6-1 7 10 7 11 0 23 7 23 13 0 6-10 11-21 11-13 0-13 0-13 13l0 14 16 1c15 1 16 1 16 11 0 10-1 10-16 11-14 1-16 2-18 12-3 16-3 16 10 17 25 2 24 23 0 23-11 0-12 1-12 10 0 5-2 11-4 13-6 6-15 5-18-1z m-104-59l0-14-19 1c-19 1-20 1-21 11-1 12 3 15 24 15l16 0z m51 0l0-14-27 0 0 27 27 0z m54-1l1-13-31 0 0 28 15-1c14-1 14-2 15-14z m-391-3c0-15-8-19-12-5-3 11 0 19 7 19 4 0 5-4 5-14z m44 0c1-13 1-13-9-13-11 0-11 0-11 14 0 12 0 13 10 12 7-1 9-3 10-13z m52 0l0-13-28 0 0 27 28 0z m44 0c0-13-1-13-10-13-6 0-11 1-11 3 0 1-1 7-2 13-2 10-2 11 11 11 12 0 12-1 12-14z m37 0c1-12 0-13-6-13-6 0-7 2-7 8 0 4-1 11-2 14-2 4-1 5 5 4 7-1 9-3 10-13z m46 3c3-12-1-17-12-16-7 1-9 4-9 14-1 12-1 13 9 13 9 0 10-2 12-11z m169-50l0-14-27 0 0 27 27 0z m-296-4c0-13-1-13-12-13-12 0-12 0-12 13 0 13 0 14 12 14 11 0 12-1 12-14z m44 11c0-2 1-8 2-14 2-10 2-10-10-10-12 0-13 0-13 13 0 13 1 14 11 14 5 0 10-2 10-3z m39-3c1-3 2-9 2-13 0-7-2-8-9-8-7 0-8 1-8 13 0 11 1 14 6 14 4 0 8-3 9-6z m49-8c0-13 0-13-12-13-11 0-11 0-11 13 0 13 0 14 11 14 12 0 12-1 12-14z m62 2l0-12-19 0c-16 0-19 1-19 6 0 4-1 9-2 12-2 5 1 6 19 6l21 0z m47 0c0-11 0-12-12-12-9 0-12 1-12 6 0 4-1 9-2 12-1 5 1 6 12 6 14 0 14-1 14-12z m-333-4c0-9-2-11-7-11-6 0-7 2-7 11 0 10 1 12 7 12 5 0 7-2 7-12z m41 0c0-10-1-11-9-11-6 0-8 2-9 11-2 12-1 12 8 12 9 0 10-1 10-12z m187-49l1-17-25 0 0 34 12 0c11 0 11 0 12-17z m58 0l0-17-34 0 0 34 34 0z m51 2l0-16-28 0 0 31 28 0z m54 0l0-16-30 0 0 31 30 0z m-391 4c0-5 1-13 2-19 2-10 1-11-7-11-9 0-9 1-9 19 0 16 1 19 7 19 5 0 7-3 7-8z m44-11c0-18 0-19-10-19-10 0-10 1-10 19 0 18 0 19 10 19 10 0 10-1 10-19z m48 1l0-17-11 1c-11 1-12 2-13 18l-1 16 25 0z m47 1l0-17-24 0 0 34 24 0z m39 3c3-15 1-20-8-20-6 0-7 2-7 17 0 14 1 17 7 17 5 0 7-4 8-14z m111-51l0-14-14 0c-7 0-14 0-16 0-1-1-3 4-3 11-1 12-1 13 8 14 25 4 25 4 25-11z m48 8c0-4 1-10 2-14 2-7 1-8-12-8l-14 0 0 14c0 13 0 14 12 14 9 0 12-2 12-6z m56-5c1-6 2-11 1-11 0-1-8-2-15-3l-15-2 0 13c0 14 0 14 13 14 12 0 14-1 16-11z m-212-6c1-13 0-14-6-14-6 0-9 3-10 10-3 12 0 17 8 17 5 0 7-3 8-13z m50 5c0-4 1-11 2-14 2-4 0-5-12-5l-14 0 0 14c0 13 1 13 12 13 10 0 12-1 12-8z m-136-9c0-13 0-13-12-13-11 0-12 0-12 13 0 13 1 14 12 14 12 0 12-1 12-14z m47-1l1-13-13 1c-12 1-13 2-14 14l-1 13 13-1c12-1 13-2 14-14z m-139-2c0-11-1-14-7-14-4 0-7 3-7 6 0 3-1 9-2 14-1 6 0 7 7 7 8 0 9-1 9-13z m44 1c0-10 0-11-10-11-9 0-10 1-10 11 0 11 1 12 10 12 10 0 10-1 10-12z m293-39c0-9-1-10-14-10-12 0-13 1-13 10 0 10 1 11 13 11 13 0 14-1 14-11z m55 0c0-9-1-10-14-10-9 0-14 2-15 6-5 12-2 15 13 15 15 0 16-1 16-11z m-159 2c4-10 2-12-11-12-11 0-14 1-15 7-2 8 0 10 13 10 7 0 12-2 13-5z m56-4c1-7 0-8-16-8-17 0-18 1-18 9 0 8 1 8 17 7 13-1 16-2 17-8z m-197-3c0-7-2-8-10-8-9 0-10 1-10 8 0 7 1 9 10 9 8 0 10-2 10-9z m48 0c0-7-2-8-12-8-11 0-12 1-12 8 0 8 1 9 12 9 10 0 12-1 12-9z m41 0c0-7-2-8-9-8-7 0-9 1-9 8 0 7 2 9 9 9 7 0 9-2 9-9z m-178-1c0-6-2-7-8-7-6 0-9 1-9 7 0 5 3 6 9 6 6 0 8-1 8-6z m41 0c0-6-2-7-10-7-8 0-10 1-10 7 0 5 2 6 10 6 8 0 10-1 10-6z m140-41c0-13-1-14-9-14-6 0-8 2-10 9-3 12 1 18 10 18 8 0 9-1 9-13z m54-1l1-13-15 1c-14 1-15 1-16 14l-1 13 15-1c14-1 15-2 16-14z m51 1l0-14-13 0c-8 0-14 1-14 3 0 2-1 8-2 14l-2 10 31 0z m52 0l0-14-28 0 0 27 28 0z m51 10c0-1 1-8 2-13l2-11-32 0 0 27 14 0c7 0 14-1 14-3z m-389-10c0-9-1-11-8-11-7 0-9 2-9 11 0 8 2 10 9 10 7 0 8-2 8-10z m43 1c3-11-1-15-11-13-6 2-8 5-8 12 0 8 2 10 8 10 6 0 9-2 11-9z m46-3c0-12-1-12-9-11-8 0-10 2-11 12-1 10 0 11 9 11 10 0 11-1 11-12z m51 0c0-12 0-12-14-12-13 0-13 0-13 12 0 12 0 12 13 12 14 0 14 0 14-12z m-136-46c0-13 0-14-9-13-8 1-10 3-11 14-1 12-1 13 9 13 11 0 11-1 11-14z m41 2c0-9-2-12-8-13-9-3-13 2-13 15 0 8 2 10 11 10 9 0 10-1 10-12z m44 5c0-4 1-9 2-12 2-4 0-5-8-5-8 0-11 2-12 8-4 13-3 16 8 16 8 0 10-2 10-7z m51-5c0-12 0-12-14-12-13 0-13 0-13 12 0 11 0 12 13 12 14 0 14-1 14-12z m44-2c0-9-1-10-10-10-9 0-10 1-10 11 0 11 1 11 10 10 9-1 10-3 10-11z m55 0c0-10-1-10-16-10-14 0-15 0-15 10 0 10 1 10 15 10 15 0 16 0 16-10z m48 3c3-10 1-13-13-13-10 0-11 0-11 10 0 9 1 10 11 10 9 0 12-1 13-7z m51-1c0-7-2-9-11-9-5 0-11 0-12 0-2 0-3 4-4 9-1 8 0 8 13 8 12 0 14 0 14-8z m54 0c0-8-1-9-14-9-12 0-13 1-13 9 0 8 1 8 13 8 13 0 14 0 14-8z m-207-46c1-9 1-10-8-10-7 0-9 2-10 8-2 10-1 12 9 12 6 0 8-2 9-10z m57 0c0-10 0-10-15-10-15 0-15 0-15 10 0 10 0 10 15 10 15 0 15 0 15-10z m48 0c0-10-1-10-12-10-11 0-12 0-12 10 0 9 1 10 12 10 11 0 12-1 12-10z m49 0c0-8-1-9-12-10-13-1-13 0-13 10 0 10 0 10 13 9 11-1 12-2 12-9z m56 2c0-7-2-8-12-10-15-3-18-1-18 10 0 7 1 8 15 8 14 0 15-1 15-8z m-391-6c0-8-1-10-9-10-7 0-8 2-8 10 0 9 1 11 8 11 8 0 9-2 9-11z m43 1c0-7-3-9-10-10-8-1-9 0-9 9 0 10 1 11 10 11 9 0 10-1 9-10z m45 1c0-7-1-8-10-8-8 0-10 1-10 8 0 7 2 9 10 9 9 0 10-2 10-9z m51 0c0-8-1-8-15-8-14 0-15 0-15 8 0 8 1 9 15 9 14 0 15-1 15-9z m198-39c0-10-1-10-14-10-12 0-13 1-13 8 0 10 2 12 16 12 10 0 11-1 11-10z m54 0c0-10 0-10-13-10-9 0-14 1-15 5-5 12-3 15 13 15 15 0 15 0 15-10z m-347 0c0-6-2-7-10-7-6 0-10 2-10 5 0 6 3 9 12 9 6 0 8-2 8-7z m44 0c0-5-2-7-8-7-6 0-9 2-9 7 0 5 3 7 9 7 6 0 8-2 8-7z m51-2c0-6-1-8-5-8-13 0-22 4-22 10 0 5 3 7 14 7 12 0 13-1 13-9z m45 0c0-7-2-8-10-8-9 0-11 1-11 8 0 7 2 9 11 9 8 0 10-2 10-9z m58 0c0-8-2-8-16-8-8 0-15 1-15 3 0 1-1 5-2 8-2 5 1 6 15 6 17 0 18-1 18-9z m47 0c1-7-1-8-11-8-11 0-13 1-13 9 0 7 1 8 12 7 8-1 11-3 12-8z m-286 0c0-3-3-5-10-5-7 0-10 2-10 5 0 4 3 5 10 5 7 0 10-1 10-5z"/>
<glyph glyph-name="kintinkantan" unicode="&#116;" d="M122 508c-48-16-82-56-90-109-8-47 9-96 45-128l8-6-15-15c-31-31-47-72-43-117 2-31 8-51 23-73 15-23 37-41 61-50 25-10 63-8 87 4 18 9 49 37 53 48 1 5 4 3 15-12 16-22 43-41 66-46 25-6 60-3 81 8 34 16 60 50 69 88 2 8 3 26 2 43-1 23-3 32-11 49-10 23-32 47-51 59l-14 7 16 12c29 21 46 50 52 87 10 55-22 117-70 139-23 10-57 13-80 6-21-7-42-22-55-40l-12-14-6 10c-26 41-85 64-131 50z m65-44c7-4 17-11 22-17 17-16 34-61 24-61-10 0-42-19-55-33-14-15-33-49-33-59 0-13-18-10-39 7-11 8-18 18-25 32-9 17-10 23-10 44 0 20 1 27 8 43 20 44 69 64 108 44z m208-8c46-29 56-98 21-140-10-11-30-24-38-24-1 0-5 7-9 16-13 35-40 64-71 74-17 7-18 8-10 30 8 23 28 43 52 52 12 4 42 0 55-8z m-171-129c-9-15-34-38-35-33-3 6 14 31 27 40 7 6 13 9 14 8 1-1-2-7-6-15z m84 2c6-6 15-16 18-23l6-12-9 5c-14 7-39 42-31 42 2 0 9-6 16-12z m-38-35c5-8 17-19 26-25l17-12-13-9c-16-10-20-13-31-28l-11-11-5 12c-4 6-13 18-21 26l-14 14 14 12c7 7 17 17 20 23 4 6 7 11 8 11 0 0 5-6 10-13z m-122-74c4-15 12-30 20-41 13-17 41-39 57-42 8-2 9-3 7-12-12-59-57-93-106-78-18 6-40 26-50 49-8 17-9 23-9 47 0 24 1 30 9 46 5 10 12 23 18 29 9 9 36 25 43 25 2 0 7-11 11-23z m58-4c11-12 20-28 18-32-3-8-28 21-36 41-3 8-2 8 3 6 3-2 10-8 15-15z m201-4c26-18 40-51 38-87-6-75-85-111-137-62-21 20-36 67-23 71 19 6 42 20 54 32 14 14 33 45 33 54 0 8 19 3 35-8z m-86-5c-6-10-19-22-27-26-6-3-6-3 0 6 6 11 29 32 31 29 1 0-1-5-4-9z"/>
<glyph glyph-name="duafe" unicode="&#117;" d="M202 507c-39-9-75-29-91-52-26-37-7-83 43-106 18-9 18-9 18-24l0-15-60-3c-59-2-62-3-70-10-20-19-20-22-12-174 5-96 6-105 11-112 7-7 20-9 27-5 11 8 12 18 14 120 2 107 3 113 17 113 12 0 13-10 12-116-1-100-1-103 5-112 8-10 17-13 25-6 9 6 12 37 12 136 0 83 0 91 6 95 8 7 15 7 23-1 6-6 6-10 6-112l0-107 9-7c9-10 18-11 27-2 6 6 6 11 6 111 0 73 2 107 4 113 5 11 18 14 26 4 5-5 6-12 6-38 0-17 1-63 3-103 3-62 4-74 9-80 7-10 21-13 30-5 6 5 6 11 6 114 0 101 0 109 6 113 8 8 22 7 27-1 5-6 5-22 5-108 0-103 2-117 13-123 10-5 16-4 24 5 8 7 9 10 9 39 0 33-6 144-9 167-1 18 6 27 22 27 20 0 21-3 25-97 5-111 7-124 18-134 12-10 21-8 28 6 5 10 6 24 6 137l0 126-8 10c-15 17-39 23-91 24l-45 0-1 12c0 12 0 12 17 21 38 19 57 43 57 74 0 38-40 72-102 86-28 6-85 6-113 0z m-3-53c-9-14-3-25 18-36 40-20 103-4 103 26 0 5-2 11-5 13-8 7-2 7 11 1 19-10 30-24 30-38 0-16-8-27-30-38-42-21-108-19-144 7-29 19-24 51 9 68 7 4 12 6 13 7 0 0-2-4-5-10z"/>
<glyph glyph-name="dwennimmen" unicode="&#118;" d="M326 506c-26-9-43-22-63-52-4-5-4-4-14 9-21 30-57 45-101 42-76-5-122-53-116-121 2-27 13-52 27-67 20-20 29-24 62-24 24 0 31 1 45 8 37 17 58 45 58 79 0 52-47 91-93 77-31-9-49-32-50-63 0-27 14-45 38-53 17-5 36 1 50 15 8 8 10 13 10 24 0 10-2 15-11 24-20 20-49 9-36-15 4-7 12-8 18-3 5 6 12-8 7-15-8-9-15-11-27-7-20 6-25 24-15 46 13 28 57 26 76-2 6-9 7-14 6-30-2-36-23-53-67-55-22 0-26 0-36 7-31 21-41 73-20 106 22 34 85 49 123 29 15-7 31-25 38-41 8-17 7-57-2-80-9-22-29-45-50-56-25-14-43-15-129-4l-17 2 1-28 1-27 52 0c59 1 70-1 92-15 29-19 47-54 48-93 0-41-15-68-47-83-43-20-111 4-127 45-11 29 1 75 24 92 10 8 14 9 36 9 19 0 29-2 37-6 24-13 35-30 35-53 0-26-16-46-41-49-28-4-48 12-48 39 0 11 2 14 10 21 12 10 26 11 35 2 9-10 6-18-7-16-13 1-19-4-19-16 0-25 41-16 51 11 11 34-42 64-73 42-18-12-25-25-25-47 0-39 27-65 68-65 36 0 66 26 74 64 10 51-36 101-98 105-17 1-24 0-37-6-32-13-54-49-57-91-2-34 5-55 24-76 28-30 66-45 109-43 43 2 76 23 94 59l8 16 4-10c20-47 82-73 140-58 39 10 66 31 80 61 7 15 8 23 9 45 0 46-18 80-51 96-16 8-20 8-43 7-33-2-56-12-76-34-18-20-22-32-20-60 1-25 12-46 33-61 12-8 17-10 36-11 21-1 24 0 40 10 21 13 32 31 32 54 0 50-54 74-88 39-15-16-15-33 1-48 13-12 26-15 34-6 6 6 7 12 2 21-3 5-5 6-14 4-14-3-18 6-6 16 10 9 16 9 29 1 27-16 11-59-24-62-30-2-51 18-51 50 0 30 20 51 55 56 26 4 45-1 59-15 29-31 28-84-3-111-16-14-46-25-68-25-34 0-64 18-78 47-10 20-10 57 0 83 15 37 50 65 87 68 17 1 58-2 94-8l12-2 0 68-12-2c-36-6-77-9-94-8-37 4-72 31-87 69-9 22-10 62-2 79 18 42 63 60 112 45 30-10 49-26 56-50 11-38-5-82-33-93-5-2-18-3-29-3-42 0-66 19-68 55-1 16 0 21 6 30 19 29 63 30 77 2 9-20 5-36-11-44-13-7-17-6-27 2-12 10-8 19 6 16 9-1 11 0 14 5 5 9 4 15-2 21-8 8-21 6-34-6-16-15-16-32-1-48 34-35 88-11 88 39 0 23-11 41-32 54-16 9-19 10-40 9-19-1-24-2-36-11-21-15-32-35-33-61-2-27 2-40 19-59 20-22 46-33 79-35 21-1 26 0 41 7 57 28 70 123 23 170-32 32-91 45-136 31z m-40-221c21-11 29-35 16-52-20-24-61-26-84-3-18 18-12 44 13 57 14 6 40 6 55-2z"/>
<glyph glyph-name="eban" unicode="&#119;" d="M224 492c-14-11-63-58-107-104-45-47-89-93-98-102-17-16-17-16 5-45 41-51 187-198 196-198 5 0 17-11 27-23l17-22 32 24c45 33 182 168 182 179 0 6 8 17 17 25 9 9 17 21 17 27 0 14-246 261-259 259 0-1-13-9-29-20z m60-73c9-15 23-28 33-31 17-6 17-7-7-29-14-13-29-30-34-38-8-15-12-12-46 21l-38 38 34 31c19 18 36 33 39 33 2 0 11-11 19-25z m-118-103c7-14 25-32 40-40l26-13-25-16c-13-8-33-25-42-39-17-23-18-23-23-5-4 10-20 28-37 39l-30 21 25 13c14 7 31 25 37 40 6 13 11 25 13 25 2 0 9-11 16-25z m263-42c29-15 29-19-2-37-15-7-30-24-35-36l-10-20-37 39c-21 21-37 39-35 40 1 1 10 7 20 12 11 5 26 22 34 36l13 27 15-24c8-14 25-30 37-37z m-141-77c6-14 23-31 37-37 14-6 25-12 25-15 0-2-12-11-26-19-13-7-32-26-42-42l-16-26-13 26c-8 15-17 27-21 27-3 0-15 8-26 16l-21 16 27 14c14 8 33 25 41 39 8 14 18 26 20 26 3 0 9-11 15-25z"/>
<glyph glyph-name="epa" unicode="&#120;" d="M151 365c-17-13-57-42-91-66-33-24-60-44-60-45 0-2 176-127 181-129 2-1 18 9 37 21l34 23 31-22c16-13 32-22 33-22 2 0 22 12 45 28 23 14 67 43 96 62 30 20 53 37 52 39-2 3-159 112-183 127l-10 6-28-21c-16-11-31-21-34-22-3-1-18 7-37 20-18 13-33 23-34 23 0 0-15-10-32-22z m43-49c6-3 10-7 10-8 0-1-16-14-35-28l-37-26 35-24c19-13 35-26 36-27 1-1-4-6-9-10l-11-6-45 32c-24 18-45 33-45 35-1 2 86 68 90 68 1 0 6-3 11-6z m177-30l48-32-51-34c-44-29-50-33-56-29-4 2-7 5-8 7-1 2 16 15 36 29 31 20 37 26 34 29-3 2-20 14-39 27-18 12-34 23-35 24-3 2 15 15 19 13 3-1 26-16 52-34z m-102-21c7-5 13-10 14-11 0-3-28-21-31-20-7 3-27 19-27 20 0 3 24 20 28 20 1 0 8-4 16-9z"/>
<glyph glyph-name="ese-ne-tekrema" unicode="&#121;" d="M166 509c-37-6-77-62-93-132-13-55-18-164-10-213 12-65 32-111 62-140 19-19 31-24 57-24 12 0 24 1 27 3 3 1 13 10 22 19 8 9 18 17 21 18 5 2 10-2 25-15 26-24 32-27 52-23 67 13 110 73 120 171 4 39 3 127-2 157-7 51-23 95-49 133-24 36-40 49-64 49-20 0-35-7-55-25l-18-17-22 14c-12 8-25 16-29 18-11 6-32 9-44 7z m41-59c17-16 27-70 15-85l-5-6-7 6c-4 2-9 6-11 7-2 2-6 2-11 0-9-3-15-19-12-34 1-14 5-21 14-25 8-3 16-1 25 10 9 11 19 11 24 1 8-15 2-60-9-64-4-1-15 2-18 6-3 6-23 19-28 19-14 0-22-25-16-50 4-19 10-26 21-26 10 0 18 6 25 19 11 22 27 2 22-29-2-14-8-27-12-27-2 0-8 5-14 10-6 5-13 9-17 9-17 0-31-23-24-39 4-9 19-24 25-24 1 0 7 3 12 7 18 13 25 6 23-24-1-13-4-25-9-35-12-26-23-30-40-14-30 26-45 84-45 169 0 96 22 203 45 222 7 5 9 6 15 4 4-2 9-5 12-7z m131-5c38-51 50-268 19-356-4-9-10-21-15-26-7-8-9-9-19-7-15 2-31 13-38 28-10 18-7 43 5 50 3 2 6 2 12-2 10-5 19-3 27 5 12 14 12 46-2 52-7 3-21-2-25-9-1-3-5-5-11-5-16 0-28 21-24 43 2 10 7 15 19 20 12 4 19 1 24-12 6-13 9-14 21-8 14 7 18 34 7 54-8 15-13 16-28 2-28-25-49-15-49 24 0 24 8 36 24 36 5 0 8-2 11-7 10-17 38-20 45-5 7 14 0 38-15 47-10 6-15 6-21-2-7-8-14-8-19-1-11 15 2 66 21 85 10 10 21 8 31-6z"/>
<glyph glyph-name="fawohodie" unicode="&#122;" d="M5 487c-6-6-6-14-1-44 14-76 43-139 79-175 8-7 16-14 18-15 4-3 4-3-2-7-12-9-33-32-42-46-26-39-43-93-46-139-2-23-1-30 5-36 4-4 8-4 81-4l75 0 41 33c22 18 42 33 43 34 2 1 18-13 39-32l37-33 169 0 5 6c5 5 6 6 5 20-5 49-28 120-52 155-12 18-26 32-39 41l-11 8 10 7c42 34 81 117 85 186 2 21-2 35-10 40-3 1-24 2-67 3l-62 1-8-7c-8-7-82-73-93-83l-6-5-47 48-48 49-154 0z m195-79c56-58 55-57 69-45 5 4 30 27 57 50l48 44 16 0c9 0 32-1 50-2l35-1-2-11c-5-43-21-88-43-122-14-23-40-46-60-54-11-4-18-11-18-19 0-9 5-14 20-17 19-5 31-12 47-29 23-25 42-68 54-120 3-13 5-24 5-25 0 0-30-1-67-1l-66 0-40 36c-31 28-41 36-46 36-4 0-16-10-51-37l-45-37-61 0c-57 0-61 0-61 4 0 18 12 67 23 90 18 43 48 75 79 85 12 4 16 9 16 18 0 9-3 13-15 17-32 12-55 35-76 77-13 26-25 63-31 94-1 7-3 14-3 16-1 4 2 4 57 4l58 0z m-133 33c-13-11-9-26 17-80 16-32 18-35 33-51 9-9 25-22 36-28 31-21 53-26 111-26l40-1 21 8c52 18 91 54 112 104 8 19 14 47 12 57-2 14-6 15-40 16-17 0-33 0-36 0-2-1-17-14-32-29-21-21-58-53-83-71-3-2-58 45-87 77l-25 25-37 2c-35 1-37 1-42-3z m91-59c34-33 73-68 87-76 7-4 9-4 14-3 11 5 83 64 107 89l16 16 35 0-1-6c-10-42-35-76-71-96-29-17-34-18-81-18-56 0-71 4-103 28-26 20-36 33-58 81l-7 15 32 0z m70-136c-48-7-90-28-117-61-20-24-48-87-48-109 0-7 1-11 5-14 5-4 5-4 47-3 22 1 42 2 44 3 1 1 7 7 12 13 16 18 81 75 86 75 3 0 31-20 50-35 9-7 24-21 32-29 9-9 17-17 19-18 2-1 22-2 44-2 46-1 48 0 52 14 12 45-70 145-133 162-14 4-23 5-49 5-17 1-37 0-44-1z m86-35c37-14 95-73 106-110l2-5-24 1-24 1-15 16c-24 23-91 73-99 73-2 0-9-3-15-7-18-13-63-51-83-70l-19-19-23 0c-26 0-25-4-10 30 11 27 22 45 36 56 37 31 61 39 122 38 28-1 38-2 46-4z"/>
<glyph glyph-name="kwatakye-atiko" unicode="&#65;" d="M411 408c-51-7-81-8-183-6-127 3-149 2-179-15-15-8-31-24-38-40-5-10-6-14-6-35 0-22 0-24 7-37 7-15 17-25 34-34 9-5 12-6 32-6 20 0 22 1 35 7 16 8 33 24 39 36 15 31-13 77-46 77-16 0-40-15-48-29-10-19 3-38 27-42 7-1 9 0 13 3 8 8 5 18-6 21-13 4-14 8-6 18 6 6 18 6 28 0 23-14 19-43-8-58-14-8-28-9-43-3-26 10-36 34-27 63 6 19 26 35 55 43 18 4 34 3 50-6 25-13 36-37 34-75 0-20-1-24-6-34-15-30-48-40-112-37-19 1-36 2-40 1-15-4-22-24-13-37 8-11 18-13 72-13 26 0 59 2 73 3 22 2 26 2 30-1 11-7 3-15-19-17-7-1-41-3-74-3-66-1-66-1-74-14-5-9-4-19 3-26 8-8 25-11 69-12 45-1 75 1 115 9 36 7 73 7 136 0 51-6 66-7 89-3 28 5 48 18 59 37 14 24 19 63 10 86-9 22-24 37-50 47-15 6-42 6-62 0-34-11-50-35-47-75 1-26 14-41 41-48 18-5 42 0 53 9 8 8 12 19 11 31-1 24-14 37-34 37-10 0-13-1-15-4-5-7-4-17 1-21 2-2 6-3 9-3 6 0 13-6 13-12 0-3-2-7-5-10-10-10-36-4-46 11-10 16-1 42 19 54 12 8 26 9 43 5 27-8 38-21 38-49 0-38-24-65-60-69-15-1-43 6-55 13-33 19-41 67-21 111 15 32 34 40 113 44 45 2 53 3 62 9 7 5 10 9 10 16 0 8-3 13-12 17-12 7-19 7-75 2-99-9-107-9-107 1 0 7 8 9 62 10 72 2 100 5 111 10 10 5 15 13 15 22 0 9-10 20-20 23-11 3-43 2-74-2z"/>
<glyph glyph-name="nsaa" unicode="&#66;" d="M0 384l0-94 128 0 0-68-128 0 0-188 205 0 0 111 119 0 0-111 188 0 0 188-111 0 0 68 111 0 0 188-188 0 0-111-119 0 0 111-205 0z m162 0l0-60-119 0 0 120 119 0z m316 0l0-60-111 0 0-25c0-25-1-26-43-26-42 0-42 1-42 26 0 24 0 25 42 25l43 0 0 120 111 0z m-231-85c0-25-1-26-38-26-37 0-38 1-38 26 0 24 1 25 38 25 37 0 38-1 38-25z m0-90c0-30 0-30-38-30-38 0-38 0-38 30 0 30 0 30 38 30 38 0 38 0 38-30z m118-2l3-28 110 0 0-102-111 0 0 101-40 3c-32 2-42 6-44 18-6 31 5 41 43 38 34-2 37-4 39-30z m-203-83l0-56-119 0 0 111 119 0z"/>
<glyph glyph-name="owuo-atwedee" unicode="&#67;" d="M104 256l0-256 68 0 0 45 167 0 0-45 68 0 0 512-68 0 0-36-167 0 0 36-68 0z m235 125l0-27-167 0 0 53 167 0z m0-122l0-26-167 0 0 53 167 0z m0-120l0-26-167 0 0 51 167 0z"/>
<glyph glyph-name="pempamsie" unicode="&#68;" d="M99 508c-43-14-75-61-78-112-2-42 10-72 41-103 8-8 21-19 29-25l15-11-14-10c-49-36-72-74-74-120-2-23 1-34 11-55 23-46 63-72 110-72 20 0 39 4 53 10 13 6 26 20 31 32l3 7 26 0c14 0 27 1 28 1 2 1 4-2 7-9 12-25 37-38 77-40 36-2 63 8 88 33 27 26 39 52 41 83 2 47-22 91-72 129-7 6-13 11-13 11 0 0 7 6 16 12 34 24 56 51 65 79 7 19 8 52 3 72-12 44-43 80-80 89-12 4-32 4-45 1-5-1-17-5-25-9-33-16-57-50-57-81 0-7 0-7-4-6-2 0-14 1-26 1l-23 0-1 13c-6 37-38 71-78 81-16 4-38 4-54-1z m54-37c9-3 20-11 25-19 6-9 8-18 4-28-4-10-21-27-35-35-6-3-10-6-10-7 0-2 16-17 24-21 8-5 18-6 29-4l6 1 6-20c17-53 22-82 22-114 0-27-2-40-11-72-3-10-6-20-6-22-1-5-1-5-9 0-8 6-22 10-31 10-8 0-39-7-39-9 0 0 4-4 9-7 20-14 36-34 38-48 2-13-6-26-21-35-17-10-39-3-58 18-12 13-22 29-26 42-5 17 1 43 13 62 12 19 45 49 90 83l23 17-15 9c-52 31-92 64-103 84-8 16-10 38-3 60 10 39 46 64 78 55z m250-5c36-17 53-73 35-109-9-19-43-46-89-74-14-8-27-15-29-16-1-1-3-2-2-2 0-1 8-7 17-14 39-31 79-68 91-86 7-11 12-24 15-39 3-21-5-41-25-64-26-28-50-33-71-12-12 12-14 25-6 40 5 10 23 28 36 36 4 2 7 5 7 5 0 1-6 3-14 5-19 5-39 5-50-1-4-2-8-3-9-2-1 0-4 11-8 23-17 63-18 99-5 150 7 28 17 57 19 56 1 0 5-1 8-3 16-5 31-1 47 14 5 4 9 8 9 9 0 1-5 4-10 7-13 8-29 24-33 33-7 16-2 30 16 44 12 8 34 9 51 0z"/>
<glyph glyph-name="nsoromma" unicode="&#69;" d="M228 504c-7-11-18-59-23-101-5-51-8-56-29-54-3 0-17 9-31 19-30 23-63 40-82 43-11 1-13 1-13-6 0-7 4-13 47-68 14-17 27-36 30-42 6-11 6-11-5-21-6-6-31-22-56-37-24-15-49-32-55-37l-11-9 10-4c6-3 32-4 70-3 64 0 66 0 67-16 0-4-9-28-20-54-19-49-26-72-19-72 5 0 22 13 60 50 52 50 70 48 77-9 8-56 15-83 25-83 10 0 17 27 25 106 2 20 3 24 9 25 4 0 25-12 54-33 66-47 78-51 67-22-6 17-12 27-38 68-21 32-29 47-29 54 0 15 43 40 108 61 35 12 49 21 43 27-5 5-37 8-88 8-47 0-53 1-61 7-5 4-9 11-9 15 0 4 9 27 21 51 25 52 34 76 34 94 0 11-1 13-6 13-8 0-76-64-95-89-14-20-29-27-36-17-2 3-5 26-7 51-7 77-19 108-34 85z m48-196c16-5 36-22 42-37 7-17 6-39-2-53-10-16-15-20-32-28-37-17-84-1-100 33-8 18-8 31 1 49 15 31 53 46 91 36z"/>
<glyph glyph-name="mate-masie" unicode="&#70;" d="M123 510c-23-5-54-35-69-67-9-20-11-29-12-56-3-52 7-83 39-116 6-6 11-13 11-15 0-1-5-7-10-12-16-14-33-46-38-69-2-13-3-32-2-51 2-48 22-83 60-110 15-11 17-11 50-11 31 0 35 1 48 10 8 5 14 8 14 7 0-4 34 43 36 50 3 9 7 8 12-3 9-21 32-47 49-55 14-8 22-9 50-9 28 0 34 1 43 8 6 4 12 7 13 7 5 0 28 29 38 51 10 21 12 29 14 55 1 19 0 38-3 51-4 23-22 55-37 69-6 5-10 11-10 12 0 2 5 9 11 15 31 33 42 64 39 116-3 50-21 85-60 112-15 11-17 11-50 11-32 0-36 0-49-9-7-5-14-9-14-7 0 3-29-37-36-50l-5-11-6 13c-6 13-35 52-35 48 0-1-6 2-13 6-11 8-18 10-42 10-15 1-32 1-36 0z m51-45c26-17 41-49 41-87 0-28-10-61-21-72-4-4-6-5-5-2 4 7 2 37-4 51-6 15-18 25-32 26-25 1-46-28-43-61l1-17-8 14c-19 31-19 83 0 117 6 11 13 20 15 20 3 0 5 1 5 4 0 5 18 13 30 13 7 0 16-3 21-6z m204 1c6-3 10-7 10-8 0-3 2-4 5-4 2 0 9-10 16-23 11-21 11-25 11-55 0-34-5-52-21-72l-8-8 4 11c2 6 3 20 3 31-1 17-4 23-12 33-9 12-13 13-25 14-21 0-22-1-34-19-11-16-14-39-7-57l4-10-7 7c-4 4-10 16-14 27-26 74 22 160 75 133z m-116-160c2-6 12-20 21-31l17-18-17-19c-9-11-19-24-21-31-3-6-6-12-7-12-1 0-4 6-6 12-3 7-12 20-22 31l-17 19 17 18c10 11 19 25 22 31 2 7 5 12 6 12 1 0 4-5 7-12z m-97-78c31-13 50-48 50-92 0-25-9-54-20-69-6-8-6-8-5 14 1 17 0 24-5 35-14 26-36 32-56 16-12-10-16-20-20-44l-2-17-8 17c-23 49-6 116 34 137 17 9 17 9 32 3z m219-6c14-9 30-34 35-55 5-25 2-63-7-80-10-21-14-21-14 1 0 28-7 42-26 53-32 17-67-32-52-74l3-9-6 8c-21 26-28 77-14 114 8 23 20 37 39 46 15 7 25 6 42-4z"/>
<glyph glyph-name="me-ware-wo" unicode="&#71;" d="M331 505c-26-8-53-26-66-44-6-8-11-15-12-15-1 1-6 6-11 13-5 8-17 19-26 25-70 46-163 15-190-63-22-65 16-138 83-158 15-4 19-7 19-12 0-6-3-8-11-9-33-5-70-36-87-71-7-16-9-23-9-48 0-25 2-32 9-48 16-33 37-52 76-67 34-14 71-9 109 15 13 8 38 34 38 40 0 2 7-4 16-14 61-69 170-55 212 26 9 17 10 22 10 51 0 40-6 55-32 82-18 19-50 38-64 38-7 0-8 1-7 9 1 7 4 9 14 12 35 11 64 35 79 67 13 26 15 66 5 94-14 37-45 65-85 77-26 9-46 9-70 0z m20-50c0-8-2-18-6-23-11-16 1-35 20-35 21 0 33 16 24 34-6 11-7 38-2 38 9 0 31-14 40-27 35-48 28-107-16-131-68-37-150 23-132 95 7 28 28 52 57 62 14 5 15 3 15-13z m-223-5c0-9-2-18-5-22-12-16-1-34 21-34 9 0 16 2 20 6 7 7 9 25 3 28-1 1-3 10-3 20 0 22 3 22 25 8 58-40 49-133-15-156-65-23-133 38-115 104 6 21 22 41 40 52 25 14 29 14 29-6z m144-146c18-19 40-32 62-38 12-3 14-5 13-11 0-5-5-8-19-12-11-3-24-9-31-13-12-7-41-38-41-44 0-1-8 6-18 17-19 20-42 35-63 39-8 1-11 3-11 9 0 6 3 8 17 13 24 7 47 23 62 42 6 8 12 15 12 15 0 1 8-7 17-17z m76-111c0-11-2-20-6-27-9-13-5-24 11-30 15-6 32-2 40 11 5 7 5 9 0 18-4 8-6 16-5 28l1 17 17-8c53-25 62-98 16-139-48-42-127-17-140 43-8 39 15 84 51 99 15 7 15 7 15-12z m-220-3c0-11-2-19-5-23-3-3-6-10-6-15 0-20 33-29 49-13 9 10 10 14 3 25-3 5-5 16-5 25l0 17 11-3c16-6 40-32 46-50 11-32 4-69-15-90-21-22-64-30-94-17-55 24-70 98-28 138 9 8 35 22 42 23 1 0 2-8 2-17z"/>
<glyph glyph-name="sankofa" unicode="&#72;" d="M231 508c-21-5-42-15-63-28-33-22-55-49-75-92-14-29-18-47-18-82 0-48 9-86 25-111 12-17 43-42 72-55 13-7 23-12 23-13 0-1-9-18-20-39l-20-37-13 1c-14 1-26-5-31-14-2-5-2-5 2-4 15 6 18 7 21 4 1-2 1-2-1-2-4 0-10-17-9-22 2-4 2-4 8 2 12 15 29 15 42 0l7-8 0 10c0 5-2 13-3 18-3 8-3 9 17 47 11 21 20 38 21 39 0 0 11-1 23-3 17-2 29-2 40 0l17 2 4-9c3-5 12-24 22-42l17-33-3-13c-6-24-4-28 7-14 10 14 24 13 39-2l8-7 0 9c0 5-2 11-5 15-7 8-4 10 8 5 12-5 14-4 8 3-8 9-18 13-30 12l-11-2-23 42-23 43 11 6c60 31 111 102 111 152 0 22-2 24-10 10-7-13-17-23-13-14 8 20 10 43 4 42-1 0-4-4-8-9-4-5-9-11-11-12-5-2-5-2-1 9 4 13 4 19 0 28l-2 6-11-14c-29-38-89-68-138-68-43 0-73 18-90 56-7 13-8 18-8 36 1 27 7 43 26 64 17 17 28 25 49 32 30 10 50 5 72-16 15-15 19-17 43-21 5-1 14-5 20-10 13-10 28-18 32-18 4 0 3 9-4 27-4 9-9 24-11 33-8 29-24 48-54 59-18 6-69 8-90 2z"/>
<glyph glyph-name="nyame-biribi-wo-soro" unicode="&#73;" d="M141 507c-8-3-19-11-32-23-46-46-72-142-67-249 2-48 5-72 15-107 14-47 30-80 53-102 18-17 31-23 55-25 16-1 21 0 35 6 16 9 37 29 49 50l7 12 9-14c10-19 32-40 47-47 6-3 19-6 30-7 17-1 21 0 35 6 38 19 68 72 84 148 8 35 11 123 6 165-13 109-59 185-116 191-30 3-61-16-84-51l-11-17-12 19c-13 19-28 34-46 43-13 7-41 8-57 2z m48-48c19-16 35-54 35-84 0-33-18-73-47-105l-16-16 14-16c46-53 60-102 41-142-15-32-40-48-56-37-20 13-44 71-53 132-6 33-5 105 1 142 9 53 28 111 43 127 8 9 27 9 38-1z m174-2c10-11 17-30 28-67 22-77 24-168 6-241-8-29-28-74-38-85-19-19-45-5-64 36-8 16-9 20-7 37 0 11 4 27 7 36 7 17 28 50 45 70l10 12-17 19c-22 24-40 58-44 86-2 17-2 23 2 39 6 26 14 43 28 56 9 10 12 11 23 11 11 0 14-1 21-9z"/>
<glyph glyph-name="sesa-wo-suban" unicode="&#74;" d="M245 505c-17-6-29-29-33-68-3-16-14-38-22-40-3-1-6 2-8 7-4 7-3 16 2 40 7 35 5 48-8 54-8 4-10 3-19-7-18-20-22-51-11-90 6-24 5-30-7-38-10-6-13 3-13 36 0 37-6 53-20 53-33 0-38-57-8-102 5-8 10-18 11-22 1-11-4-22-11-25-12-4-21 6-28 31-9 29-24 48-39 48-22 0-26-28-8-63 12-25 27-40 47-49 19-8 24-15 24-31 0-10-1-11-11-11-10 0-14 4-29 21-20 22-33 29-46 24-7-2-8-5-8-17 0-8 2-19 5-24 14-26 57-53 87-53 14 0 17-1 23-10 7-10 7-10 0-16-6-6-7-6-27 3-24 10-31 11-47 4-31-12-8-47 35-53 24-3 53 1 68 9 12 6 12 6 25-2l13-8-9-7c-5-4-14-8-19-10-44-10-53-45-11-44 19 0 50 14 58 27 12 18 44 21 44 5 0-4-8-15-18-26-13-14-17-21-17-29 0-23 25-22 51 1 15 13 21 23 25 48 5 23 10 28 26 29 10 0 11-1 13-11 0-7-3-17-8-26-11-18-12-34-3-42 9-8 15-8 27 1 20 16 27 46 18 77-2 8-4 18-3 21 1 8 15 15 26 13 10-2 13-12 11-40-2-17-1-22 6-30 9-12 19-12 29 2 6 7 7 14 7 35 0 28-6 42-23 56-8 6-10 10-8 15 2 9 11 13 18 8 3-1 11-13 17-25 11-24 23-33 37-30 9 3 17 15 17 27 0 13-10 28-27 37-42 25-53 36-42 46 7 8 17 5 31-8 17-15 36-17 48-4 18 19 2 43-34 54-11 3-27 8-37 11-20 6-36 20-31 26 7 6 34 3 55-6 25-12 42-11 43 2 2 12-16 32-38 44-19 9-20 9-66 2-13-1-17-1-22 5-15 16 8 35 35 29 33-8 48-2 40 17-6 14-22 22-43 22-19 0-35-7-53-21-13-11-28-14-32-8-1 2 1 10 4 18 5 12 8 15 21 18 20 5 29 16 29 36 0 17-4 23-19 23-16 0-37-17-56-45-18-26-30-36-45-36-21 0-14 25 15 52 15 14 18 19 17 26-4 13-25 20-41 14z m71-122c12-6 29-16 37-23 14-14 35-43 35-51 0-3-14-4-50-4l-50 0-18 45c-9 25-17 46-16 47 4 4 43-5 62-14z m-84-16c-6-16-14-35-18-42-2-7-6-13-8-13-7 0-85-11-86-12-1-1 16-16 37-34 21-17 39-33 39-34 0-4-32-96-34-98-4-5-31 29-42 52-13 25-13 27-13 63 0 34 0 38 11 60 11 24 32 50 51 63 14 10 50 24 64 24l11 0z m166-87c8-34 4-64-12-96-9-18-31-47-36-47-3 0-39 78-39 84 0 3 78 77 81 77 1 0 4-8 6-18z m-114 0c9-10 8-37-1-51-8-14-28-23-43-21-31 6-38 47-13 70 18 18 44 18 57 2z m11-119c23-13 44-26 45-27 2-2-4-7-12-12-43-25-100-26-145-3-9 4-15 10-14 11 1 3 78 56 82 56 0 0 20-11 44-25z"/>
<glyph glyph-name="nyame-dua" unicode="&#75;" d="M164 489c-29-13-40-37-37-73 1-11 5-27 9-35 4-9 7-16 7-17 0 0-10 4-22 10-42 19-85 16-105-8-23-27-18-75 10-106l9-9-7-10c-27-38-28-85-3-107 20-18 52-16 94 5l29 15-9-18c-20-35-22-75-7-96 20-28 78-27 107 1l11 9 10-10c16-15 38-24 61-24 31 0 52 14 61 39 5 17 2 54-7 74-5 11-6 16-3 15 39-17 50-20 71-21 30 0 47 10 59 34 5 9 9 21 9 27 0 17-12 46-24 60l-11 14 7 7c30 34 32 91 3 113-20 14-64 9-103-11l-18-10 10 21c20 42 20 73 2 94-12 14-23 18-45 18-24 0-46-9-61-23l-9-9-7 8c-9 12-39 26-60 28-12 1-20 0-31-5z m53-33c11-5 28-23 28-29 0-1-4-2-8-1-12 3-26-6-26-17 0-11 11-22 22-22 7 0 9-2 9-7 0-13 6-21 18-21 14 0 19 6 19 20 0 8 2 10 5 9 7-3 22 5 24 13 3 10-3 26-10 29-4 1-11 0-16-1-9-4-9-4-5 3 12 17 45 31 64 27 41-8 14-80-57-153l-30-30-30 32c-31 33-53 65-62 92-18 49 10 77 55 56z m-103-114c24-11 63-41 86-65 19-19 19-18-21-56-44-42-90-69-118-69-32 0-32 50 0 79l10 10-4-10c-2-5-2-13-1-16 2-7 18-13 28-10 9 2 17 16 14 24-2 3 1 5 9 5 12 0 19 6 19 19 0 8-10 18-19 18-5 0-8 2-8 5 0 3-2 10-5 15-10 20-38 11-35-12 1-14-1-14-16-1-24 21-28 56-9 72 13 10 41 7 70-8z m357 7c9-13 7-33-5-53-5-10-13-20-17-22-6-3-6-3-3 5 4 11 0 21-9 24-16 6-32-2-32-17 0-7-2-8-10-8-10 0-21-10-21-21 0-10 9-17 20-17 7-1 10-2 9-5-3-7 5-22 14-26 6-3 10-3 17 2 8 6 9 8 8 19-2 12-1 13 4 10 19-10 36-42 32-61-3-17-16-25-37-25-21 1-41 9-71 29-21 14-74 64-74 71 0 5 57 57 82 73 42 28 82 37 93 22z m-157-179c25-32 38-59 39-84 2-19 1-22-7-30-16-18-49-11-70 12-12 14-14 21-4 16 10-5 20-2 27 9 5 8 5 9-2 17-4 6-10 10-17 11-9 1-11 2-11 10 0 12-6 17-19 17-13 0-19-5-19-17 0-8-1-10-7-10-17 0-24-11-19-31 3-11 15-15 26-10 8 4 8 4 3-4-9-13-37-26-54-26-52 0-29 75 47 152l29 29 21-20c11-11 28-29 37-41z"/>
<glyph glyph-name="mframadan" unicode="&#76;" d="M0 256l0-232 512 0 0 464-512 0z m500 0l0-220-488 0 0 440 488 0z m-456 4l0-183 424 0 0 367-424 0z m135 107c40-36 74-66 74-66 1-1-6-7-14-14l-14-12-7 5c-3 3-41 37-84 75-60 54-78 70-78 73l0 4 50 0z m225 61l-5-5-267 0-8 9 142 0 143 0z m51-11l0-14-76-65-76-65-6 5c-3 3-10 9-15 13l-10 9 77 66 77 66 15 0 15 0z m-75-10l-5-4-218 0-5 4-6 4 120 0 119 0z m-239-74c41-36 74-66 74-66 0-1-146-126-156-134-3-2-3 6-3 137l0 139 6-6c3-2 39-34 79-70z m215 54l-5-5-173 0-4 5-4 4 96 0 95 0z m99-186l0-63-66 58c-36 32-68 61-71 64l-6 6 143 122 0-63c1-34 1-90 0-124z m-123 165l-5-4-63 0-62 0-4 4-4 4 143 0z m-21-17c0-1-3-3-6-6l-5-5-35 0-35 0-6 4c-3 3-6 5-6 6 0 1 21 2 47 2 25 0 46 0 46-1z m-36-32l-11-9-11 9c-6 5-11 10-11 10 0 0 10 1 22 1l22 0z m10-43l9-9-15-12-14-13-6 5c-3 2-10 8-15 13l-10 9 14 13 15 12 6-5c4-3 11-9 16-13z m-39-33c6-6 8-9 7-10 0-1-39-34-85-73l-83-71-29 0 1 14 0 15 84 71 83 72 6-5c4-3 11-9 16-13z m147-64l63-55 0-35-19 0-24 21c-92 81-140 123-140 124 0 1 7 6 15 13l15 12 14-12c7-7 42-37 76-68z m-118 38l9-8-41 0 10 8c5 5 10 8 11 8 1 0 6-3 11-8z m28-25c2-2 4-4 4-5 0 0-20-1-45-1l-44 0 8 9 37 0c33 0 37 0 40-3z m26-23l4-5-141 0 10 10 122 0z m25-22l5-5-97 0-97 0 6 5 6 5 85 0 86 0z m26-23l7-6-125 0-125 0 7 6 7 6 111 0 111 0z m30-26l9-9-158 0c-92 0-157 1-156 2 1 0 5 4 10 8l8 7 139 0 138 0z"/>
<glyph glyph-name="mmere-dane" unicode="&#77;" d="M74 510c0-1 9-14 19-29 10-15 19-29 20-30 0-1-3-5-9-12-29-32-53-82-62-129-4-24-5-68-2-93 7-54 30-106 63-143 4-4 8-9 9-11 3-3 2-4-17-33l-19-29 169-1c94 0 170 0 171 1 0 0-7 11-16 24l-16 24 13 13c41 40 67 95 75 155 3 25 2 69-2 93-7 36-22 74-42 104-7 9-17 22-28 33l-17 18 15 23c8 12 15 23 15 23 0 1-77 1-170 1-136 0-170 0-169-2z m183-59c15-6 21-22 14-36-3-5-12-12-17-13-14-2-25 3-31 15-4 8-4 9-2 17 4 15 22 24 36 17z m135-61c53-76 53-188 2-265-8-12-27-35-32-38-2-1-8 7-51 72-27 41-49 74-49 74 0 1 29 1 65 1l64 0 0 54-62 0c-38 0-61 1-61 1 0 1 21 33 45 70l46 69 13-14c7-7 16-18 20-24z m-212-40l41-61-58-1-58 0 0-54 62 0c34 0 61 0 61-1 0-1-85-131-87-134-2-1-4 1-9 7-58 69-69 175-27 257 10 21 30 50 33 48 1 0 20-28 42-61z m79-247c9-4 17-16 17-26 0-9-8-22-17-26-5-2-16-2-21 0-6 2-12 8-15 14-3 5-3 19 0 24 7 13 23 19 36 14z"/>
<glyph glyph-name="nyame-nnwu-na-mawu" unicode="&#78;" d="M95 507c-59-18-99-81-72-111 15-16 30-18 76-11 9 1 13-2 62-59 29-34 53-62 54-64 0-1-24-27-54-57l-56-56-16 8c-26 14-54 11-69-6-14-16-16-36-4-60 16-35 53-69 83-77 20-5 45 3 54 17 9 14 8 42-3 62l-7 15 56 55 55 56 46-52c25-29 48-55 50-58 5-5 4-8-3-22-9-20-11-48-5-64 8-18 18-23 45-22 56 3 111 58 115 114 1 20 1 21-10 33-12 12-13 12-36 11-18-1-29-4-42-10l-17-9-22 25c-12 14-27 30-33 37-25 29-47 54-47 56 0 1 23 25 52 54l53 52 15-9c28-16 64-10 78 13 18 29-4 96-42 127-14 12-36 19-50 15-13-2-29-15-35-28-6-12-6-38 0-55l4-14-56-56c-31-31-58-55-59-54-1 1-24 26-51 56l-48 55 10 10c13 14 17 23 17 38 0 14-10 31-24 41-12 9-45 11-64 4z m43-31c15-13 13-35-6-48-11-6-11-6 28-48 16-17 44-48 62-70l34-38 9 6c5 4 37 35 72 70l64 63-4 17c-8 36 16 53 44 31 12-9 29-43 29-58 0-25-27-33-48-14-6 6-13 10-15 9-1 0-33-31-71-68-41-42-66-69-65-71 1-2 27-31 57-65 30-33 59-66 65-72l10-11 15 6c16 9 35 10 44 3 9-7 7-28-4-47-18-29-59-46-74-31-9 9-9 30 1 47l7 13-7 7c-3 4-27 31-52 59-26 28-53 58-60 67-8 8-15 15-17 14-2 0-35-32-74-70l-71-69 8-15c13-24 9-42-11-47-22-7-64 31-64 57 0 24 20 33 45 21l11-6 12 12c44 40 133 130 132 132 0 2-31 37-68 78-62 71-67 76-75 73-13-5-36-4-42 2-7 7-6 24 2 36 18 26 58 39 77 25z"/>
<glyph glyph-name="tamfo-bebre" unicode="&#79;" d="M395 502c-68-25-155-33-222-21-11 2-32 8-48 13-16 5-30 8-31 8-1-1 6-11 15-22 8-10 22-33 31-49 38-76 39-110 1-136-15-10-20-12-33-12-42 0-67 44-50 83 16 36 61 34 65-3 3-26-20-42-36-24-8 9-10 9-17 1-6-6-6-6 0-15 3-4 12-11 18-14 11-5 13-6 25-2 33 12 44 59 20 86-12 14-24 20-40 20-35 0-63-33-63-75 0-32 17-59 45-73 30-15 65-8 92 20l13 12 2-22c1-13 1-36-1-53-2-17-4-31-4-32 0-1-7 6-16 15-34 34-84 37-114 7-21-20-31-54-23-82 12-45 66-70 97-46 14 12 22 28 22 46 0 18-5 29-20 42-14 12-29 16-42 9-19-10-29-33-17-39 7-4 13-1 18 9 5 12 20 12 30 2 6-7 8-12 8-25 0-13-2-16-9-23-29-24-73 14-67 57 4 27 24 45 50 47 13 2 19 0 33-7 25-13 30-21 31-53 1-16 0-30-3-36-8-20-34-71-47-92-7-11-12-21-11-21 1-1 14 1 29 4 98 21 194 21 268-1 10-3 18-5 19-4 1 0-4 9-12 19-6 11-20 35-29 54-19 39-24 63-17 87 7 25 41 45 69 40 33-5 53-46 39-79-15-35-54-44-69-16-14 28 20 65 36 38 6-11 11-14 17-11 8 3 8 9 2 22-4 8-10 15-16 17-35 14-70-19-64-61 3-20 23-41 41-44 54-9 99 61 72 113-9 19-28 36-44 42-29 9-76-5-91-29-5-6-10-12-11-12-3 0-5 18-8 63l-2 43 12-11c36-34 80-35 113-3 24 24 31 50 21 82-12 40-50 61-82 45-14-7-21-14-27-29-17-41 20-87 56-70 12 6 22 20 19 28-3 7-15 6-22-1-14-15-34-2-34 22 0 15 8 27 22 31 29 10 56-29 47-65-2-10-7-19-16-28-24-24-55-21-83 7-13 13-14 15-15 34-1 15 1 25 7 44 15 43 32 73 77 133 5 8 3 7-26-4z m-167-92c12-1 31 0 50 3 17 3 31 5 32 5 0 0-2-8-5-17-12-35-17-77-17-148 0-74 5-120 19-160 4-12 7-23 7-23-1-1-6 0-12 2-14 4-86 4-99 0-6-2-12-3-12-2-1 0 3 8 7 17 18 37 21 58 21 138 0 63-1 79-7 112-6 34-13 64-18 78-1 2 0 3 6 0 5-1 17-4 28-5z"/>
<glyph glyph-name="akoben" unicode="&#80;" d="M173 510c0-1 17-20 38-41 44-44 63-73 74-114 1-4 2-18 2-31 0-20-1-24-11-36-15-18-24-22-73-25-25-2-47-5-49-7-3-2-5-2-5-1 0 2-4-1-8-5-19-17-6-45 24-57 19-6 26-11 17-11-13 0-28-22-23-35 3-9 22-20 33-20 4 0-3-4-14-10-22-11-25-15-25-27 0-11 8-18 27-25l15-5-16-2c-9-1-16-4-16-6 0-2-2-3-5-3-5 0-9-7-11-21-1-6 2-11 8-17 8-8 9-8 96-9 103-1 108-1 111 13 5 22-7 34-41 43-8 2-9 3-3 4 20 4 42 17 42 27 0 8-18 25-31 28l-15 5 17 5c16 6 29 18 29 28 0 11-22 27-39 27-13 0-11 5 6 14 19 11 35 27 44 43 11 18 13 83 4 110-5 18-15 40-18 44-1 1-5 6-8 12-13 20-29 36-52 53-9 6-18 13-21 16-2 2-4 4-4 2 0-1-4 1-10 5-25 18-89 39-89 29z"/>
<glyph glyph-name="nyame-nti" unicode="&#81;" d="M236 510c-1-1 2-6 6-12 4-5 9-12 11-16 3-5 9-24 9-28 0-4-17-4-26-1-5 2-13 3-18 3-7 0-8 0-6-3 2-2 4-3 5-3 2 0 5-2 8-5 5-7 18-7 30-2 6 2 7 2 8-1 1-3-1-34-2-35-2-2-24-1-39 0-15 2-18 0-8-5 3-2 9-5 13-7 7-4 8-4 20 0l13 5-1-8c-1-4-3-15-6-23l-4-16-11 0c-6 0-15 1-19 3-16 7-33 8-27 1 1-1 3-2 4-2 1 0 6-4 11-8 8-7 8-7 20-6 7 1 14 2 16 3 3 2 3-1-1-19l-6-22-13 1c-8 1-16 4-24 8-15 8-30 12-34 9-1-1 0-3 3-4 2-2 8-7 14-13 9-10 11-11 22-12 6-1 16-1 21 0 5 1 9 2 9 2 0-1-1-7-2-14-2-7-4-19-4-25-1-6-2-12-3-12-1-3-27 4-35 10-12 9-25 15-31 15-7 0-6-3 1-8 3-3 8-8 11-13 6-11 13-14 35-14l18 0 0-19c0-10 1-21 2-24l1-5-18 4c-11 3-21 6-25 9-15 12-44 22-44 16 0-1 3-5 7-8 4-3 10-9 13-14 3-5 8-11 11-13 9-4 40-6 49-3 5 2 7 2 7 0 2-6 12-54 11-55 0 0-9 1-20 3-15 2-21 4-30 9-12 7-36 16-45 17-8 0-7-6 3-12 5-3 13-10 17-16 9-14 15-16 41-16 18 0 23 1 30 4 4 2 8 4 8 4 0-1 4-10 7-22 4-12 8-23 8-24 0-2-7-3-20-3-20 0-22 0-35 6-37 16-80 16-48-1 6-3 15-10 20-15 4-5 11-10 14-11 13-5 51 0 65 8 4 3 8 4 8 4 1-2 7-31 8-43 2-14 2-15 18-8 21 8 42 14 52 14l10 0-16 18c-9 10-22 25-29 34l-12 15 10 2c12 1 25 7 40 18 15 10 19 16 20 33 1 6 4 16 7 21 5 9 6 16 3 16-8 0-33-27-43-46-4-7-9-12-23-22-21-15-18-16-33 13l-9 18 9 1c4 0 16 5 25 10 19 9 23 13 25 28 1 5 4 13 7 17 6 8 8 15 5 15-7 0-28-19-40-35-5-7-12-12-21-17l-14-8-2 5c-3 6-11 36-11 41 0 2 4 3 12 4 14 2 33 9 39 15 3 2 6 8 7 13 2 5 5 12 9 16 7 8 8 12 1 10-9-3-16-8-30-20-10-9-18-15-27-19l-13-5 0 17c0 9 1 22 1 27l2 10 7 0c10-1 34 5 39 9 2 2 6 8 8 13 3 5 7 11 9 13 6 5 6 8 1 8-5 0-26-13-34-20-5-5-27-14-28-11 0 1 1 9 3 20l4 18 9 0c5 1 14 3 21 5 10 3 11 5 16 14 3 6 7 12 9 14 4 4 5 8 1 8-4 0-20-11-27-18-6-6-24-14-26-12-1 0 4 28 7 38 1 2 4 3 14 3 17 0 28 6 33 16 2 3 5 9 8 11 2 2 4 4 4 5 0 6-18-2-29-12-8-7-25-14-26-10-1 1 0 6 1 11 1 6 2 13 3 17 1 7 2 8 10 10 13 4 27 16 27 25 0 4 1 10 3 13 1 3 2 6 1 7-2 2-9-4-18-17-5-8-12-16-15-18l-6-5-1 19c-1 14 0 20 2 20 4 0 19 13 22 19 2 4 3 9 2 12 0 4 0 9 1 12 1 3 2 6 1 6-2 3-9-7-14-18-4-11-14-25-17-25 0 0-1 2-1 4 0 6-11 28-19 36-7 8-14 10-17 6z"/>
<glyph glyph-name="mmusuyidee" unicode="&#82;" d="M54 506c4-2 10-7 13-9 3-3 7-6 8-6 1 0 4-2 8-5 3-4 17-17 31-29 13-12 24-23 24-24 0-1 8-10 18-20 9-10 16-20 16-21 0-1 5-11 12-21 10-17 16-29 18-40 1-1 3-11 7-22 3-10 4-19 4-20-2-1-30 13-33 17-1 1-9 6-17 11-14 10-46 42-56 57-3 5-10 13-14 19-5 5-11 14-14 19-2 5-6 11-8 14-3 3-13 21-22 40-10 18-19 35-21 37-2 2-3-101-3-247 0-137 0-250 1-250 1 0 7 9 13 20 18 33 41 62 75 97 35 35 46 45 52 45 2 0 3 2 3 4 0 1 2 2 3 1 2-1 4-1 5 1 0 1 7 5 14 9 12 5 13 5 10 1-3-3-4-6-3-6 1 0-2-8-7-17-5-9-10-17-12-17-1 0-3-4-4-9-2-5-4-8-6-8-2 0-3-2-3-4 0-5-13-19-45-51-35-35-48-47-51-47-1 0-6-3-11-7-5-5-12-10-15-13-6-5 16-5 208-5l215 0-9 7c-4 3-11 9-14 12-4 2-7 4-9 4-4 0-63 59-75 74-4 6-9 12-11 14-2 3-4 6-4 8 0 2-2 4-4 4-1 0-3 2-3 5 0 3-3 8-6 10-7 8-25 44-23 48 2 2 19-4 22-8 1-1 6-3 10-4 11-3 86-76 103-100 7-9 15-22 19-29 4-7 10-17 15-23l8-10 0 246c0 208-1 244-5 239-2-4-11-20-19-35-8-15-18-32-23-37-4-6-8-12-8-15 0-2-3-7-6-11-3-4-10-12-15-18-12-15-66-67-67-65-1 1-5-2-9-6-5-3-15-10-23-14l-14-8 2 10c1 5 4 14 7 21 2 6 4 14 4 18 0 3 7 16 16 29 8 12 15 24 15 25 0 0 2 3 5 6 2 2 8 9 13 15 10 13 35 37 51 50 6 6 14 13 17 17 3 3 7 5 8 5 2 0 5 2 7 4 3 2 10 8 16 14l12 10-211 0c-188 0-211-1-205-6z"/>
<glyph glyph-name="mpatapo" unicode="&#83;" d="M372 481c-26-5-51-25-60-49-4-7-6-23-6-37l0-24-95 0-2 22c-1 11-5 27-8 34-24 59-119 71-168 22-39-39-40-99-3-140 18-20 37-28 69-28l22 0-1-23-1-23-23-2c-12-1-29-6-36-10-19-9-45-38-51-57-16-48 5-103 48-124 17-8 21-9 46-8 20 1 32 4 46 11 35 17 61 56 61 91l0 11 91 0 4-27c3-22 6-31 15-45 45-65 141-58 176 14 12 22 11 67 0 90-17 35-52 58-88 58l-16 0 0 44 25 0c56 0 92 37 92 94 0 57-42 101-103 107-10 1-25 1-34-1z m56-33c55-19 71-97 26-128-9-6-16-8-36-8l-26 0 0 28 21 0c16 0 21 1 29 9 18 17 8 56-18 68-15 7-42 7-52 0-7-5-7-6-7-93l0-87-30 0-1 85c0 52 1 89 3 96 4 12 17 25 30 31 14 6 42 6 61-1z m-288-2c14-6 31-21 36-33 2-5 3-46 3-92l0-84-28 0 0 162-10 10c-9 9-12 10-29 10-34 0-50-14-50-42 0-14 2-18 10-27 9-9 12-10 31-10l21 0 0-28-30 1-29 1-13 14c-17 18-23 41-17 68 5 22 26 44 46 50 18 5 46 4 59 0z m268-55c21-7 21-20 0-20-16 0-16 0-16 12 0 13 2 14 16 8z m-287-10c2-10 1-10-15-10-14 0-17 1-17 7 0 8 9 13 21 14 8 0 10-2 11-11z m185-57l0-15-96 0 0 31 96 0z m0-65l0-22-96 0 0 44 96 0z m133-60c22-11 34-30 35-60 2-28-4-43-19-58-19-20-44-26-71-18-31 9-50 35-50 67l0 17 14 0c13 0 13 0 13-12 0-18 6-29 21-38 20-14 43-9 57 12 13 19 10 44-9 61-7 7-12 7-171 5-90-1-167-2-172-4-3-1-11-8-16-13-21-25-5-66 25-66 28 1 55 23 55 46 0 9 1 9 14 9l14 0 0-14c0-18-8-35-25-49-14-12-41-23-59-23-17 1-39 12-48 27-23 35-18 74 14 102 17 15 25 15 198 16 159 0 166-1 180-7z m-319-60c0-7-2-10-11-14-12-5-20-2-20 7 0 6 14 15 24 15 6 0 7-2 7-8z m296 1c6-10-1-21-13-20-8 1-9 3-10 15-1 12-1 12 9 12 7 0 12-2 14-7z"/>
<glyph glyph-name="nyame-ye-ohene" unicode="&#84;" d="M241 506c-3-3-11-10-18-16-15-16-20-17-44-8-33 11-41 8-50-19-11-32-13-34-42-37-33-4-39-11-35-39 3-25 2-30-4-38-4-3-13-10-20-15-27-15-28-24-10-52 15-23 15-29 0-52-18-28-17-37 11-54 8-4 17-11 20-14l5-7-1-26c-2-29-1-33 9-38 3-2 14-4 25-5 11-1 22-4 25-5 6-3 11-12 18-32 2-7 7-16 10-20 7-8 14-8 39 1 26 9 28 8 51-13 16-15 18-17 25-17 9 0 14 3 33 22 15 16 20 17 44 8 33-11 41-8 50 19 11 32 14 34 42 37 33 4 40 11 36 39-4 25-3 30 4 38 3 3 12 10 19 15 27 15 29 24 10 52-14 23-14 29 0 52 19 28 17 37-11 54-8 4-16 11-19 14l-6 7 2 26c1 29 0 33-9 38-3 2-15 4-26 5-10 1-22 4-25 5-6 3-11 12-17 32-3 7-7 16-10 20-8 8-15 8-40-1-26-9-28-8-50 13-17 15-19 17-26 17-6 0-10-2-15-6z m37-52c47-6 88-26 121-60 37-39 55-85 55-138 0-53-18-99-55-138-79-82-208-82-287 0-36 39-55 85-55 138 0 53 19 99 55 138 32 33 74 54 119 60 19 2 27 2 47 0z m-90-19c-10-3-14-10-14-20 0-10 4-22 10-26 3-1 0-3-15-11-15-7-21-12-32-23-25-25-35-51-37-97-1-32 2-57 11-90 6-22 9-30 7-15-1 6-1 19-1 30 1 33 11 63 31 93 11 18 39 45 58 58 15 9 17 10 25 10 9-1 10-1 10-8 1-10-13-23-35-32-28-11-41-27-31-37 7-5 18-6 35-1 14 3 17 4 21 1 14-6 3-21-23-30-26-8-40-22-40-38 0-15 10-17 33-8 7 3 17 6 22 6 21 3 13-16-16-35-16-10-25-20-31-31-12-25 1-50 25-50 14 0 31 9 38 19 6 8 12 12 19 12 7 0 10-4 12-16 2-15 8-20 22-22 14-1 24 3 30 9 4 7 5 23 1 31-3 6-3 6 10 13 39 22 67 56 76 94 2 11 3 20 2 38-1 27-6 48-20 78-7 18-27 50-28 49-1-1 0-11 2-23 1-12 3-41 4-64 1-48-1-66-12-89-8-18-17-28-35-40-23-15-39-18-42-7-2 10 8 22 26 30 13 5 23 13 27 21 4 8 3 11-1 16-5 5-14 5-27 1-13-4-21-4-31 1-7 3-8 5-8 10 0 7 7 14 27 21 26 10 41 23 41 37 0 11-17 14-40 6-14-5-22-5-24 0-4 7 6 23 34 51 32 33 36 42 28 57-7 13-27 19-47 14-8-2-19-11-19-15 0-4-12-16-19-19-6-3-6-2-11 3-2 3-4 8-4 11 0 10-4 20-11 25-5 4-8 5-16 5-6 0-13-1-17-3z"/>
<glyph glyph-name="nyansapo" unicode="&#87;" d="M212 509c-2-2-3-13-4-47l-1-44-11-4c-28-10-53-31-65-56-9-18-11-28-11-50 0-16 1-21 6-35l5-17-3-7c-8-20-11-51-6-72 5-22 20-45 38-60 10-9 31-19 44-23l9-2 1-43c0-25 1-44 2-45 4-4 11-4 16-1 4 4 4 4 5 44l1 41 9 0c5 0 15 0 22 1l12 1 0-41c0-22 1-42 2-43 1-2 8-6 11-6 1 0 4 2 6 5l5 4 0 86 7 2c29 9 58 33 70 58 9 18 11 30 10 55 0 18-1 23-5 34l-6 12 4 10c6 16 8 23 8 43 0 34-9 56-31 79-11 11-17 15-31 22-9 5-20 9-24 10l-7 1 0 42c0 40-1 43-4 46-5 4-15 3-18-2-3-6-3-207 0-213 2-3 5-5 13-6 21-3 35-8 46-16 6-5 12-10 13-12 3-4 2-5-4-12-10-10-26-17-44-20-8-1-16-3-17-5-3-2-4-7-4-56l0-53-9-1c-6-1-15-1-22-1l-13 0 0 51c0 47 0 55-4 60-1 0-8 2-16 3-18 2-33 9-45 18-11 10-13 13-7 19 11 12 33 22 49 22 7 0 14 3 16 6 1 2 2 50 2 109 0 100 0 106-3 109-5 4-14 4-17 0z m109-120c15-7 32-24 39-38 10-21 13-48 7-65l-2-6-10 8c-12 10-29 18-44 21l-11 2 0 86 5-1c2-1 10-4 16-7z m-113-38l0-41-12-3c-15-4-30-12-40-20l-8-7-2 5c-9 27 0 63 22 84 9 9 33 24 38 24 1 0 2-19 2-42z m-30-138c7-4 18-8 24-9l12-2 0-85-5 1c-11 2-28 12-37 20-19 18-29 39-29 66 0 9 1 19 3 23l2 7 9-7c4-5 14-11 21-14z m191 4c6-36-13-72-47-90-7-3-14-6-15-6-1 0-2 12-2 42l0 41 11 2c14 3 34 14 42 22 7 7 8 6 11-11z"/>
<glyph glyph-name="mpuannum" unicode="&#88;" d="M370 508c-30-8-58-32-72-61-9-21-12-51-6-73 2-8 4-15 3-15 0 0-6 1-13 3-15 5-38 5-53 0l-12-3 2 7c1 3 2 17 2 30 0 20-1 25-9 40-18 41-57 66-100 66-71 0-124-68-106-136 14-57 71-93 127-81 16 3 18 3 16-1-4-9-4-40 0-55 2-8 4-15 3-15 0-1-7 1-14 3-36 9-73-1-101-27-44-42-47-110-5-155 54-57 147-42 180 30 10 21 13 51 7 73-2 8-4 15-3 15 0 0 6-1 13-3 15-5 37-5 53 0 7 2 13 3 13 3 1 0-1-7-3-15-6-22-3-52 6-73 34-72 127-87 181-30 42 45 39 113-5 155-28 26-65 36-101 27-7-2-14-4-14-3-1 0 1 6 3 14 2 8 4 20 4 28 0 8-2 20-4 28-2 8-4 14-3 14 0 1 7-1 14-3 36-9 73 1 101 27 44 42 47 110 5 155-28 29-71 42-109 31z m50-41c25-8 48-38 48-65 0-24-18-51-40-62-14-6-38-8-53-2-24 8-45 39-45 64 0 22 16 50 36 60 17 9 34 11 54 5z m-289-9c15-4 33-18 41-32 14-26 11-56-8-78-34-40-102-26-117 24-5 16-5 23 0 39 11 36 47 57 84 47z m154-140c21-10 40-39 40-62 0-25-21-55-43-63-16-6-37-6-53 0-22 8-43 38-43 63 0 22 18 51 37 60 18 10 42 10 62 2z m-145-145c14-6 30-24 36-39 7-18 7-30 0-48-13-34-49-51-84-41-20 6-39 25-45 44-5 18-5 24 0 41 11 38 55 58 93 43z m289-2c21-10 39-38 39-61 0-28-23-57-49-65-36-10-71 7-84 41-7 18-7 30 0 48 8 22 26 37 52 44 9 2 31-1 42-7z"/>
<glyph glyph-name="nea-onnim-no-sua-a-oh" unicode="&#89;" d="M297 428l0-84-31 0 0 166-42 0 0-166-29 0 0 166-180 0 1-14 0-14 69-1 69-1 0-39-132 0 0-29 132 0 0-58-134 0 0-214 134 0 0-42-139 0 0-31 139 0 0-30-141 0 0-31 182 0 0 143 32 0 0-146 41 0 0 146 29 0 0-148 202 0 0 29-158 0 0 27 74 0 73 1 0 29-73 1-74 1 0 56 149 0-1 101-1 102-73 0-74 1 0 63 144 0-1 15 0 15-72-1-71 0 0 42 153 0 0 29-197 0z m-209-182l0-77-39 0 0 153 39 0z m66 0l0-77-37 0 0 153 37 0z m231 1l0-71-44 0 0 141 44 0z m73 0l0-71-41 0 0 141 41 0z m-161 41l0-24-102 0 0 48 102 0z m0-83l0-26-102 0 0 53 102 0z"/>
<glyph glyph-name="odo-nnyew-fie-kwan" unicode="&#90;" d="M241 509c-16-6-25-11-36-23-9-10-12-16-17-31-1-2-3-5-5-5-35-10-51-17-68-28-71-48-69-135 8-258 8-14 15-26 15-26 0-1-4-2-8-3-12-3-33-17-41-30-18-27-15-58 9-81 23-22 48-27 75-14 13 7 26 25 26 37 0 14-17 22-30 13-3-2-6-6-6-8 0-7-9-14-19-14-8 0-11 2-19 10-9 9-10 12-10 20 0 21 15 34 39 34 9 0 12-1 15-6 6-8 49-59 70-82l13-15 12 5c16 8 37 28 61 58 33 42 31 40 42 40 13 0 26-7 34-17 11-17 5-36-15-45-10-5-11-5-17-1-4 2-9 6-10 10-4 8-13 15-19 15-8 0-18-10-18-18 0-33 46-54 81-37 59 27 51 108-13 125l-11 3 18 32c20 37 36 75 45 110 5 21 6 29 5 55-1 30-1 32-10 50-15 31-40 51-77 64-12 4-14 5-17 15-5 15-23 34-39 41-17 7-47 10-63 5z m48-37c3-1 8-5 11-8l5-6-31 0c-17 0-34-1-39-1-8-2-8-2-5 3 10 16 39 22 59 12z m44-53c34-7 57-23 68-46 25-50 0-137-69-241-15-21-48-65-50-65 0 0-1 41-1 91l0 91 8-6c10-7 29-10 44-7 35 7 58 51 44 85-5 14-23 31-38 37-13 6-40 8-52 4-6-1-6-1-6 30l0 32 17-1c10-1 25-3 35-4z m-90-28c0-27-1-30-5-29-2 1-10 2-18 3-50 5-91-38-79-82 9-28 28-45 56-47 17-1 29 2 39 11l7 7 0-190-15 17c-32 37-68 89-89 126-26 47-37 82-37 116 0 26 4 41 18 56 18 22 70 41 114 43l9 0z m-9-66c9-5 9-5 9-25l0-21-7 3c-7 2-16 0-21-6-2-2-6-5-9-6-20-5-37 22-27 42 9 17 38 24 55 13z m100-6c9-8 10-11 10-22 0-12-1-14-9-21-10-9-17-9-28-1-5 4-12 7-17 7l-9 0 0 40 9 4c5 3 12 4 21 3 12 0 15-2 23-10z"/>
<glyph glyph-name="woforo-dua-pa-a" unicode="&#48;" d="M292 455l1-23 79-1 79 0 0-137 61 0 0 185-220 0z m-292-69l0-92 68 0 0 137 78 0 78 1 1 22 0 23-225 0z m75-133l1-35 74 0 74-1 0 70-149 0z m220-1l0-35 74 1 74 0 0 34 1 34-149 0z m-295-128l0-91 112 0 112 1 1 24 0 25-158 0 0 133-67 0z m449 25l0-66-157 0 0-50 220 0 0 183-63 0z"/>
<glyph glyph-name="okodee-mmowere" unicode="&#49;" d="M229 502c-9-10-10-12-10-40 0-17 0-34 0-40l0-10-45 2c-40 1-45 1-53-5-6-5-8-10-8-18 0-18 12-23 54-25 6 0 11-4 15-11 3-5 10-12 15-14 13-4 14-6 14-37 1-30 3-28-29-32-29-4-49-19-49-39 0-7 16-24 24-24 3-1 17-1 31-2 27-1 34-5 34-20 0-12-7-15-30-15-39 0-69-12-74-30-5-20 9-26 63-30 26-1 33-3 40-9 9-8 10-22 4-40-3-9-3-16 0-29 6-23 15-33 31-33 16 0 22 6 29 29 5 16 5 21 2 32-6 20-5 33 4 41 7 6 14 8 40 9 54 4 68 10 63 30-5 18-35 30-74 30-23 0-30 3-30 15 0 15 7 19 34 20 14 1 28 1 31 2 8 0 24 17 24 24 0 20-20 35-49 39-32 4-30 2-29 32 0 31 1 33 14 37 5 2 12 9 15 14 4 7 9 11 15 11 43 2 54 7 54 26 0 19-11 25-44 22-14-1-34-2-45-1l-18 2 1 36c1 28 0 39-4 47-6 12-12 14-34 14-14 0-18-1-26-10z"/>
<glyph glyph-name="nea-ope-se-obedi-hene" unicode="&#50;" d="M325 501l0-11 160 0 0-160 12 0 11 1 0 180-91 1-92 0z m-322-83l0-93 23 0 0 163 74 1 74 0 1 11 0 10-172 0z m33-163l1-226 220 0 219 0 1 113c0 62 0 164 0 225l-1 113-440 0z m146 209c-42-18-66-35-89-61-7-7-9-8-11-6-1 1-9 12-17 24l-16 21 0 24 69 0c51 0 67-1 64-2z m281-7c0-10 0-11-16-33-9-13-17-24-18-25-1-1-9 5-18 14-24 23-41 34-79 51-3 1 13 2 63 2l68 0z m-171-8c26-5 57-18 78-33 47-34 78-87 83-144 6-72-28-141-88-182-24-15-54-27-81-30l-9-1 6 8c3 4 6 8 7 9 1 0 7 2 14 4 19 5 49 20 65 33 31 25 53 58 63 97 15 60-2 123-45 168-24 25-52 41-85 50-15 4-20 5-44 5-23 0-29-1-42-4-65-17-112-63-132-127-4-15-4-17-4-48 0-28 0-34 3-45 12-44 39-81 75-105 17-11 31-18 51-23 8-3 15-5 16-5 0-1 4-5 7-9l5-8-7 1c-73 12-136 64-158 134-13 40-13 85 1 124 24 71 88 124 162 133 15 1 44 1 59-2z m-26-161l0-120-5-6c-2-3-5-6-6-6-1 0-4 3-6 6l-4 6 0 240 21 0z m-42-39l0-52-50 70-50 70 6 8c8 11 26 29 37 36 13 9 35 19 47 22l10 3 0-53c1-29 1-76 0-104z m89 149c15-6 35-18 48-30 9-9 24-26 24-30 0-2-97-139-98-139-1 0-1 46-1 103l0 104 7-1c4-1 13-4 20-7z m146-39l-4-5-6 11c-4 6-6 12-6 12 0 1 5 8 10 15l9 13 1-20c0-18 0-20-4-26z m-396 3l-6-12-4 5c-3 4-4 6-4 26l0 21 10-14 10-15z m340-61c2-5 4-11 4-13 0-3-150-215-152-215 0 0-7 9-14 19-8 10-42 58-76 106l-62 87 3 8c1 5 3 11 4 15l2 5 54-74c29-42 61-86 71-100 9-14 18-25 18-25 1 0 135 188 140 196 3 6 4 5 8-9z m6-74c-6-29-19-56-38-77-15-17-36-32-53-39l-7-3 3 5c2 3 24 35 49 70 43 60 46 65 47 60 0-3 0-10-1-16z m-259-49c26-36 47-66 48-67 2-3-9 2-23 10-39 23-68 68-74 116-1 7 0 10 1 9 1-1 22-32 48-68z m-77-46c27-39 66-70 107-85 8-3 7-3-61-3l-70 0 0 132 8-16c4-8 11-21 16-28z m390-24l0-64-137 0 14 6c17 6 35 17 50 28 26 19 56 56 67 83 3 6 5 11 5 11 1 0 1-29 1-64z m22-4l0-82-153 0 0-22 177 0 0 187-24 0z m-481-14l0-88 174 0 0 21-76 0-76 0 0 154-23 0z"/>
<glyph glyph-name="nkonsonkonson" unicode="&#51;" d="M141 509c-13-4-42-30-53-47-9-16-26-54-28-64-1-4-5-19-9-32-6-21-7-35-8-100-1-74 1-98 10-129 3-9 6-19 7-24 2-11 26-63 30-65 2-1 3-3 3-5 0-5 35-37 44-41 20-6 73-1 73 8 0 2 2 3 5 3 3 0 5 1 5 3 0 1 6 8 14 16 7 8 13 15 14 17 0 2 2 6 5 9 3 6 5 4 19-16 8-12 17-24 20-25 3-1 10-5 16-10 9-7 13-8 37-7 25 0 30 1 42 10 35 24 59 66 75 134 9 35 9 39 8 120-1 75-2 87-8 106-4 11-8 25-9 31-1 5-5 16-8 24-4 7-7 14-8 16 0 6-36 54-39 54-2 0-8 4-15 8-16 10-53 12-70 4-14-7-44-38-50-52l-6-12-6 11c-4 5-7 12-7 13 0 2-1 4-3 4-2 0-4 1-4 3 0 4-14 21-17 21-2 0-9 4-16 8-11 8-16 9-35 9-13-1-25-2-28-3z m51-47c8-3 39-45 39-54 0-5-4-6-17-6-25 0-34-8-34-32 0-19 5-31 27-58 6-7 9-13 8-13-2 0 0-4 4-8 10-11 13-19 14-44 1-25-2-32-23-52-8-7-14-14-14-16 0-2-3-7-7-10-18-14-29-40-25-55 2-7 4-12 5-11 1 0 7-3 14-5 7-3 18-6 23-6 12 0 13-1 4-13-9-13-33-29-43-29-7 0-24 14-24 22-1 1-4 8-8 16-4 8-8 17-9 20 0 4-4 14-7 23-6 15-6 17-1 32 3 10 7 20 8 23 0 4 5 12 10 18 5 7 9 13 9 14 0 2 5 9 20 28 2 2 4 6 4 8 0 4-14 28-17 31-3 2-9 13-21 38-3 6-9 21-12 33l-6 21 11 28c6 15 12 28 14 28 2 0 3 1 3 3 0 4 18 23 24 25 7 3 17 3 27 1z m184-26c12-17 27-53 27-65 0-9-14-47-21-59-2-2-6-10-10-17-3-6-10-18-15-26-5-9-9-17-9-19 0-2 5-11 12-18 16-20 35-60 38-79 2-17-3-35-24-77-15-33-34-36-60-10-18 19-18 25 3 26 19 0 29 7 33 23 2 15-8 37-28 58-5 6-14 15-19 21-5 6-13 14-16 20-8 12-8 41 0 57 13 27 20 38 23 38 2 0 3 2 3 4 0 3 3 8 7 11 10 9 19 40 16 55-2 11-5 14-14 18-7 3-16 4-24 2-15-2-16 2-5 22 10 20 31 39 42 40 14 1 29-8 41-25z"/>
<glyph glyph-name="onyankopon-adom-nti-biribiara-beye-yie" unicode="&#52;" d="M357 501c-34-5-70-19-89-34-9-6-9-6-12-2-11 11-44 25-75 29-27 5-63 3-84-3-47-14-78-43-92-85-4-11-4-16-4-40 0-25 1-30 5-44 7-23 20-49 46-88 37-57 47-70 104-139 35-42 59-66 76-79 16-12 18-12 42 7 21 16 55 52 90 95 66 78 90 113 118 169 21 43 29 72 29 108 0 21 0 25-5 38-12 34-36 56-74 66-18 5-53 6-75 2z m50-40c5-1 5-2-13-11-30-15-39-22-61-44l-19-20-16 6c-28 9-69 7-99-7-7-3-12-5-13-5 0 1-4 6-8 13-12 18-29 33-53 47-11 7-21 13-21 14 0 2 29 4 44 2 23-1 46-7 59-13 15-7 29-19 29-24 0-3 2-6 5-8 3-4 6-4 13-3 8 0 10 1 16 8 4 4 7 9 7 11 0 2 3 6 7 9 17 16 55 26 96 26 12 0 24 0 27-1z m63-56c4-15 4-24 0-44-7-37-22-70-60-127-15-22-29-42-30-44l-4-4-9 12c-5 7-9 14-9 15 0 1 3 6 7 12 25 37 23 86-4 124-4 4-7 9-7 11 0 3 27 28 38 34 6 3 21 10 34 15 14 4 27 10 31 11 8 4 9 2 13-15z m-413 11c4-3 18-10 31-17 30-15 39-21 53-38l11-14-5-11c-19-41-12-93 18-130l9-11-7-11c-13-19-11-19-28 3-20 25-63 91-78 116-19 35-27 70-22 93 2 8 9 25 11 25 0 0 4-2 7-5z m264-119c-2 0-14-1-26-2l-22-1 1 12c1 7 2 18 2 26l1 12 24-23c22-20 24-23 20-24z m-81-7c-1-1-51-3-51-2 0 0 9 12 20 27l20 26 6-25c3-13 6-25 5-26z m81-28c-9-12-40-47-41-47 0 0-2 10-4 22-1 12-3 23-4 26l-1 4 55 0z m-79-5c0-4-2-16-3-26-1-10-3-18-4-18-1 1-11 12-23 25l-21 24 11 1c6 1 18 1 26 2l15 0z m100-103l5-5-28-31c-30-35-57-63-62-63-4 0-31 27-53 54l-20 24 9 10c6 5 13 14 17 18 6 8 7 9 12 8 3-1 11-2 18-3 22-3 52 3 73 13l8 5 9-13c4-7 10-15 12-17z"/>
<glyph glyph-name="osram-ne-nsoromma" unicode="&#53;" d="M247 465c-7-8-7-19 2-26 11-11 8-17-13-22-22-5-28-2-28 15 0 23-18 29-36 11-19-19-13-37 10-37 7 0 12-1 13-3 1-1-3-11-10-22-14-20-24-25-30-11-5 11-23 12-30 2-17-24 7-58 26-37 4 4 9 7 13 7 5 0 6-3 6-14 0-7 3-19 5-26 3-7 5-13 4-15-1-1-8-2-16-2-15 0-20-4-20-19 0-11 12-25 24-28 11-3 20 5 20 19 0 14 5 15 20 5 7-5 19-10 26-12l13-4-10-9c-16-12-15-26 1-34 25-13 51 10 32 28-9 8-6 14 11 19 8 2 19 7 23 10 12 8 17 3 15-12-2-9-1-12 6-17 8-5 10-5 21 0 26 11 25 43-1 43-15 0-18 5-11 20 4 7 8 17 9 23 2 8 4 11 9 11 3 0 6-2 6-4 0-6 12-16 18-16 11 0 20 14 20 29 0 22-16 33-31 18-10-10-22-8-25 3-1 5-5 15-10 22-10 15-7 23 9 23 14 0 19 5 19 18 0 14-13 26-28 26-14 0-21-9-18-21 1-5 0-11-2-14-4-6-5-5-19 0-16 7-19 18-6 23 10 5 12 24 1 31-10 7-31 7-38-1z m32-87c32-17 39-57 12-80-33-29-76-19-87 20-7 25 6 53 29 63 12 6 32 4 46-3z m213-55c-27-55-61-102-95-136-47-46-86-64-140-64-34 0-54 5-92 24-46 24-108 95-149 170-7 13-14 25-15 25-1 0-1-18 0-40 2-50 11-85 32-127 13-27 21-37 45-62 25-24 35-32 62-45 106-51 236-26 308 59 39 47 59 102 62 172 1 25 1 47 0 51-1 3-8-7-18-27z"/>
<glyph glyph-name="nkyimu" unicode="&#54;" d="M0 500c0-5 16-23 36-40 19-17 35-36 35-42 0-7-16 4-35 23-54 52-43 23 13-34l48-49-48-44c-28-24-49-47-49-51 0-4 25 16 57 45 57 52 75 59 83 30 3-11 2-11-7 1-9 12-21 5-72-45-53-53-61-65-61-99 0-32 7-45 47-81 25-24 55-54 65-69 18-27 18-27-5-26-15 0-42 18-66 41-23 21-41 35-41 29 0-5 17-27 39-47 31-32 45-38 81-38 41 0 57 13 30 23-10 4-10 7 0 7 7 1 16-7 19-15 9-24 21-18 67 32 23 25 51 51 63 57 12 6-4-16-35-47-69-71-55-76 15-6l52 52 49-52c26-29 53-51 58-49 4 2-19 32-53 67-35 35-58 63-53 63 6 0 39-29 73-66 36-36 66-66 69-66 5 0-108 133-124 144-6 5-6 8 3 8 6 0 42-34 80-76 37-42 70-74 73-71 3 3-22 35-57 69-35 35-63 68-63 73 0 5 27-17 61-50 34-34 61-56 61-51 0 5-24 33-53 64l-54 54 54 50c29 29 53 57 53 63 0 6-27-15-61-48-34-34-61-56-61-50 0 6 27 37 61 69 86 82 76 83-15 1-43-38-81-66-84-62-4 3-1 6 6 6 7 0 12 5 12 11 0 6-7 8-18 5-12-5-35 12-82 57-67 65-54 39 19-39 23-25 37-44 31-44-14 0-124 124-120 136 8 23 27 13 83-45l59-62 84 80c45 43 84 82 85 86 0 4-23 29-52 58-29 27-51 53-47 57 3 3 28-15 54-43 55-57 58-46 4 14-32 36-42 41-86 42-50 2-51 1-116-66-65-68-46-57 39 21 23 23 42 36 42 30 0-6-30-37-67-69-49-45-69-56-78-47-8 8 3 26 48 71 57 58 58 60 30 60-20 0-43-14-78-48-27-25-53-48-57-50-4-1-29 21-55 48-29 32-54 50-68 49-11-1-20-5-20-9z m80-51c28-29 49-56 46-58-6-6-106 92-106 103 0 15 8 8 60-45z m143-3c-30-31-58-56-64-56-5 0 16 25 45 56 30 30 58 56 64 56 6 0-14-26-45-56z m260-64c-6-6-101 97-105 114-2 6 22-17 53-49 31-34 55-62 52-65z m-66 44l55-56-67-67-67-67-57 60-56 59 62 64c35 34 66 63 69 63 3 0 30-26 61-56z m-310-54c-6-7-36 18-36 31 0 5 9 2 20-8 12-10 19-20 16-23z m50-3c12-16 1-20-13-3-7 8-8 14-3 14 5 0 13-5 16-11z m-86-106c-70-71-58-73 17-2 32 29 55 47 52 39-2-8-31-39-65-68-56-50-61-52-60-30 0 25 95 132 106 122 3-3-20-30-50-61z m205-61c6-11-15 5-46 36-32 30-57 60-57 65 0 13 89-74 103-101z m-66-83l-58-59-58 59-58 59 58 57 60 57 115-115z m-120-15c31-33 51-59 45-59-9 0-37 29-94 95-44 51-7 24 49-36z m143-5c-48-51-50-54-15-27 23 17 52 44 65 58 15 14 30 26 36 26 6 0-20-29-58-66-57-53-72-63-83-52-11 10-4 22 43 70 32 32 59 56 62 53 3-3-20-31-50-62z m-131 368c24-25 46-46 48-46 11 0-67 85-80 89-8 3 6-16 32-43z m370 15c17-17 32-29 34-26 7 7-40 56-53 56-5 0 3-13 19-30z m-45-197l-66-72 73 60c39 34 73 67 73 74 2 23-13 12-80-62z m-427-155c0-5 23-32 51-60 28-27 51-46 51-40 0 6-23 33-51 60-28 28-51 46-51 40z"/>
<glyph glyph-name="nkyinkyim" unicode="&#55;" d="M33 438l0-74 389 0 0-24-389 0 0-161 386 0 0-30-386 0 0-148 69 0 0 82 50 0 0-82 69 0 0 82 30 1 29 1 0-84 80 0 0 81 26 2 26 1 0-84 66 0 0 247-376 0 0 20 376 0 0 165-376 0 0 16 376 0 0 63-445 0z"/>
<glyph glyph-name="owo-foro-adobe" unicode="&#56;" d="M0 364l0-14 241 1 241 1 1 13 1 12-484 0z m0-31c0-13 0-13 12-14 11-1 14-4 52-64l41-63-39-1-39-1 1-13 1-13 241-1 241 0 0 13c0 13-1 14-10 15-9 1-15 7-51 64l-40 63 36 1 36 2 1 13 1 13-484 0z m102-75c22-34 40-63 40-65 1-2-4-3-10-3-11 0-13 2-51 63-22 34-40 63-40 64 0 1 5 2 11 2 11 0 13-2 50-61z m31 15c16-26 29-49 30-51 0-2-2-7-5-11-7-7-7-7-43 50l-36 58 12 0c13 0 13 0 42-46z m31 14c11-17 19-32 19-34 0-2-2-7-5-11-6-7-6-7-26 24-10 17-23 36-27 42l-7 12 13-1c13-1 14-3 33-32z m61 31c0-1-7-14-16-28l-17-25-16 26c-9 14-16 26-16 27 0 1 15 1 32 1 18 0 33 0 33-1z m40-1c0-2-12-21-26-43l-26-40-6 10-6 10 21 33c20 31 21 32 32 32 7 0 12-1 11-2z m38-5c-2-4-4-6-5-6 0 1-3 4-5 8-4 5-4 5 5 5 8 0 8 0 5-7z m40 2c-2-4-4-7-5-8 0 0-2 2-4 6-4 7-3 7 5 7 8 0 9 0 4-5z m90-57c22-35 40-64 40-65 0-1-5-2-11-2-11 0-13 3-50 62-22 33-40 63-40 64-1 2 4 3 10 3 12 0 13-1 51-62z m-149 45l6-10-29-45c-28-43-28-43-34-36-3 4-5 10-5 11 1 4 55 90 56 91 0 0 4-5 6-11z m46-10c0-1-3-5-6-9l-6-9-6 9c-6 9-6 10 0 19l6 10 6-9c3-5 6-10 6-11z m97-87l9-13-9-1c-5-1-11-1-13 0-4 2-67 98-67 102 0 2 3 7 6 11l5 9 30-47c16-26 33-53 39-61z m-122 65c5-8 5-9-18-44-21-34-23-36-34-36-14 0-14-2 15 44 10 16 21 33 23 37 7 10 7 10 14-1z m63-37l27-41-11-1c-12-2-13-1-40 42-18 28-18 28-12 37 3 5 6 8 8 7 1-1 14-21 28-44z m-31-12c9-16 17-29 17-29 0-1-16-2-36-2-19 0-35 1-35 2 0 2 34 56 35 56 1 0 9-12 19-27z m-133 0c0-1-3-6-6-10l-7-8-5 9c-5 9-5 11 1 19l5 10 6-10c4-5 6-9 6-10z m-25-21l5-10-10 0c-6 0-11 1-11 2 0 2 8 18 9 18 1 0 4-4 7-10z m41-9c-3-1-9-1-12 0-7 1-7 1-2 9l6 8 7-8c6-7 6-8 1-9z m-193-44l0-12 484 0 0 24-484 0z"/>
<glyph glyph-name="wo-nsa-da-mu-a" unicode="&#97;" d="M132 503c-39-21-68-74-84-155-7-37-7-146 0-183 16-82 45-135 84-155 40-21 79-7 109 38 7 10 14 18 14 18 1 0 8-8 14-18 30-45 70-59 110-38 39 20 68 73 84 155 7 37 7 146 0 183-16 81-45 134-84 155-40 20-80 6-110-38-6-10-13-18-14-18 0 0-7 8-14 18-30 44-69 58-109 38z m62-43c11-8 24-27 33-49 9-25 10-24-23-25l-29-1 24-31c22-29 23-31 18-34-10-5-24-23-28-33-7-24 4-57 24-69l8-5-26-30-26-31 36 0c42 0 40 2 29-31-17-50-49-76-74-60-15 11-40 66-51 117-7 33-9 114-3 148 9 48 28 108 41 127 12 16 29 19 47 7z m165-2c14-13 34-69 44-124 6-33 7-114 1-145-5-29-19-71-30-94-18-35-31-45-50-36-12 4-29 22-37 38-5 10-17 47-17 53 0 1 13 2 31 2 17-1 32 0 32 1 0 1-10 15-22 31l-22 28 13 14c26 27 25 58-1 84l-14 13 26 30c14 16 25 31 25 32 0 0-13 1-30 1-16 0-30 1-30 3 0 1 3 10 6 19 18 52 50 73 75 50z m-91-161c34-15 25-62-12-62-37 0-47 46-13 62 10 4 14 4 25 0z"/>
<glyph glyph-name="adinkrahene" unicode="&#85;" d="M200 507c-25-10-62-29-70-38-4-4-9-8-12-8-2 0-9-7-17-16-7-9-15-17-16-17-1-1-3-3-3-5 0-1-6-11-13-23-8-11-14-21-14-22 0-2-4-13-9-26-5-12-9-26-10-31 0-5-1-10-2-12-1-2-2-25-2-52 0-52 3-73 18-106 5-10 10-21 10-24 1-4 5-12 10-18 5-6 9-12 9-14 0-3 6-10 26-29 29-28 40-37 43-35 1 1 2 0 2-2 0-2 1-3 3-3 2 0 10-4 20-9 10-5 21-9 24-10 4 0 8-2 10-3 2-1 27-2 54-1l51 1 30 14c17 8 35 19 41 24 13 11 47 45 47 47 0 1 6 10 13 21 8 11 14 21 14 23 0 1 4 12 9 24 4 12 9 25 9 30 1 4 2 8 3 10 1 2 2 28 2 58 0 58-2 74-18 109-5 11-10 22-11 24 0 2-4 10-9 16-5 7-9 13-9 15 0 3-1 4-3 4-2 0-4 2-4 4 0 2-8 11-17 20-10 8-22 20-28 25-6 5-12 9-15 9-2 0-4 2-4 4 0 2-1 3-3 2-2 0-13 5-26 11-24 11-26 12-72 13-35 0-51-1-61-4z m76-44c26-1 53-11 71-25 11-8 42-38 42-40 0-1 3-5 8-10 10-11 33-66 34-80 1-7 1-12 2-12 0 0 1-18 1-40 1-23 0-40-2-40-2 0-2-3-1-7 3-13-26-78-41-92-4-4-8-9-8-11 0-12-63-52-88-56-21-3-67-3-71 0-2 1-5 2-6 2-5-2-36 11-36 14 0 1-3 4-6 5-12 4-21 11-36 27-9 9-16 17-16 18 0 1-4 5-8 10-10 12-33 67-34 85-1 7-1 14-2 14-2 3-1 62 2 65 1 3 1 7 0 9-3 10 22 73 36 88 4 4 6 8 6 10 0 3 24 28 36 37 14 11 58 30 63 29 3-1 7-1 8 1 1 2 7 3 12 2 5-1 20-2 34-3z m-46-29c-1-1-5-2-10-2-5-1-17-6-26-12-9-5-18-10-20-10-2 0-3-1-3-4 0-1-2-3-4-3-7 0-33-32-45-56-14-29-17-43-17-89 0-54 4-71 22-97 3-5 5-10 4-11-1-1 35-40 39-40 1 0 8-4 17-10 16-11 41-21 45-19 2 1 4 1 5-1 3-5 42-5 45 0 1 2 4 3 7 1 8-2 54 21 69 35 7 6 13 11 15 11 1 0 2 2 2 3 0 2 6 13 14 24 28 40 37 106 22 156-3 9-6 20-7 25-1 5-6 15-12 23-6 8-10 14-10 15 0 1-8 10-17 19-9 9-17 16-17 15 0 0-5 2-10 6-15 10-40 21-45 19-2-1-3-1-3 1 0 3-57 4-60 1z m57-49c0-1 3-2 6-2 16 0 60-41 64-60 0-2 4-13 8-23 9-28 9-57-1-89-9-27-29-58-41-64-4-1-12-6-17-10-4-4-13-7-17-7-5 0-9-1-9-2 0-1-9-2-21-2-11 0-20 1-20 2 0 2-2 3-4 2-10-4-50 26-63 47-10 16-15 26-17 33-5 29-7 51-5 65 2 10 2 19 1 22-1 2 0 4 3 4 2 0 3 2 2 4-3 9 24 51 38 60 5 3 13 8 16 12 4 3 11 6 15 7 4 0 7 1 7 2 0 1 12 2 27 2 15 0 28-1 28-3z m-62-31c-4-2-14-8-20-15-7-6-13-11-15-11-3 0-17-32-22-52-5-19-1-47 9-65 3-6 5-12 6-13 0-6 23-26 38-34 14-7 21-8 42-8 23 0 27 2 42 11 19 14 41 43 46 61 5 21 2 56-5 71-17 32-19 36-22 36-2 0-10 5-17 11-13 10-16 11-44 11-16 1-33-1-38-3z m69-59c11-13 12-15 11-37 0-13-1-24-1-26-1-6-22-26-27-26-4 0-7-1-9-3-3-3-13-4-17-1-2 1-6 2-8 3-6 0-20 16-26 30-7 16-7 31 2 49 10 19 15 24 28 27 18 4 34-2 47-16z"/>
<glyph glyph-name="wawa-aba" unicode="&#86;" d="M220 493c-1-3-2-17-2-32l0-27-12 0c-11 0-13 1-17 11-2 6-11 18-18 26l-14 15-31 1c-18 1-37 0-42-2-8-3-9-5-8-12 4-15 18-25 38-28 12-2 21-6 30-14 8-7 7-10-2-13-54-17-109-62-130-107-10-20-10-25-10-59 0-35 0-39 10-60 20-42 49-69 99-94 16-8 31-16 31-17 1 0-1-5-5-11-8-10-11-11-28-6-12 4-32-9-41-25-3-7-3-9 3-15 10-10 62-12 84-4 14 5 33 23 46 42 4 5 8 7 11 5 5-1 6-7 6-27l0-25 35 0c41 0 40-1 40 31 0 15 1 20 5 21 11 4 15 2 22-10 3-7 12-19 19-25 12-12 13-12 43-13 35-1 49 3 48 15-2 9-22 27-32 28-4 0-11 1-15 2-4 1-8 2-9 2-4 0-13 10-13 14 0 2 2 3 5 3 9 0 65 31 82 45 22 18 40 41 52 67 8 17 9 23 9 57 0 34-1 39-11 59-12 26-39 57-65 75-19 12-56 31-62 31-5 0 6 19 13 23 3 2 11 3 17 2 31-5 62 29 38 42-14 7-69 6-85-3-12-6-44-38-44-44 0-2-4-3-9-3-8 0-8 0-8 27 0 39 1 37-38 37-27 0-33-1-35-5z m-2-247l0-139-8 1c-61 14-104 45-126 91-9 19-11 26-11 49 0 24 2 30 11 50 13 26 40 53 67 67 20 10 60 24 64 22 2-1 3-64 3-141z m108 135c47-16 87-48 105-85 8-18 10-25 10-48 0-29-4-42-20-66-18-26-36-41-74-60-14-7-21-9-45-14l-9-1 0 282 8-2c5 0 16-4 25-6z"/>
</font>
</defs>
</svg>
